<svg width="14" height="13" viewBox="0 0 14 13" fill="none" xmlns="http://www.w3.org/2000/svg">
<path d="M7.25976 3.29572C7.54723 2.92534 8.00214 2.39527 8.57676 1.88663H8.57741C9.06405 1.45495 10.017 0.900905 10.017 0.900905C10.1603 0.817395 10.1449 0.701085 9.98206 0.642552L8.83021 0.22727C8.66735 0.168485 8.44594 0.211375 8.33802 0.322134C8.33802 0.322134 7.48607 1.26497 6.48336 3.272C3.38301 2.19015 0.436035 3.70545 0.436035 6.34045C0.436035 9.09277 3.1809 13.2736 6.89282 12.0116C10.8023 13.3167 13.3516 9.09302 13.3516 6.34045C13.3516 3.68274 10.7025 2.12455 7.25976 3.29572Z" fill="white"/>
</svg>
