<?xml version="1.0" encoding="utf-8"?>
<!-- Generator: Adobe Illustrator 26.0.1, SVG Export Plug-In . SVG Version: 6.00 Build 0)  -->
<svg version="1.1" id="Layer_1" xmlns="http://www.w3.org/2000/svg" xmlns:xlink="http://www.w3.org/1999/xlink" x="0px" y="0px"
	 viewBox="0 0 360.5 396.2" style="enable-background:new 0 0 360.5 396.2;" xml:space="preserve">
<style type="text/css">
	.st0{fill:#FFDE89;stroke:#000000;}
	.st1{fill:#FFFD7D;}
</style>
<g id="Layer_2_00000039094011876178604030000013121550426252645307_">
	<g id="Layer_1-2">
		<path class="st0" d="M329.8,190.4l-36.5,37.5l-46-68l-52-30l-22,21l14.5,54l-30,14.5l-40.5-14.5l-15.5-45l-5.5-35.5l-49.5,26.5
			l-13-11v-46l26.5-46.5l68-33l78,8l79.5,25l44,77V190.4z"/>
		<path class="st1" d="M270.2,319.4l17.5-64l-31-84.5l-61.5-34h-24l8.5,67l-37,6.5l-31-27.5l-21-46h-25l-27.5,34l-14.5,76l23,67
			l44,43l52,24l84.5-11L270.2,319.4z"/>
		<path d="M82.6,156.5c-11.1,4.8-15.5,14.2-21.6,21.9c-2.6,3.2-5.3,6.5-7,10.2c-2.3,4.9-3.8,10.2-5.5,15.4c-2.1,6.1-4.5,12.1-6,18.4
			c-1,4.1,0,8.6-0.9,12.7c-2.5,12.2-1.2,24.2,2.8,35.7C49.1,284.9,54,299,64,310.5c1.9,2.2,3,5.3,5.1,7.2c6.8,6.2,14.2,11.9,21,18.2
			c10.8,9.8,24.2,14.4,37.5,18.8c14.6,5,30.1,6.9,45.5,5.5c11.8-1.2,23.6-3.2,35.4-5.1c2-0.3,3.9-1.7,5.9-2.7
			c5.3-2.8,10.7-5.3,15.8-8.4c3.5-2,6.7-4.6,9.6-7.5c3.9-4.3,7.5-8.9,10.6-13.8c4.8-7.5,9.9-15,13.3-23.2
			c5.5-13.5,5.1-28.2,6.3-42.5c0.6-7.5-2.4-14.3-3.4-21.4c-2-14.4-8.1-27-15.6-38.8c-6.1-9.6-12.3-19.8-22.8-25.8
			c-1.1-0.7-1.9-1.9-2.9-2.7c-8-5.9-15.4-12.8-25.3-15.6c-1.8-0.4-3.6,0.1-5,1.1c-5.1,4.6-4.2,14.5,1.4,19.5
			c8,7.1,10.6,16.9,13.3,26.5c0.5,1.9-0.3,4.2-0.7,6.3c-1.4,7.1-6.7,10.9-11.6,15.6c-6.3,6.3-14.4,10.4-23.2,11.8
			c-24.8,3.6-48.1,1.8-67.3-18.5c-12.2-12.9-18.9-27.8-23.7-44c-0.7-2.3,0-4.9-0.1-7.4C83,161.5,82.8,159.4,82.6,156.5z M51.1,130.1
			c1-0.5,1.7-0.9,2.4-1.2c8-3.8,16.1-7.6,24.1-11.4c3.7-1.7,8.2-2.6,10.9-5.3s4.2-7.2,5.3-11.1c3.3-12.8,12.8-21.2,21.4-30
			c7.5-7.7,17.7-11.5,28.1-14.2c12.4-3.1,23.5,6.3,21.1,18.2c-1.4,6.9-6.9,10.8-12.6,13.4c-7,3.2-11.2,8.6-15,14.8
			c-7.4,12-9.4,25.7-13,38.9c-1,3.8-2,8.1-1.1,11.8c2.3,9.4,1.9,19.5,7.1,28.3c2.1,3.7,3.7,7.1,7.6,9.1c1.4,0.7,2.5,2.3,3.9,3.1
			c7.3,4.4,16,5.7,24.2,3.5c-0.9-1.1-1.4-1.8-1.9-2.4c-12.8-15.2-17.4-32.6-14.1-52c0.9-4.7,2.2-9.4,3.9-13.9
			c4.2-11,10.4-20.5,22.2-24.7c5.6-2,11.3-3.6,17.1-5c13.1-3.2,22.5,3.6,23.8,17.1c0.2,1.2,0.9,2.3,1.9,3c3.1,1.8,6.6,3.2,9.7,5
			c5.4,3.2,11.1,6.1,16.1,9.9c6.6,5,12.4,11.2,19,16.1c11.2,8.2,17.7,20,25.1,31.1c3.1,4.6,5.2,9.8,8.6,16.3
			c7-10.5,14.1-19.1,19-28.9c5.6-11,4.3-23.6,2.7-35.3c-1.3-8.9-5.3-17.6-9.1-26c-8.8-19.6-23.6-34-41.5-45.2
			c-26-16.2-55.4-21.8-85.1-25.9c-14.5-2.2-29.2-1.9-43.6,1c-6.3,1.3-12.8,1.9-18.9,3.6c-8.8,2.4-17.5,5.3-26,8.4
			c-15.4,5.6-28,14.1-36,29.7C50.5,96,48.9,112.3,51.1,130.1z M350.6,98.8c11.8,32.1,14.4,63.2,0.1,94.7
			c-8.7,18-11.8,23.3-22.6,34.1c-1.1,0-2.1,0.3-2.9,1c-4,3-7.6,6.5-11.9,8.9c-3.4,1.9-3.6,4.1-3.5,7.3c0.5,5.9,0.6,11.9,0.4,17.9
			c-0.3,5.4-2.1,10.8-2.1,16.2c0,22.1-8.5,41.4-19.8,59.7c-3.6,5.9-9.8,10.2-13,16.3c-5.1,9.6-13.7,14.7-22.4,19.8
			c-6.8,3.8-13.8,7.3-21,10.3c-15.3,6.8-31.3,11.4-48.1,11.3c-15.9-0.1-31.9-0.3-47.7-1.8c-9.9-0.9-19.7-3.2-28.9-6.9
			C93.7,382,81,374.7,68.1,368c-1.7-1-3.3-2.2-4.7-3.6c-5.6-5.2-10.8-10.9-16.8-15.6c-12-9.5-20-22-27.6-34.9
			c-8-13.6-13.7-28.4-16.8-43.8c-3.3-15.8-2-31.8-0.9-47.6c0.5-8.1,4.1-16,6.6-23.9c2.8-8.8,5.9-17.5,8.6-25.3
			c-1.1-16-9-70.6-4.5-85.6c4.3-14.3,10.8-27.8,19.2-40c15.9-17.9,51.4-31.8,56.9-34.3c18.3-8.2,37.9-12.7,57.9-13.4
			c21.2-0.5,42.6,1.3,63.6,4.2c15.2,2.2,30.2,6,44.7,11.4c14.3,5.3,27.6,12.3,40.8,19.4c8,4.3,14.4,11.5,21.6,17.4
			c2.3,1.8,4.6,4.6,7.2,5C345.7,82.3,341.2,84.4,350.6,98.8L350.6,98.8z"/>
		<path d="M141.8,248.5c20.6-0.6,35.9,16.1,32.9,35.9c-1,6.7-4.2,12.2-10.2,15.2c-4.7,2.3-5,5.8-5.1,10.2c0,5.6-0.5,11.2-1.5,16.8
			c-1.6,7.8-8.2,12.5-17,12.7c-8,0.2-15.6-4.5-17.2-11.8c-1.1-6-1.6-12.1-1.3-18.2c0.1-4.7,0-8.8-4-12.1c-11.8-9.7-11.2-22-6.4-34.6
			c3.5-9.3,12.3-11.5,20.8-13.3C135.7,248.5,138.8,248.7,141.8,248.5z"/>
	</g>
</g>
</svg>
