<svg width="16" height="30" viewBox="0 0 16 30" fill="none" xmlns="http://www.w3.org/2000/svg">
<path d="M13.103 3.90281C14.1587 3.84919 15 3.0024 15 1.95638C15 0.875796 14.1045 -0.00012207 12.9999 -0.00012207H3C1.8954 -0.00012207 0.999959 0.875796 0.999959 1.95638C0.999959 3.0024 1.84125 3.84919 2.89698 3.90275C2.27262 9.42644 0 9.79031 0 15.3464V27.0651C0 28.6834 1.34574 29.9999 3 29.9999H13C14.6543 29.9999 16 28.6834 16 27.0651V15.3464C15.9999 9.78099 13.7288 9.44021 13.103 3.90281ZM7.34699 12.094C5.96178 11.1906 4.31902 10.8498 2.75963 11.0385C2.94076 10.5361 3.15117 10.044 3.39453 9.56783C4.20803 7.97519 4.71397 5.80757 4.90821 3.91289H11.0918C11.286 5.80757 11.7919 7.97519 12.6055 9.56783C12.9444 10.2309 13.2234 10.9236 13.441 11.6344C12.708 11.9903 10.3003 14.0201 7.34699 12.094Z" fill="white"/>
</svg>
