<?xml version="1.0" encoding="utf-8"?>
<!-- Generator: Adobe Illustrator 25.4.1, SVG Export Plug-In . SVG Version: 6.00 Build 0)  -->
<svg version="1.1" id="Layer_1" xmlns="http://www.w3.org/2000/svg" xmlns:xlink="http://www.w3.org/1999/xlink" x="0px" y="0px"
	 viewBox="0 0 2000 2000" style="enable-background:new 0 0 2000 2000;" xml:space="preserve">
<style type="text/css">
	.st0{fill:#FFFFFF;}
</style>
<g>
	<path class="st0" d="M1978.8,782.6c0,4.1,0,8.1,0,12.2c-0.3,0-0.7,0-0.7,0c-0.5,4.6-2.4,8.9-2.4,13.5c0,3.2-0.1,6.2-1.2,9.4
		c-0.8,2.3-2,4.9-1.9,7.7c0.2,5.4-2.1,10.2-3.6,15.2c-1.3,4.3-4.9,7.9-4,12.9c-3.2,1.6-0.6,5-2.5,7.4c-3.2,4.1-3.8,9.7-7.6,13.6
		c-1.1,1.1-1.8,2.9-2,4.5c-1.1,7.5-4.7,13.8-8.6,20.1c-2,3.2-4.9,5.4-6.9,8.5c-3.5,5.5-7.6,10.7-11.8,15.7
		c-4.4,5.3-10.9,8.9-13.9,15.5c-0.1,0.2-0.4,0.4-0.5,0.5c-7.8,8.6-17.4,14.7-27.4,20.3c-7.3,4-15,7.3-21.4,13
		c-3.5,3.1-8.3,5.2-13,7.1c-5.5,2.3-11.4,3-16.7,5.7c-3.5,1.8-7.7,2.8-11.6,3c-4.2,0.2-7.2,1.9-10.6,4.1c-2.3,1.5-4.6,3.3-7.2,4.6
		c-7.2,3.6-14.6,7.3-22.6,8c-9.4,0.9-18.9,0-28.4,1.5c-4.5,0.7-8.9,1.8-13.4,2.7c-5.2,1.1-10.6,1.5-15.9,2.1c-2,0.2-3.1-2-5.5-1.7
		c-5.1,0.7-10-1-14.8-2.9c-3.4-1.4-7.1-1.7-10.8-1.6c-5.9,0.1-11.6,2.5-17.7,1.7c-3-0.4-6.1,0-9.1-0.1c-3.4,0-6.7-0.3-10.1-1.2
		c-2.4-0.7-4.8-2.2-7.7-1.9c-3,0.3-6.1,0.4-9.1,0c-3.2-0.5-5.4,1.9-8.5,1.8c-8.4-0.4-16.8-0.3-25.2,0c-2.4,0.1-4.1-1.3-6.2-1.7
		c-1.1,0.7-1.8,1.7-3.3,1.7c-7.7,0-15.3,0.1-23,1.2c-7.7,1.1-15.7,0.2-23.6,0.2c-5.1,0-10.2-0.1-15.3,0c-1.4,0-2.8-0.2-4.4,0.4
		c-4.5,1.7-9.2,2.9-14.2,2.6c-4.6-0.2-9.2,0.1-13.7-0.1c-2.1-0.1-4.6,1.1-6.3-1.2c-6.5,0-13-1.2-19.4,0.6c-3.5,1-7,1.3-10.2,0
		c-1.7-0.7-3.3-0.9-4.9-0.9c-8.6-0.1-17.3,0-25.9,0c-1.9,0-3.7,0.8-5.5,1.3c-11.4,3.2-22.6,7.2-34.8,6.4c-1.8-0.1-12.2,3-13.5,4.2
		c-4.7,4.1-10.3,7.1-16,9.3c-6.4,2.5-8.9,7.5-11,13c-0.9,2.3-1.6,4.5-2.8,6c-1.8,11.1,1.7,21.7,1.2,32.2c1.3,1.4,2.5,2.7,3.8,4
		c1.6,0,3.3-0.4,4.6,0.1c5.3,2.1,11,3,16.4,4.5c7.1,1.9,14.3,2.9,21.2,5.9c5.8,2.5,11.3,5.3,15.9,9.5c3.1,2.9,6,6.2,9,9.3
		c12.6-2.2,24.1,1.7,35.5,4.8c7.9,2.2,15.4,5.6,23.4,8c5.8,1.7,11.4,4.5,17.2,6.3c6.1,1.8,11.5,4.4,16.4,8.5c1.7,1.4,3.7,3,5.9,4
		c8.5,4.1,15.5,10.1,20.7,18.1c1.6,2.4,4.1,4.1,6.8,5.6c6.1,3.4,12,7.2,17.1,12.2c3.8,3.7,6.3,8.3,10.1,11.9
		c4.1,3.8,8.1,7.8,11.9,11.9c4.6,5,8.2,10.4,10.1,17.2c0.9,3.1,0.8,6.6,2.8,9.5c1.9,2.7,3.5,5.6,4.5,8.8c0.4,1.1,1.9,1.7,1.5,3.2
		c-0.6,2.1,1.4,3.8,1.4,5.5c0,2.5,2.1,3.3,2.7,5c1.9,4.8,4.4,9.7,4.8,14.7c1,10.2-0.3,20.4,1.6,30.6c1.4,7.6-2.4,14.8-3.1,22.3
		c-2.2,1.4-1.3,3.6-1.3,5.5c0,7.6-2.3,14.6-5.7,21.3c-3.7,7.3-7.7,14.5-10.5,22.4c-1.7,4.8-4.3,9.4-7.2,13.8
		c-2.5,3.9-6.5,6.4-8.5,10.2c-2.1,4.1-5,7.6-7.1,11.5c-2.4,4.6-6.1,8.1-10,11c-6.2,4.6-12.3,9.1-17.5,14.8c-3,3.3-6.3,6.4-10.2,8.5
		c-4.3,2.4-7.8,5.9-11.8,8.5c-5.1,3.3-9.3,8.3-16.1,9.1c-1.6,0.2-3.7,1.8-5.4,3.4c-7.5,6.9-16.9,10.5-26.6,13
		c-3.7,0.9-7.4,2-10.8,3.5c-3.4,1.6-7.2,1.9-10.6,3.9c-6.8,3.8-14.3,6.3-22.4,6.6c-2.7,0.1-5.4,1.5-8,2.6c-1.5,0.6-2.7,1.8-4.5,2
		c-7.7,0.8-15.2,3.5-23.2,3c-0.8-0.1-1.6-0.2-2.3,0c-6.7,2.6-13.7,3.3-20.9,3c-1,0-2.1-0.1-2.9,0.3c-5.3,2.3-10.7,3-16.4,2.8
		c-3.8-0.2-7.6,0-11.4,0c-2,0-4.1,0-6.1,0c-1.7,0-2.7,1.7-4.7,1.7c-1.7,0-3.8,0.9-5.4,1.6c-3.6,1.6-7.3,0.7-10.8,1.5
		c-6.8,1.6-6.8,1.6-13.4,0c-1.4-0.4-3.5-0.8-4.4-0.1c-2.7,2.2-5.8,1.4-8.6,1.3c-6.4-0.2-13,1.3-19.2-1.4c-9.5,1-18.8-2.3-28.4-1.6
		c-6.1,0.4-12.2,0.1-18.3,0.1c-2.4,0-4.7-0.7-7.1-1.2c-4.5-0.9-9-2.6-13.8-1.9c-3.7,0.5-7.6,0.1-11.4,0.1c-4.7,0.1-9.1-1.4-13.5-2.5
		c-2.8-0.7-6.1-1.3-8-0.2c-2.8,1.6-5.3,1.1-7.9,1.2c-3.8,0.2-7.6,0.1-11.4,0c-3.6-0.1-7.2,0.3-10.9-1.3c-3.4-1.4-6.8,1.8-10.7,1.5
		c-6.1-0.5-12.3,0.6-18.4,1.1c-15.2,1.4-30.5-0.2-45.9,1.4c-10.3,1.1-20.9,1.5-31.4-1c-4.2-1-8.7,0.6-13.1,1
		c-6.3,0.6-12.9,1.7-19.2-1.1c-1.1-0.5-3.1-0.8-4.2,0.5c-1,1.2-2.3,1-3.5,0.9c-15.4-1.1-30.6,2-45.9,1.5c-1.7,0-3.6,0.2-5.2-0.3
		c-5.1-1.5-10.4-2-15.6-2.8c-5.1-0.8-9.6,2.1-14.6,1.7c-5-0.4-10.2-0.1-15.2-0.1c-0.5,0-1.3-0.2-1.5,0c-2.2,3.4-6,0.7-9,2.3
		c-2.8,1.5-6.9,1-10.3,0.6c-7-0.7-13.7,1.8-20.6,1.9c-0.2,0-0.4,0.8-0.5,1.2c-4.6,0-9.2,0-13.7,0c0-2.1-1.7-1.5-2.8-1.5
		c-9.4,0-18.8,0-28.2,0c-1.7,0-3.6,0.2-5.2-0.4c-4.6-1.6-9.4-2-14.2-2.5c-4.8-0.5-9.7,0.1-14.7,1.1c-6,1.3-12.2-0.1-18.4-1.1
		c-7.1-1.1-14.3,0.5-21.5-1.4c-3.9-1.1-7.8-1.4-11.7-3c-7.5-3.2-16.7-4.8-23-3.1c-6.7,1.9-13.4,0.8-20,1.3c-2.8,0.2-5.6,0.1-8.4,0
		c-4.6-0.2-9.2,0.1-14-1.2c-2.9-0.8-6-1.8-9.2-1.9c-7.2-0.1-14.2-2.4-21.5-1.5c-1.1,0.1-1.9-0.7-2.7-0.9c-7.1-1.3-13.9-4.6-21.4-3.7
		c-1.7,0.2-3.7,0.4-5.2-0.2c-4.3-1.7-8.9-2.1-13.3-3c-4.9-1.1-9.8-1.5-14.7-1.2c-7,0.3-13.4-1.8-19.8-3.7c-3.2-1-6.1-3.1-9.7-2.4
		c-2.2,0.4-3.2-2.1-5.5-1.7c-1.8,0.3-3.7-0.6-5.5-1.1c-8.7-2.4-17.2-5.8-26.4-6.4c-2.7-3.2-7.4,0.2-10.2-3c-7.7-1.6-14.8-5-22.6-6.5
		c-6.1-1.2-12.5-2.4-18.2-5.7c-8.4-4.8-17.7-7.6-26.8-10.8c-6.4-2.2-13.1-3.7-18.8-8.2c-9-7.2-19.4-12.4-28.6-19.4
		c-4.8-3.7-10.1-6.8-14.3-11.4c-1.5-1.7-3-3.3-4.7-4.9c-7.6-7.3-15.6-14.3-21.6-23.1c-2.7-4-5.5-8.4-6.1-13.8
		c-7.6-5.5-12.4-13.6-15.9-22.1c-2.1-5.2-4.9-10.7-3.6-15.9c-0.6-2.6-2.3-3.2-3.1-5c-2.2-4.5-4.1-9-5.9-13.6
		c-2.5-6.3-4.7-12.6-4.6-19.5c0-1.5,0.2-3.2-0.3-4.4c-3.4-7.3-3.5-15.1-2.4-22.5c1-6.4,1.9-13,3.1-19.3c1.4-7,3.2-14.2,7.1-20.7
		c2-3.3,2.7-7.6,3.1-11.6c1.1-10.6,4.8-20,12.2-27.8c2-2.1,3.5-4.5,4.7-7.2c4.4-9.4,10.2-17.7,19.4-23.1c1.3-0.8,2.8-2,3.1-3.2
		c0.7-2.7,2.8-4.1,4.5-5.8c3-2.9,6.2-5.6,9.3-8.4c2.4-2.2,3.9-5.1,7.2-6.8c3-1.6,5-4.5,7.9-6.5c7.5-5.2,15.8-8.9,23.1-14.5
		c2.1-1.6,5-2.5,7.7-3.4c6.5-2.2,13.3-3.4,19.6-6c4.6-1.9,9.9-1.7,14.1-4.6c5.7-3.9,12.5-5.1,18.9-5.7c8.1-0.8,16.2-2.7,24.5-1.9
		c5.3,0.5,10.7,0.2,16,0.1c1.4,0,2.8,0.3,4.4-0.4c6.7-3,14.1-3.1,21.2-3.9c7.5-0.9,15.2,0.1,22.9-0.3c2.3-0.1,3.5,1.8,5.5,1.7
		c1.3-1.4,2.9-1.7,4.7-1.6c3,0.1,6.5,0.9,9-0.2c2.6-1.2,4.3-1.9,6.5,0.2c0.4,0.4,1.5,0.1,2.2,0c4.2-0.4,8.3,0.4,12.3,1.5
		c3.1,0.9,6.1,2.5,9.5,0.1c1-0.7,3.5-0.7,4.4,0c2.7,2.3,5.8,0.8,8.6,1.5c4.1,1.1,7.7-1.5,11.6-1.6c7.2-0.3,14.3,0.5,21.6-1.2
		c5.6-1.4,11.7-0.9,17.6-1.5c10.3-1,20.8-0.6,31.2-0.2c10.3,0.4,20.3-2.6,30.7-1.7c3.3,0.3,7,1,9.8-0.1c7.1-3,14.3-2.9,21.7-2.9
		c1.2,0,2.5,0.5,3.6-0.4c4.2-3.2,9.6-3.8,12.6-5.5c3.5-4.8,4.5-9,7.9-12.2c1.8-1.7,3-4.3,2.8-7.2c-0.3-3.8-0.1-7.6,0-11.4
		c0-1.4-0.4-2.9,0.6-4.3c2.7-3.9,0.1-7.2-2.1-9.8c-4.5-5.2-10.3-9.3-12.3-16.6c-4.2,1.4-7.1-0.8-10.3-1.7c-3.1-0.9-6.1-2.6-9.1-3.7
		c-3.1-1.2-7-0.2-10.6-0.3c-1,0-2.1,0.2-3-0.2c-4.3-1.9-8.8-2.1-13.3-3.1c-4.7-1-9.2-1.3-13.9-1.3c-9.2,0-18.3,0.2-27.5-0.1
		c-17.1-0.5-34.1,2.8-51.2,1.5c-1.6-0.1-2.9,1.3-4,1.4c-4.7,0.3-9,2.2-13.9,1.8c-6.8-0.5-13.7-0.1-20.6-0.1c-1.5,0-3.2,0.5-4.5-0.1
		c-5.5-2.3-10.9-2.3-16.3,0c-1.1,0.5-3,0.6-3.7,0c-2.7-2.4-5.8-0.9-8.6-1.5c-4.1-0.8-7.5,2-11.6,1.6c-4.3-0.4-8.7,0.1-13-0.2
		c-2.6-0.2-5.6,1.3-7.9-1c-2.6,1.6-5.5,0.9-8.3,1.1c-4.5,0.4-8.8-1.2-13.1-1.4c-8.6-0.5-17.3-0.5-25.9,0c-8.6,0.5-16.9-1.5-25.3-1.7
		c-4.6-0.1-9.5,1.4-13.9-1.4c-0.5-0.3-1.6-0.3-2.2,0c-5.9,3-12.7,2.2-18.7,4.5c-15.4-0.9-31,2.3-46.1-3c-1.6-0.6-3.6-0.4-5.3,0
		c-11.7,2.4-18,1.7-29.4-1.4c-4.3-1.2-8.4-3.9-13.2-3.3c-8.8,1.1-17.3-1.7-26.1-1.5c-0.7,0-1.8,0-2.1-0.4c-1.4-2.1-4.1-0.6-6.1-2.3
		c-1.5-1.3-4.9-0.2-7.4-0.3c-1.4,0-3-0.8-4.1-0.9c-5.4-0.4-10.3-2.7-15.2-4c-5.2-1.4-10.9,0.4-15.6-2.7c-4.8,1-9.1-1.5-13.8-1.8
		c-4.6-0.3-9.5-1.3-14-2.9c-6.4-2.3-13.1-3.7-18.8-8.1c-3.5-2.6-7.2-5.1-11.9-6.3c-6.6-1.6-13.1-4.1-18.7-8.3
		c-1-0.7-2.3-1.4-3.8-1.8c-11.3-2.9-21-8.9-29.8-16.3c-3.4-2.8-6.7-5.6-10.4-8.1c-4.3-2.9-9.1-5.4-11.9-9.7
		c-3.5-5.4-7.6-10.2-11.9-14.9c-4.9-5.4-11.4-9-16.2-14.5c-4.5-5.3-8.6-11-14-15.5c-5-4.2-7.3-10.2-10.9-15.3c-1-1.5-0.3-2.9-1-4.2
		c-5.7-5.4-10.3-11.4-12-19.4c-0.3-1.5-1.5-2.9-2.5-4.3c-5.2-6.9-9.1-14.3-11.3-22.8c-0.7-2.5-2-5.2-3.6-7.7
		c-5.7-9.1-8.9-23.8-5.8-34c1.4-4.4,1.4-9.7-0.3-14.1c-1-2.6-0.3-4.9-0.9-7.2c-0.7-2.6-1.8-4.9-1.6-7.8c0.3-4,0.1-8.1,0.1-12.2
		c0-3.8,0.4-7.7-0.1-11.4c-0.5-4.1,2-7.5,1.7-11.6c-0.6-9.2,2.6-17.4,8.1-24.8c1.4-1.9,3.4-3.8,3.9-6c1.7-8.6,8.7-14.7,10.8-23
		c0.1-0.5,0.2-1,0.4-1.3c3.8-4.8,6.2-10.6,11.3-14.5c1.4-1.1,2.3-3,3.3-4.7c2.8-4.9,5.8-9.9,10.4-13.1c4.6-3.2,9.4-6.2,13.2-10.5
		c9-10,19.9-18.1,27.3-29.8c3.9-6.1,9.8-11.4,16.4-15.2c6-3.4,12.2-6.3,19.6-7.5c2.2-2,4.7-4.5,8.3-5.9c5.2-2.1,10.7-4,15.6-6.4
		c5.2-2.5,10.3-4.5,15.7-6.3c1.6-0.5,3.3-0.2,4.8-1.4c8.8-6.9,19.6-8.2,30.1-10c3.6-0.6,6.9-1.5,10.3-2.8c1.5-0.6,2.7-1.9,4.5-2
		c6.3-0.4,12.3-2.5,18.5-3.3c3.6-0.5,7.5-0.1,10.7-1.5c6.1-2.6,12.3-2.7,18.7-2.8c6.4-0.1,12.8,0.3,19.3-1.2
		c6.4-1.4,13.3-1.2,19.9-1.5c16-0.9,32-0.2,48-0.5c1.8,0,3.1,2.9,5,0.6c5.4,0.2,10.5-2.3,16-1.9c7.7,0.6,15.3,0.1,23.1,1.2
		c9.7,1.4,19.8,0.3,29.7,0.3c0.5,0,1.2,0.2,1.5,0c2.9-2.9,6.9-1.1,10.4-2.7c3.2-1.4,7.5-0.3,11.3-0.3s7.6,0,11.4,0
		c4.3,0,8.7,0.4,13-0.1c4.6-0.5,8.6,2.4,13.1,1.6c1.4-0.2,1.7,2,3.3,1.4c1.4-1.4,3.3-1.6,5.3-1.5c9.7,0.7,19.1-0.9,28.5-2.9
		c2.3-0.5,4.3-1.8,7-1.7c8.1,0.3,16.3,0.1,24.4,0.2c1.4,0,2.9-0.5,4.4,0.5c3.2,2.1,7.2,1.6,10.1,0.6c2.5-0.9,4.9-1.3,7.1-1
		c2.9,0.4,5-1.7,7.8-1.8c11-0.2,21.9,2.8,32.9,1.6c0.9-0.1,1.3,0.6,1.9,0.9c3.4,1.2,7.1,1.5,10.1,0c2.3-1.2,4.7,0,6.5-1
		c2.3-1.3,4.6-1.4,7.1-1.4c5.8,0,11.7,0.2,17.5,0c5.8-0.3,11.4-1.8,17.1-2.8c6.3-1.2,12.6,1.9,19,1.8c2.3,2.4,5.8,1.7,7.8,0.9
		c4.4-1.8,8.8-1,13.2-1.3c1.5-0.1,3.6,0.6,4.5-0.2c3.2-2.8,6.9-0.6,10.1-1.4c2.1-0.6,3,1.3,4.7,1.7c2.3,0.5,3.2-2.1,5.5-1.7
		c6.1,1,12.5-1.5,18.5,1.5c1.2,0.6,3.3,0.6,4.5,0c4.8-2.6,9.8-0.9,14.7-1.5c2.6-0.3,5.6,1.2,7.8-1.5c4.9,0.4,10-1.2,15.1,1.7
		c1.1-2.8,3.6-1.5,5.8-1.7c12.3-1.2,24.5,2.1,36.7,1.5c1-0.1,1.8,0.3,2.7,0.8c2.8,1.4,6,1.4,8.6,0.2c1.8-0.8,3.3-0.9,5-0.9
		c5.6-0.1,11.2,0,16.8,0c4.4-0.1,8.3,2,11.8,2.9c19.6-5.6,37.8-3.2,55.3,6.3c4.6,0,9.5,0.4,14.2-0.2c1.8-0.2,2.2,1.6,4.4,1
		c5.1-1.3,10.3-2.8,15.9-2.4c5.6,0.4,11.2,0.2,16.8,0c5.7-0.2,11,1.2,16.4,2.6c5.5,1.4,11.7,1.4,17.2-0.1c3.3-0.9,6.5-1.2,9.4-0.7
		c2.6,0.4,5.1,1.8,7.8,1.3c2.9-0.5,5.1,2,7.8,1.5c2.4-0.5,3.8,1.8,6.2,1.7c7.6-0.3,15.3,0.1,22.9-0.1c7.5-0.2,14.7,2.5,22.3,1.7
		c3-0.3,6.1-0.5,9.4,1.2c2.4,1.2,6.2,0.8,8.9-0.2c6.4-2.3,12.9-0.4,19.4-1.1c2.8,3.1,6.9,0.3,9.8,2c3.3,2,6.9,0.8,10.3,0.9
		c4.8,0.3,9.7,0,14.5,0.1c1.7,0,3.3,0.4,4.9,0.8c4.1,1.1,8.1,2.6,12.3,3.5c3.4,0.8,7.1,0.5,10.6,0.1c3.9-0.5,7,2.1,10.8,1.7
		c7.6-0.8,15.3,0.7,23.1-1.4c7-2,14.2,1.6,21.4,1.4c0.2,0,0.3,0.4,0.5,0.5c4.6,1.5,9.2,2.7,14.2,2.6c6.9-0.2,13.7-0.1,20.6,0
		c1.5,0,3.1-0.2,4.5,0.3c5.1,1.6,10.3,2.4,15.6,2.7c4,0.3,8.1,0,12.2,0.1c1.7,0.1,3.3,0.2,5,0.7c7.4,2.2,14.8,4.8,22.9,3.9
		c4.3-0.5,8.6-0.1,13-0.1c4.7,0,9.3,1.1,13.7,2.1c5.7,1.3,11.3,3.1,17.2,2.4c7.3-0.8,14.2,2.6,21.5,1.6c0.2,0,0.6-0.1,0.7,0
		c2.7,3,6.7,0.1,9.2,1.7c3.5,2.3,6.9,1.4,10.2,1.1c8.1-0.6,15.8,2.3,23.8,1.7c3.3,3,7.5,1.1,11.3,2.2c7.4,2.3,14.8,5,22.8,3.9
		c6.9-0.9,13.4,1.6,19.8,3.8c2.2,0.8,4.4,2,6.7,2.2c4,0.4,8.2,0.4,12.2,0c4.1-0.5,7.5,2.2,11.6,1.7c3.8-0.4,7.6,0.2,11.4-0.2
		c4-0.4,7.5,2.4,11.6,1.7c0.7-0.1,1.6,1.4,2.4,1.4c4.5-0.1,7.9,3.4,12.5,3.2c5.6-0.2,11.2-0.5,16.8,0.1c5.5,0.6,10.9,1.8,16.3,2.7
		c4.6,0.8,8.8,2.1,12.9,4c4.6,2.2,9.3,3.7,14.4,3.9c1.4,0.1,2.7,0.1,4.2,0.8c2.7,1.3,5.9,1.8,9,2.1c4.9,0.5,9.2,2.3,13.4,4.6
		c2.3,0,5.1-0.9,6.7,0.2c3,1.9,6.5,1.7,9.6,2.6c3.5,1,7.6,0.2,11.4,0.3c1.7,0,3.4,0.7,4.9,0.8c6.1,0.6,11.3,3.6,16.9,5.5
		c6.8,2.3,14,4.3,20.2,8.9c3,0,6.1,1,9.1,1.3c8.1,0.6,15.5,3,22.6,6.4c1.6,0.8,3.1,1.1,4.7,1.6c5.9,1.5,11.9,3.2,17.6,5.4
		c5.7,2.2,11.8,3.7,16.5,8.1c1,1,3.3,1.5,5.3,1.9c6,1,12.3,2.7,17.1,6.2c5.1,3.8,10.6,6.3,16.3,8.7c13.2,5.6,24.4,14.2,35.5,22.9
		c6.6,5.1,11.2,12.2,16.5,18.4c5.6,6.5,10.9,13.4,16.9,19.7c4.1,4.3,7,9.5,8.8,15.4c2.5,7.8,4.9,15.7,8.9,23
		c3.1,5.7,4.6,12,4.8,18.6c0.1,3.3,0.6,6.9,2,9.8c2.8,6.1,5.4,12.1,6.4,18.7C1978.1,782.6,1978.5,782.6,1978.8,782.6z"/>
</g>
</svg>
