<svg width="1195" height="1014" viewBox="0 0 1195 1014" fill="none" xmlns="http://www.w3.org/2000/svg">
<path d="M1145 487.5L771 604.5L531 585L490 552.5L369 513.5L274 539.5L97 498.5V401L164 157L254.5 55.5L339 27.5H421L466.5 72.5L531 55.5H656.5L732 72.5L855.5 27.5L948.5 55.5L1060.5 157L1121 358L1145 487.5Z" fill="#90CFF1"/>
<path d="M785.5 589L1148 487.5L1122 323L1057.5 186C877.1 97.2 801 371 785.5 519V589Z" fill="#6CB2D8"/>
<path d="M1102.5 794L1137.5 646.5H1115.5L965 676L780.5 732.5H689L531 708.5L91.5 626L112 831L125 872.5L234.5 916.5L714 993.5H765.5L1078.5 863.5L1102.5 794Z" fill="#D78D48"/>
<path d="M1171 580.5L1149.5 624L771 736L628.5 725.5L75 624L51.5 552.5L75 505L518 580.5L767 600L1149.5 492L1171 580.5Z" fill="#D5D5D5"/>
<path d="M535.5 692.5L499 730L453 662L401 632L379 653L393.5 707L363.5 721.5L323 707L307.5 662L302 626.5L252.5 653L239.5 642V596L266 549.5L334 516.5L412 524.5L491.5 549.5L535.5 626.5V692.5Z" fill="#FFDE89" stroke="#222222"/>
<path d="M476 821.5L493.5 757.5L462.5 673L401 639H377L385.5 706L348.5 712.5L317.5 685L296.5 639H271.5L244 673L229.5 749L252.5 816L296.5 859L348.5 883L433 872L476 821.5Z" fill="#FFFD7D"/>
<path d="M770.5 991V740L1140 630.5L1091.5 870L996.5 911L770.5 991Z" fill="#9D6A3B"/>
<path d="M354.869 0C369.189 1.65 383.719 2.27 397.759 5.22C414.369 8.69 429.069 16.92 441.449 28.82C449.959 36.99 458.309 45.32 466.989 53.3C468.159 54.37 470.989 54.39 472.779 53.88C480.779 51.56 488.429 48.32 496.469 46.47C508.849 43.6 520.979 39.7 533.969 39.26C545.719 38.87 557.389 36.51 569.119 35.34C573.899 34.87 578.759 35.28 583.579 35.27C597.179 35.21 610.829 34.42 624.369 35.27C639.109 36.2 653.759 38.58 668.429 40.48C676.299 41.48 684.229 42.35 691.939 44.12C701.599 46.34 711.039 49.5 720.619 52.05C721.356 52.2119 722.118 52.2245 722.859 52.0871C723.601 51.9497 724.308 51.6651 724.939 51.25C737.939 41.34 752.809 35.33 767.939 29.97C781.039 25.33 794.229 20.87 807.549 16.92C812.389 15.48 817.739 15.78 822.859 15.23C832.089 14.23 841.309 12.96 850.569 12.23C855.052 11.9636 859.552 12.1479 863.999 12.78C879.469 14.71 894.999 16.54 910.339 19.08C916.269 20.08 921.999 22.63 927.639 24.94C932.969 27.12 938.059 29.94 943.249 32.42C949.919 35.68 956.789 38.59 963.189 42.32C970.899 46.8 978.659 51.4 985.559 56.98C996.062 65.2858 1006.06 74.2117 1015.5 83.71C1026.28 94.76 1036.22 106.64 1046.1 118.53C1053.46 127.266 1060.36 136.385 1066.76 145.85C1071.3 152.67 1074.48 160.41 1078.25 167.75C1080.25 171.75 1082.03 175.87 1084.34 179.69C1090.34 189.63 1094.46 200.33 1098.63 211.15C1103.69 224.25 1110.87 236.51 1116.25 249.5C1120.67 260.17 1123.79 271.37 1127.48 282.34C1128.48 285.17 1129.38 288 1130.28 290.85C1134.03 302.68 1138.28 314.37 1141.38 326.38C1145.25 341.38 1148.3 356.63 1151.38 371.84C1153.7 383.17 1155.87 394.55 1157.49 406C1158.49 413.18 1158.28 420.53 1158.8 427.8C1159.15 432.71 1160.07 437.59 1160.3 442.5C1160.69 450.93 1160.52 459.38 1161.01 467.8C1161.41 473.085 1162.19 478.334 1163.33 483.51C1163.55 484.61 1165.43 485.43 1166.61 486.28C1175.1 492.3 1181.13 501.174 1183.61 511.28C1185.77 519.6 1189.09 527.68 1190.61 536.1C1192.97 549.26 1195.61 562.66 1193.28 576.05C1191.04 589.14 1189.41 602.35 1181.23 613.97C1176.23 621.09 1171.95 628.9 1164.76 633.66C1158.48 637.81 1154.85 641.82 1154.87 649.89C1154.87 657.56 1152.87 665.26 1151.43 672.89C1149.81 681.45 1147.59 689.89 1146.04 698.47C1142.99 715.39 1140.31 732.39 1137.26 749.32C1136.53 753.37 1134.6 757.2 1133.81 761.24C1130.86 776.34 1128.67 791.6 1125.17 806.56C1122.7 817.14 1118.69 827.37 1115.17 837.68C1112.86 844.41 1110.1 850.98 1107.61 857.68C1103.81 867.83 1096.52 875.24 1088.74 882.39C1077.84 892.39 1065.42 899.39 1051.45 904.52C1038.75 909.14 1026.86 915.94 1014.39 921.23C1003.31 925.94 991.859 929.79 980.659 934.23C967.549 939.4 954.539 944.79 941.479 950.06C931.479 954.06 921.569 958.16 911.559 962.06C893.359 969.13 875.179 976.26 856.859 983.06C848.499 986.15 839.859 988.48 831.289 991.06C824.169 993.21 816.969 995.12 809.859 997.3C796.549 1001.37 783.449 1006.3 769.929 1009.48C759.369 1011.95 748.339 1012.82 737.459 1013.48C725.379 1014.17 713.229 1014.01 701.129 1013.75C693.99 1013.53 686.871 1012.9 679.809 1011.84C666.669 1009.99 653.569 1007.78 640.459 1005.72C639.969 1005.64 639.459 1005.41 639.009 1005.33C630.899 1004.1 622.789 1001.96 614.659 1001.87C602.149 1001.72 590.599 997.48 578.569 995.43C566.819 993.43 554.859 992.73 543.029 991.17C537.459 990.43 532.029 988.88 526.459 987.93C515.679 986.07 504.849 984.52 494.089 982.58C482.669 980.53 471.319 978.1 459.909 975.97C450.909 974.3 441.909 972.97 432.979 971.24C414.399 967.69 395.829 964.11 377.289 960.34C363.349 957.5 349.489 954.23 335.549 951.34C316.709 947.49 297.789 944.03 278.969 940.08C261.969 936.52 245.119 932.08 228.039 928.84C209.719 925.38 192.039 920 174.529 913.72C164.459 910.09 154.029 907.24 144.389 902.72C135.239 898.41 125.459 894.4 120.199 884.42C118.469 881.16 115.429 878.42 112.569 875.94C100.199 865.19 94.3486 851.29 92.5686 835.39C91.0486 821.57 89.8585 807.71 88.2985 793.89C86.8885 781.41 85.0086 768.98 83.6286 756.49C82.4886 746.13 81.8985 735.71 80.8085 725.34C79.2085 710.04 77.3785 694.76 75.6485 679.47C75.6387 679.304 75.6387 679.137 75.6485 678.97C75.3285 670.8 75.2085 662.62 74.6485 654.47C74.3285 650.04 72.3085 645.61 72.6485 641.28C73.1385 634.06 68.3786 630.73 64.3286 626.19C59.5083 620.885 55.4983 614.897 52.4285 608.42C48.0968 599.296 44.6348 589.784 42.0885 580.01C39.6185 570.01 37.6685 559.72 40.1485 549.11C41.4385 543.61 40.3086 537.53 41.7086 532.11C44.2374 521.991 47.4856 512.066 51.4285 502.41C53.0885 498.41 57.5886 495.63 60.7686 492.27C61.6486 491.34 63.1585 490.36 63.1785 489.38C63.3085 483.65 63.0085 477.91 62.9985 472.17C63.0102 469.547 63.1973 466.928 63.5585 464.33C64.0685 460.58 65.0885 456.88 65.3585 453.12C66.1969 439.822 67.8904 426.591 70.4285 413.51C73.8385 396.66 75.5086 379.46 78.8186 362.58C81.5786 348.49 85.7285 334.68 89.0385 320.7C90.7885 313.32 92.0385 305.83 93.5885 298.4C93.9785 296.4 93.9186 294.15 94.9586 292.62C100.589 284.44 99.8886 274.47 102.959 265.57C105.519 258.05 107.409 250.31 109.859 242.76C112.769 233.81 115.729 224.87 119.099 216.09C121.279 210.41 125.099 205.25 126.669 199.46C130.669 184.94 137.119 171.77 145.139 159.08C153.489 145.85 159.989 131.41 168.779 118.51C177.049 106.38 187.219 95.51 196.619 84.19C201.619 78.19 206.439 72.09 211.769 66.43C214.549 63.43 218.319 61.43 221.479 58.84C223.349 57.28 224.689 55.06 226.609 53.58C236.149 46.25 245.449 38.52 255.509 31.98C264.332 26.1122 273.71 21.1249 283.509 17.09C295.599 12.25 308.249 8.76999 320.809 5.20999C326.679 3.53999 332.809 2.87 338.949 2.09C344.189 1.42 349.489 1.24999 354.759 0.849991L354.869 0ZM762.869 582.67C762.379 576.8 761.529 572.34 761.729 567.94C762.429 552.21 763.609 536.51 764.429 520.78C764.579 517.83 763.599 514.78 763.839 511.87C764.719 500.8 765.659 489.73 767.019 478.71C768.589 466.09 770.559 453.52 772.539 440.96C773.008 438.03 774.539 435.28 775.059 432.36C777.649 418.2 779.809 403.96 782.609 389.84C784.889 378.34 787.388 366.84 790.669 355.58C793.955 344.484 797.807 333.563 802.209 322.86C805.309 315.21 810.209 308.28 813.209 300.62C820.369 282.62 827.379 264.62 838.329 248.4C845.939 237.13 852.649 225.16 861.029 214.51C873.199 199.05 886.399 184.43 903.029 173.36C914.559 165.7 926.919 162.91 940.469 165.05C947.708 166.19 952.999 171.67 953.469 178.23C954.018 186.7 950.759 191.84 943.109 194.23C930.708 198.13 919.719 203.78 911.629 214.69C904.309 224.55 895.449 233.26 888.069 243.08C883.069 249.75 879.379 257.46 875.069 264.69C873.469 267.39 871.719 270 870.129 272.69C866.529 278.81 862.469 284.74 859.549 291.17C854.619 302 850.839 313.37 845.819 324.17C839.319 338.17 833.199 352.22 829.719 367.31C828.719 371.5 827.719 375.67 826.719 379.86C823.639 392.74 820.529 405.61 817.499 418.5C816.709 421.88 816.009 425.29 815.499 428.72C813.879 440.31 812.409 451.93 810.819 463.53C809.689 471.73 808.179 479.89 807.349 488.12C806.599 495.68 806.579 503.31 806.149 510.9C805.009 531.27 803.828 551.64 802.599 573.06C818.888 568.85 834.258 564.95 849.599 560.9C860.929 557.9 872.259 554.95 883.489 551.63C895.989 547.93 908.339 543.74 920.809 539.95C932.809 536.29 944.989 532.95 957.039 529.33C969.559 525.56 981.959 521.42 994.529 517.81C1008.19 513.88 1022 510.47 1035.7 506.66C1044.12 504.32 1052.45 501.66 1060.82 499.14C1063.98 498.19 1067.19 497.38 1070.31 496.31C1075.31 494.6 1080.31 492.78 1085.31 490.92C1096.48 486.74 1107.6 482.45 1118.79 478.33C1122.19 477.08 1122.79 474.44 1122.46 471.53C1121.89 466.46 1120.81 461.44 1120.22 456.37C1119.52 450.31 1119.01 444.21 1118.63 438.12C1118.46 435.38 1119.17 432.57 1118.86 429.86C1117.56 418.5 1116.06 407.17 1114.56 395.86C1113.63 388.8 1112.95 381.68 1111.47 374.73C1109.62 366 1107.04 357.43 1104.82 348.73C1101.63 336.22 1098.6 323.66 1095.26 311.19C1093.64 305.14 1091.41 299.26 1089.61 293.27C1088.42 289.34 1087.9 285.17 1086.39 281.39C1080.75 267.25 1074.28 253.39 1069.23 239.07C1066.46 231.22 1063.58 223.68 1058.7 216.93C1057.59 215.276 1056.68 213.489 1056.02 211.61C1053.24 204.52 1050.85 197.3 1044.93 191.9C1043.33 190.45 1042.77 187.9 1041.7 185.83C1037.64 178.12 1033.92 170.19 1029.37 162.77C1025.15 156.091 1020.54 149.667 1015.56 143.53C1008.56 134.69 1001.56 125.89 994.079 117.53C989.019 111.85 983.259 106.79 977.629 101.66C970.629 95.29 963.839 88.66 956.309 83C946.249 75.45 934.529 70.54 923.709 64.25C911.439 57.12 898.399 53.61 884.869 52.14C865.149 50 845.459 52.99 825.779 54.68C813.729 55.5904 801.807 57.7589 790.209 61.15C775.879 65.5 761.958 70.61 750.039 80.15C743.729 85.21 736.639 89.29 730.279 94.29C724.689 98.7 719.669 103.74 714.429 108.51C708.629 113.65 703.429 119.9 694.969 120.64C687.969 121.25 681.648 119.71 677.169 113.87C672.689 108.03 672.279 101.72 676.379 95.36C679.649 90.3 682.898 85.23 685.929 80.51C677.469 79.17 668.309 78.9 659.979 76.13C647.169 71.87 634.049 72.37 621.069 71.58C607.859 70.78 594.509 71.35 581.269 72.09C563.879 73.09 546.479 74.28 529.199 76.35C520.409 77.35 511.829 80.42 503.199 82.78C495.259 84.95 487.199 86.95 479.549 89.87C470.119 93.47 461.159 98.27 451.749 101.87C444.027 104.855 436.117 107.323 428.069 109.26C420.739 111.03 413.419 106.78 410.489 100.11C409.163 96.8423 408.943 93.2303 409.864 89.8262C410.785 86.4221 412.796 83.4134 415.589 81.26C420.389 77.56 425.289 73.99 430.459 70.13C426.319 66.4 421.889 63.13 418.289 59.03C409.659 49.33 398.379 43.46 386.539 40.22C370.109 35.71 352.889 36.68 336.069 39.28C321.739 41.5 308.219 46.61 295.359 53.28C288.779 56.69 282.709 61.19 275.949 64.16C268.599 67.39 262.719 72.16 257.209 77.75C253.889 81.13 249.879 83.83 246.209 86.91C241.539 90.86 236.209 94.34 232.429 99.01C223.209 110.26 214.689 122.08 205.869 133.67C203.159 137.22 199.919 140.47 197.779 144.34C192.379 154.08 187.479 164.11 182.359 174.01C175.829 186.62 168.359 198.76 164.549 212.67C163.129 217.82 159.729 222.39 157.679 227.41C155.629 232.43 154.139 237.6 152.509 242.74C148.269 256.15 143.669 269.46 139.999 283.02C135.459 299.8 131.899 316.83 127.559 333.66C124.429 345.82 118.559 357.34 119.359 370.37C119.294 370.863 119.17 371.347 118.989 371.81C117.779 377.81 116.479 383.71 115.389 389.7C113.979 397.51 112.689 405.35 111.389 413.2C110.389 419.2 109.529 425.2 108.779 431.2C108.399 434.2 108.729 437.2 108.179 440.14C105.319 455.37 102.769 470.61 105.069 486.62C107.499 486.93 110.299 487.09 113.069 487.68C128.909 491.1 144.699 494.77 160.569 498.05C172.729 500.57 184.969 502.7 197.199 504.88C209.749 507.12 222.309 509.31 234.899 511.32C248.669 513.53 262.489 515.38 276.259 517.65C282.145 518.719 288.216 517.998 293.689 515.58C311.948 507.421 331.619 502.887 351.609 502.23C372.779 501.71 394.179 503.53 415.179 506.46C430.428 508.665 445.4 512.49 459.839 517.87C474.169 523.12 487.419 530.18 500.649 537.25C508.649 541.54 515.079 548.78 522.279 554.62C524.559 556.47 526.839 559.18 529.439 559.62C543.825 562.073 558.269 564.183 572.769 565.95C593.839 568.53 614.948 570.7 636.039 573.1C647.888 574.45 659.699 576.3 671.589 577.24C688.769 578.6 705.989 579.36 723.199 580.36L762.869 582.67ZM1111.74 653.75C1110.28 653.984 1108.83 654.291 1107.4 654.67C1097.91 657.53 1088.4 660.24 1078.98 663.4C1069.24 666.69 1059.74 670.65 1049.98 673.91C1034.98 678.91 1019.81 683.66 1004.68 688.37C995.369 691.27 985.979 693.93 976.609 696.63C974.859 697.13 972.939 697.07 971.249 697.63C958.809 702.15 946.398 706.77 933.989 711.37C927.299 713.86 920.699 716.59 913.929 718.81C903.249 722.32 892.469 725.53 881.709 728.81C869.209 732.61 856.789 736.7 844.159 739.96C832.799 742.89 820.749 743.64 809.819 747.61C798.889 751.58 787.609 751.51 776.549 752.75C762.609 754.35 748.359 753.39 734.249 753.23C726.799 753.14 719.339 752.49 711.909 751.92C701.328 751.1 690.769 750.17 680.209 749.22C670.449 748.34 660.689 747.56 650.959 746.42C633.829 744.42 616.719 742.16 599.599 740.05C589.379 738.79 578.708 739.05 569.039 736.05C557.419 732.45 545.529 731.89 533.819 729.73C532.762 729.696 531.73 730.052 530.919 730.73C526.919 733.73 523.319 737.25 519.039 739.64C515.669 741.51 515.409 743.73 515.589 746.93C516.053 752.871 516.193 758.833 516.009 764.79C515.729 770.19 513.949 775.56 513.939 780.94C513.939 803.06 505.419 822.35 494.139 840.6C490.509 846.47 484.319 850.85 481.139 856.88C475.989 866.52 467.399 871.58 458.699 876.64C451.892 880.461 444.882 883.906 437.699 886.96C422.379 893.74 406.429 898.39 389.569 898.31C373.659 898.23 357.699 898.01 341.879 896.53C331.945 895.66 322.192 893.342 312.929 889.65C299.499 884.14 286.799 876.81 273.849 870.16C272.123 869.167 270.539 867.946 269.139 866.53C263.519 861.34 258.289 855.66 252.319 850.91C240.319 841.4 232.269 828.91 224.669 816.05C216.687 802.464 211.011 787.65 207.869 772.21C204.549 756.39 205.869 740.43 206.939 724.62C207.479 716.55 211.039 708.62 213.529 700.76C216.319 691.94 219.439 683.22 222.079 675.44L114.379 650.76C114.619 653.18 114.829 655.29 115.049 657.39C116.479 671.08 117.959 684.75 119.339 698.39C119.839 703.32 119.989 708.28 120.539 713.2C122.539 730.67 124.629 748.11 126.539 765.57C127.629 775.57 128.479 785.57 129.379 795.52C129.989 802.29 130.269 809.11 131.089 815.86C132.769 829.77 133.699 844.03 145.979 853.86C147.239 854.86 147.869 856.6 148.979 857.79C152.289 861.25 155.179 865.55 159.199 867.79C166.054 871.435 173.227 874.447 180.629 876.79C193.799 881.2 207.109 885.16 220.419 889.1C228.479 891.48 236.589 893.81 244.799 895.57C261.339 899.12 277.959 902.3 294.559 905.57C304.629 907.57 314.749 909.26 324.799 911.34C337.439 913.96 349.999 916.96 362.649 919.58C379.315 923.027 396.012 926.36 412.739 929.58C419.579 930.89 426.989 930.58 433.319 933.01C447.479 938.58 462.579 938.69 477.089 942.01C490.639 945.08 504.529 946.61 518.239 948.94C528.539 950.68 538.779 952.77 549.079 954.43C559.219 956.05 569.439 957.17 579.579 958.8C591.179 960.67 602.708 962.98 614.299 964.87C624.109 966.47 633.958 967.76 643.799 969.15C662.679 971.83 681.499 975.25 700.459 976.91C714.459 978.13 728.659 977.61 742.699 976.79C751.828 976.233 760.863 974.616 769.619 971.97C781.929 968.26 793.559 962.09 805.979 958.97C826.659 953.76 846.389 945.97 866.359 938.88C885.359 932.1 904.049 924.33 922.859 916.96C936.119 911.76 949.319 906.4 962.619 901.29C972.369 897.55 982.389 894.49 992.009 890.46C1004.18 885.35 1015.73 878.53 1028.18 874.38C1038.65 870.764 1048.5 865.552 1057.38 858.93C1063.18 854.74 1068.26 849.72 1069.49 842.07C1069.7 840.927 1070.08 839.821 1070.62 838.79C1077.18 825.035 1082.26 810.62 1085.77 795.79C1086.77 791.61 1087.17 787.28 1088.06 783.06C1090.48 771.44 1093.16 759.87 1095.46 748.22C1097.19 739.45 1098.39 730.56 1100.02 721.77C1102.02 711.03 1104.18 700.33 1106.39 689.63C1107.28 685.29 1108.85 681.06 1109.45 676.69C1110.5 669.25 1111 661.75 1111.77 653.75H1111.74ZM556.429 695.64C563.559 697.29 569.759 699.17 576.109 700.12C588.569 701.97 601.109 703.26 613.619 704.85C630.709 707.03 647.759 709.52 664.869 711.39C676.739 712.7 688.689 713.28 700.609 714.03C709.208 714.58 717.829 714.83 726.429 715.3C736.169 715.83 745.899 716.99 755.629 716.88C764.533 716.639 773.411 715.817 782.209 714.42C795.299 712.54 808.319 710.21 821.339 707.89C824.249 707.37 826.989 705.89 829.879 705.2C839.469 702.75 849.229 700.89 858.669 697.97C876.849 692.34 894.869 686.22 912.899 680.13C919.899 677.76 926.708 674.57 933.789 672.34C944.669 668.92 955.789 666.34 966.659 662.79C982.659 657.58 998.339 650.88 1014.66 646.68C1029.98 642.68 1044.19 636.02 1059.17 631.39C1068.01 628.66 1076.93 626.2 1085.75 623.39C1093.47 620.98 1101.15 618.45 1108.75 615.72C1114.19 613.72 1119.55 611.53 1124.83 609.15C1131.25 606.25 1137.57 603.15 1143.83 599.95C1145.02 599.333 1145.95 598.297 1146.43 597.04C1148.88 588.47 1152.82 579.88 1153.01 571.22C1153.27 560.12 1151.01 548.85 1148.81 537.85C1147.39 530.64 1144.65 523.61 1141.81 516.78C1139.36 510.88 1137.59 510.38 1131.75 512.66C1126.84 514.58 1122.21 517.26 1117.24 518.99C1105.24 523.19 1092.84 526.37 1081.09 531.16C1063.51 538.32 1045.09 542.29 1026.92 547.16C1013.21 550.83 999.619 554.93 986.019 559C977.019 561.69 968.109 564.69 959.149 567.51C953.319 569.35 947.499 571.24 941.619 572.91C929.229 576.43 916.759 579.71 904.389 583.31C893.899 586.31 883.579 590.02 873.049 592.89C853.909 598.13 834.679 603.03 815.459 607.97C803.179 611.12 791.319 616.74 778.069 614.63C777.069 614.46 775.889 615.29 774.769 615.53C770.599 616.39 766.398 618 762.239 617.9C743.499 617.51 724.759 616.51 706.009 615.84C698.899 615.6 691.689 616.58 684.659 615.77C659.489 612.88 634.389 609.43 609.259 606.26C597.259 604.74 585.259 603.26 573.259 601.99C567.939 601.41 562.569 601.29 556.369 600.91C568.149 633.01 570.769 664.15 556.429 695.64ZM288.309 658.64C277.219 663.42 272.859 672.83 266.729 680.53C264.169 683.74 261.449 687 259.729 690.68C257.419 695.58 255.959 700.89 254.199 706.05C252.109 712.15 249.679 718.18 248.199 724.43C247.199 728.51 248.199 733.04 247.339 737.17C244.799 749.4 246.179 761.32 250.099 772.86C254.889 786.95 259.709 801.14 269.799 812.69C271.739 814.91 272.799 817.99 274.939 819.94C281.779 826.17 289.099 831.88 295.939 838.11C306.709 847.94 320.179 852.49 333.469 856.89C348.074 861.896 363.574 863.754 378.949 862.34C390.789 861.14 402.559 859.1 414.329 857.22C416.329 856.89 418.269 855.55 420.179 854.56C425.469 851.81 430.859 849.23 435.949 846.15C439.474 844.102 442.698 841.574 445.529 838.64C449.47 834.347 453.03 829.72 456.169 824.81C460.939 817.28 466.079 809.81 469.429 801.59C474.959 788.11 474.519 773.43 475.759 759.13C476.399 751.67 473.359 744.88 472.359 737.77C470.359 723.4 464.229 710.77 456.709 698.98C450.569 689.37 444.419 679.2 433.909 673.16C432.789 672.51 432.039 671.26 430.969 670.47C422.969 664.54 415.569 657.68 405.709 654.91C404.842 654.736 403.948 654.747 403.086 654.944C402.224 655.14 401.414 655.517 400.709 656.05C395.639 660.66 396.509 670.52 402.109 675.51C410.109 682.58 412.739 692.37 415.449 702.05C415.979 703.96 415.159 706.29 414.759 708.39C413.409 715.46 408.019 719.3 403.179 723.97C396.883 730.242 388.773 734.374 379.999 735.78C355.189 739.36 331.939 737.58 312.679 717.23C300.429 704.29 293.819 689.48 288.949 673.23C288.279 670.96 288.949 668.3 288.869 665.83C288.759 663.64 288.519 661.51 288.309 658.64ZM256.859 632.21C257.859 631.72 258.539 631.35 259.239 631.02C267.289 627.21 275.319 623.38 283.379 619.6C287.079 617.86 291.609 616.99 294.299 614.28C296.989 611.57 298.549 607.13 299.579 603.19C302.899 590.39 312.399 581.95 320.979 573.19C328.499 565.46 338.669 561.64 349.119 559.01C361.559 555.89 372.609 565.34 370.179 577.16C368.749 584.08 363.229 587.94 357.609 590.53C350.609 593.76 346.429 599.15 342.609 605.3C335.249 617.3 333.229 631.03 329.609 644.24C328.609 648.02 327.609 652.38 328.529 656.02C330.839 665.45 330.439 675.48 335.649 684.37C337.789 688.02 339.379 691.5 343.299 693.51C344.749 694.25 345.779 695.78 347.189 696.61C350.784 698.804 354.788 700.242 358.957 700.837C363.127 701.432 367.373 701.171 371.439 700.07C370.549 698.94 370.079 698.3 369.569 697.7C356.789 682.54 352.139 665.13 355.479 645.7C356.345 640.954 357.668 636.302 359.429 631.81C363.639 620.81 369.879 611.29 381.639 607.07C387.263 605.113 392.984 603.445 398.779 602.07C411.889 598.82 421.319 605.7 422.609 619.13C422.701 619.734 422.918 620.312 423.245 620.829C423.572 621.345 424.002 621.788 424.509 622.13C427.659 623.96 431.069 625.34 434.219 627.13C439.659 630.29 445.299 633.23 450.289 637.01C456.898 642.01 462.649 648.19 469.289 653.08C480.499 661.26 486.989 673.08 494.409 684.18C497.479 688.77 499.639 693.96 503.049 700.49C510.049 690.01 517.169 681.37 522.099 671.63C527.689 660.63 526.399 648 524.759 636.29C523.499 627.36 519.449 618.65 515.669 610.29C506.859 590.73 492.109 576.29 474.139 565.09C448.139 548.93 418.709 543.32 389.049 539.16C374.56 536.968 359.801 537.306 345.429 540.16C339.129 541.47 332.659 542.09 326.479 543.79C317.689 546.21 308.999 549.07 300.479 552.23C285.089 557.86 272.429 566.31 264.429 581.95C256.209 598.1 254.619 614.43 256.859 632.21ZM216.749 635.7C215.619 619.7 213.109 604.81 217.569 589.84C221.832 575.581 228.314 562.082 236.779 549.84C230.069 548.25 223.389 546.44 216.619 545.13C206.229 543.13 195.769 541.53 185.359 539.64C175.559 537.85 165.799 535.92 156.029 534.03C142.539 531.42 129.029 528.76 115.569 526.18C107.259 524.59 98.9386 523.05 90.5686 521.69C89.4586 521.51 87.3385 522.29 87.0485 523.1C84.9485 529 82.5285 534.92 81.5385 541.05C80.5385 547.05 81.1085 553.21 81.1185 559.31C81.1185 563.23 80.8186 567.31 81.6386 571.04C82.7486 576.17 85.1685 581.04 86.3585 586.11C89.8385 600.97 99.9185 608.61 113.969 612.11C124.889 614.83 135.815 617.52 146.749 620.18C164.109 624.43 181.439 628.77 198.839 632.84C204.289 634.13 209.899 634.64 216.749 635.7Z" fill="#222222"/>
<path d="M449.069 363.14C454.409 369.91 459.489 376.24 464.439 382.66C467.379 386.46 470.309 390.3 472.879 394.36C476.379 399.88 476.499 405.67 473.009 411.3C468.729 418.22 462.169 420.92 454.349 420.62C442.699 420.17 436.879 411.62 430.769 403.4C426.978 398.414 422.905 393.65 418.569 389.13C417.889 388.39 415.379 388.49 414.289 389.13C408.289 392.72 402.359 396.36 396.729 400.45C389.139 405.96 381.089 407.76 372.269 404.45C360.709 400.11 356.929 386.88 364.999 377.56C370.649 371.04 377.309 365.46 385.829 362.56C389.019 361.48 391.949 359.62 395.529 357.85C393.709 355.53 392.529 353.97 391.289 352.45C386.059 346.03 380.659 339.74 375.629 333.17C371.629 327.97 371.279 322.05 374.149 316.17C377.509 309.34 383.299 305.32 390.829 305.33C400.429 305.33 410.059 306.03 419.609 307.01C433.479 308.44 447.309 310.28 461.129 312.16C475.129 314.08 483.559 325.44 479.429 337.31C478.116 340.848 475.861 343.96 472.909 346.31C465.349 352.25 457.279 357.44 449.069 363.14Z" fill="#222222"/>
<path d="M608.669 370.17C595.279 370.7 585.729 362.26 580.409 348.77C576.639 339.25 579.249 329.72 583.939 321.12C594.569 301.62 623.699 301.04 639.199 316.73C651.259 328.93 650.069 350.18 636.869 360.93C628.369 367.86 620.279 370.76 608.669 370.17Z" fill="#222222"/>
<path d="M282.629 332.03C258.419 332.53 251.079 317.88 249.629 300.2C248.419 285.14 266.099 270.9 282.249 272C302.089 273.35 310.929 285 311.789 302.51C312.529 317.14 296.499 333.51 282.629 332.03Z" fill="#222222"/>
<path d="M791.358 791.01C791.358 801.27 791.468 809.17 791.358 817.01C791.148 830.47 790.798 843.93 790.498 857.38C790.498 858.2 790.308 859.03 790.328 859.85C790.698 871.56 791.378 883.27 791.388 894.98C791.388 907.71 791.218 920.47 790.298 933.16C789.648 942.16 785.588 949.93 777.138 954.16C769.958 957.72 762.558 957.27 755.978 952.35C750.408 948.18 747.978 942.83 749.088 935.45C750.088 928.77 749.488 921.87 749.858 915.08C750.178 909.35 751.128 903.65 751.348 897.93C751.598 891.35 751.348 884.76 751.348 878.17C751.348 875.53 750.978 872.57 751.988 870.3C755.178 863.15 753.708 856.03 752.988 848.79C752.708 845.89 753.518 842.91 753.628 839.95C753.918 832.69 753.938 825.42 754.348 818.16C754.848 809.23 755.428 800.3 756.348 791.41C756.764 786.787 757.772 782.236 759.348 777.87C761.438 772.37 765.948 769.19 771.968 768.71C777.778 768.25 782.868 770.41 785.488 775.46C788.368 780.92 789.918 787.02 791.358 791.01Z" fill="#222222"/>
<path d="M347.519 750.6C368.099 750 383.399 766.68 380.389 786.52C379.389 793.19 376.209 798.69 370.199 801.69C365.519 804.02 365.199 807.51 365.119 811.87C365.117 817.496 364.625 823.11 363.649 828.65C362.069 836.5 355.409 841.11 346.649 841.33C338.649 841.53 331.039 836.88 329.439 829.56C328.296 823.548 327.856 817.424 328.129 811.31C328.209 806.61 328.129 802.47 324.129 799.2C312.309 789.53 312.979 777.2 317.689 764.64C321.149 755.37 329.949 753.13 338.529 751.29C341.429 750.67 344.529 750.81 347.519 750.6Z" fill="#222222"/>
<line x1="940.883" y1="349.107" x2="1021.11" y2="340.117" stroke="#222222" stroke-width="36" stroke-linecap="round"/>
<path d="M98.9609 317.607L27.8451 302" stroke="#222222" stroke-width="36" stroke-linecap="round"/>
<path d="M938.821 418.892L1015.5 429.5" stroke="#222222" stroke-width="36" stroke-linecap="round"/>
<path d="M91.4998 384.5L18.9983 388.537" stroke="#222222" stroke-width="36" stroke-linecap="round"/>
</svg>
