<?xml version="1.0" standalone="no"?>
<!DOCTYPE svg PUBLIC "-//W3C//DTD SVG 20010904//EN"
 "http://www.w3.org/TR/2001/REC-SVG-20010904/DTD/svg10.dtd">
<svg version="1.0" xmlns="http://www.w3.org/2000/svg"
 width="105.000000pt" height="105.000000pt" viewBox="0 0 105.000000 105.000000"
 preserveAspectRatio="xMidYMid meet">
<metadata>
Created by potrace 1.14, written by Peter Selinger 2001-2017
</metadata>
<g transform="translate(0.000000,105.000000) scale(0.100000,-0.100000)"
fill="#000000" stroke="none">
<path d="M750 996 c-48 -20 -76 -64 -107 -168 -13 -46 -15 -48 -52 -48 -21 0
-51 -3 -67 -6 -25 -5 -32 -1 -48 28 -38 67 -97 138 -128 154 -71 37 -143 23
-172 -34 -38 -74 -58 -240 -31 -262 20 -16 19 -26 -4 -49 -10 -10 -26 -50 -36
-90 l-17 -71 -38 0 c-65 0 -62 -28 3 -33 15 -1 27 -5 27 -9 0 -5 0 -12 0 -18
0 -5 -10 -10 -22 -10 -31 0 -52 -15 -43 -30 5 -8 19 -10 41 -5 25 4 34 2 34
-8 0 -26 32 -77 78 -127 102 -109 236 -157 411 -148 101 6 113 9 226 65 119
58 207 157 230 258 19 85 6 245 -21 245 -8 0 -14 6 -14 13 -3 105 -13 146 -63
247 -40 83 -127 132 -187 106z"/>
</g>
</svg>
