<?xml version="1.0" encoding="utf-8"?>
<!-- Generator: Adobe Illustrator 25.4.1, SVG Export Plug-In . SVG Version: 6.00 Build 0)  -->
<svg version="1.1" id="Layer_1" xmlns="http://www.w3.org/2000/svg" xmlns:xlink="http://www.w3.org/1999/xlink" x="0px" y="0px"
	 viewBox="0 0 1080 1080" style="enable-background:new 0 0 1080 1080;" xml:space="preserve">
<style type="text/css">
	.st0{fill:transparent;}
</style>
<g>
	<path class="st0" d="M0,0c360,0,720,0,1080,0c0,360,0,720,0,1080c-360,0-720,0-1080,0C0,720,0,360,0,0z M450.1,523.4
		c-1.1,2.4-1.2,2.3-3,4c-1.8,1.8-3.7,3.7-5.1,5.9c-1.8,2.9-4.4,4.9-7.1,6.6c-3.4,2.1-6.6,4.3-9.5,7.1c-3.5,3.4-6.5,7.4-10.9,9.9
		c-1.2,0.7-2.5,1.5-3.4,2.5c-1.1,1.1-1.9,2.5-2.9,3.8c-0.8,1.2-1.5,2.4-2.5,3.4c-1.8,1.9-3.9,3.4-5.8,5.1c-3,2.6-5.3,6.1-7.9,9.1
		c-1.5,1.7-3.2,3.3-4.5,5.1c-3.9,5.5-8.7,10.1-14.1,14c-1.5,1.1-3.3,1.7-3.9,3.8c-0.2,0.8-1.3,1.8-2.1,2c-4.3,1-5.4,6.1-9.3,7.5
		c-2.1,4.6-5.1,8.5-8.8,11.9c-0.4,0.4-0.4,1.2-0.7,1.7c-2.8,3.8-5.1,8.4-8.6,11.3c-3.5,2.8-6.1,6.8-10.3,8.7
		c-5.1,6.3-12.1,10.4-18,15.8c-3.1,2.8-6.2,5.3-8.8,8.7c-2.4,3.2-4,6-3.8,10c0.1,2.8,1,4.9,2.9,6.9c3.5,3.7,6.9,7.5,10.3,11.2
		c0.5,0.6,0.7,1.4,1.1,2c1.6,2.6,3.3,5.1,6.2,6.4c1,0.5,2.1,1.4,2.5,2.4c1.6,4.6,6,7,8.3,11.1c0.9,1.5,2.4,2.8,3.8,3.9
		c1.6,1.3,1,3.2,2,4.7c3.5,5.5,7.4,10.7,11.4,15.8c0.8,1,1.4,1.9,1.8,3.3c0.8,2.8,2.3,5.4,4.2,7.8c3,3.8,8,5.6,10.3,10.1
		c3.7,2,7.3,4.4,11.8,4c2.9-0.3,8.7-2.6,11-4.9c3.5-3.7,6.8-7.6,10.3-11.2c2.4-2.4,5.6-4.2,7.5-6.9c2-2.7,4.3-4.9,6.5-7.3
		c1.4-1.5,2.8-2.8,4.2-4.3c1.4-1.4,2.8-2.8,4.2-4.2c1.4-1.4,2.8-2.9,4.2-4.2c1.3-1.3,2.2-2.8,3.8-3.9c1.6-1.1,2.9-2.8,4.3-4.2
		c0.8-0.8,2.2-1.6,2.4-2.5c0.5-2.6,2.6-3.3,4.3-4.1c2-0.9,3.7-2.3,4.7-4.1c1.9-3.4,4.9-5.8,7.7-8.2c1.6-1.3,3.3-2.4,4.4-4.2
		c0.2-0.4,0.5-0.8,0.8-0.9c4.7-2,7.7-6.2,11.7-9.2c1.1-0.8,2.2-1.7,2.7-3.4c0.4-1.3,1.9-2.3,3.1-3.2c5.4-3.9,11.1-7.4,15.1-13
		c0.9-1.3,2.3-2.6,4-3.5c1.9-1,3.1-3.2,4.7-4.9c0.6-0.7,1.2-1.5,1.9-1.9c3.5-1.8,6.4-4.4,8.8-7.5c0.7-0.9,1.4-1.4,2.2-1.9
		c1.3-1,2.7-1.7,3.8-2.9c4.2-4.4,8.7-8.4,12.5-13.3c3.6-4.6,8.5-7.9,13.2-11.4c2.1-1.6,2.7-1.5,4.5,0.3c1.1,1,1.4,2.5,3,3.3
		c1.4,0.7,2.1,2.7,3.3,4c2.4,2.5,4.9,5,7.4,7.4c1.9,1.9,3.8,3.8,4.7,6.6c0.7,2.2,2.4,4.2,4.6,5.3c0.7,0.4,1.6,0.8,1.9,1.4
		c1.7,3.8,5.6,5.7,7.6,9.3c1.2,2.2,3.3,4.1,5.8,5c2.1,0.8,3.4,2.4,4.7,4c0.7,0.8,1.2,1.9,2,2.7c1.4,1.3,3.4,2.1,4.4,3.6
		c1.2,1.8,2.5,3.3,4,4.8c5.2,5.2,10.4,10.3,15.5,15.6c2,2.1,4.1,4.2,5.6,6.7c1.1,1.9,2.4,3.6,4,4.8c2.7,1.8,4.6,4.2,6.7,6.6
		c2.4,2.8,4.6,6,8.3,7.5c1.7,3.4,4.8,5.4,7.6,7.8c5.7,4.8,10.9,10,16.2,15.1c1.1,1.1,1.7,3.1,2.9,3.7c1.9,0.8,3.4,2.2,4.4,3.7
		c1.2,1.8,3.3,2.4,4.3,4.1c0.3,0.5,0.6,1.1,1,1.6c2,2.8,3.6,5.9,7,7.6c2.1,1,4,2.8,5.6,4.5c4.6,5.2,8.3,7.4,14.3,8.9
		c1.9,0.5,4.2,0.1,5.5,1c2.5,1.8,4.2-0.1,6.3-0.1c2.7-0.1,4.6-1.5,6.1-3.4c2.4-3,5.5-5.3,8.1-8c1.1-1.1,3.3-1.7,3.6-2.9
		c0.9-3.3,3.6-4.6,5.7-6.6c0.6-0.6,1.4-1.1,1.7-1.8c2.7-6.3,7.7-10.9,12.1-16c0.7-0.8,1.2-1.9,1.9-2.7c3.5-3.6,5.6-8.5,10-11.3
		c0.5-0.3,0.6-1.1,1-1.6c1-1.4,2.5-2.7,2.8-4.3c0.5-2.4,3-2.1,4.1-3.7c1.1-1.7,2.1-3.5,3.2-5.1c2.1-3-0.6-6.6,1.9-9.3
		c0.2-0.2,0.1-0.8-0.1-0.9c-1.8-1.5-0.3-4-1.9-5.8c-2.4-2.9-3.5-6.6-6.2-9.4c-1.4-1.5-2.7-3.2-3.8-4.9c-3.3-4.9-6.7-9.8-11.1-13.9
		c-1.1-1-2.4-2-2.9-3.3c-1-2.8-3.1-4.4-4.9-6.5c-3-3.5-7.4-5.7-9.9-9.8c-0.5-0.9-1.8-1.2-2.7-1.9c-2.9-2.4-6.4-4.1-7.7-8.2
		c-0.5-1.5-2.2-3-3.7-3.7c-1.9-0.9-2.9-2.4-3.7-4.1c-0.4-0.8-0.8-1.7-1.4-2.4c-2.7-3-6.1-5.5-8.1-9.1c-0.3-0.6-0.8-1.2-1.4-1.4
		c-2.8-0.8-4-3.3-5.9-5c-1.9-1.7-4-3.3-5-5.9c-0.4-1.1-1.2-2.2-2.1-3.1s-2-1.6-3.1-2.1c-2.6-1.2-4.2-3.2-5.6-5.6
		c-1.1-1.9-1.9-4.1-4.5-4.6c-0.5-0.1-0.9-0.9-1.3-1.4c-1.3-1.6-2.4-3.7-4.1-4.7c-2.3-1.4-3.8-3.6-5.9-5c-2.1-1.5-3.6-3.4-5.1-5.3
		c-1-1.2-2-2.2-3.2-3.1c-2-1.3-3.3-3.1-4.6-5c-0.3-0.5-0.5-1.4-1-1.5c-1.7-0.7-2.7-1.8-3.6-3.5c-0.7-1.3-2.5-2-3.4-3.5
		c-1.9-3.1-5.6-4.1-8.1-6.6c-1.9-1.8-4.5-2.5-5.8-5.3c-0.7-1.6-2.9-2.5-4.3-3.8c-1.1-1-2.2-1.9-3.2-3c-0.9-1-0.9-2.1,0.1-3
		c0.7-0.7,1.3-1.8,2.1-2.1c3.2-0.9,4-4.2,6.4-6c2.6-1.9,4.8-4.5,7.2-6.8c0.6-0.6,1.3-1.1,1.6-1.8c1.2-2.4,3.3-3.8,5.3-5.4
		c3.3-2.7,7.5-4.6,9.3-8.9c0.4-0.9,1.7-1.4,2.6-2c4.8-2.9,8.7-7,12.3-11.2c2-2.3,3.7-4.6,6.4-6.3c2.7-1.7,5.5-3.8,7.3-6.4
		c2.6-3.7,6-6.5,9-9.7c4-4.4,8.8-7.9,12.1-13c0.7-1,1.9-1.6,3-2.4c1.9-1.5,4-2.7,5.6-4.4c1.6-1.7,3.7-2.8,5.1-4.8
		c1.3-1.9,4.1-2.8,5.4-4.7c2.2-3.4,5.3-5.8,7.9-8.7c3.4-3.8,8.3-6.3,10.9-10.9c2.2-3.9,5.8-6.6,8.9-9.8c1.1-1.2,2.7-2.2,3.4-3.6
		c0.9-1.8,2.6-2.7,4-3.7c3.8-2.9,8.7-8.3,10.8-12.5c0.9-1.8,2.1-3.5,2.8-5.3c1.1-2.9,2.3-5.8,2.2-9.1c-0.1-2.3-0.6-4.4-1.1-6.6
		c-0.6-2.5-1-4.9-3.2-6.7c-0.8-0.6-1.1-1.9-1.8-2.7c-3-3.9-6.1-7.7-8.9-11.8c-1.8-2.6-4.4-4.6-6.6-6.8c-2.1-2-4.1-4.5-6.6-5.8
		c-2.8-1.4-4.5-3.9-7.3-5.3c-4.6-2.4-8.4-5.9-12-9.7c-2.2-2.4-4.8-4.4-7.3-6.4c-2.6-2.1-5.2-4.2-8-6c-3.5-2.2-7.1-4-11.4-3.7
		c-5.1,0.3-9.6,2.6-14,4.9c-1.9,1-3.5,2.3-4.7,4.4c-1,1.7-2.6,3.1-4.7,4.1c-1.7,0.8-1.9,3.3-4.1,4.3c-1.8,0.8-2.8,3.5-4.4,5
		c-2.8,2.7-5.9,5.2-8.7,7.8c-2.8,2.6-5.5,5.2-9,7.2c-3.5,2-6.2,5.2-9.2,8c-2.2,2-4.2,4.3-6.4,6.3c-2.4,2.3-4.4,5.2-8,6.1
		c-1,0.3-1.7,1.9-2.5,2.9c-1.9,2.4-3.7,4.9-5.7,7.1c-1,1.2-2.8,1.7-3.7,2.9c-2.5,3.2-5.8,5.5-8.5,8.4c-2.2,2.4-5.2,4.1-6.4,7.3
		c-4.2,2.9-8.3,5.9-11.2,10.2c-0.3,0.4-0.6,0.8-1.1,1c-3,1.4-5.6,3.4-8.3,5.4c-2.7,2-5.7,3.6-7.1,7c-0.1,0.3-0.8,0.5-1.2,0.7
		c-3,1.3-5.1,3.6-7.1,6.2c-1.2,1.6-2.3,3.9-4.3,4.6c-1.7,0.6-2.6,1.9-3.8,2.9c-3,2.9-6,5.5-10.4,6.5c-1.6,0.3-2.8,2-4.2,3.1
		c-1.4,1.1-2.8,2.1-4.2,3.2c-1.3,1-2.6,1.8-3.8,2.8c-1.1,1-2.1,2.2-3.2,3.1c-2.4,2-3.2,1.8-6.2,0c-1.6-0.9-2.9-2-4.1-3.3
		c-2-2-3.8-4.2-6.1-5.9c-1.1-0.8-2.1-1.3-2.8-2.8c-0.8-1.7-2.5-3.4-4.2-4.2c-3-1.4-4.9-3.9-6.8-6.2c-1.8-2.2-3.5-4.4-6-5.9
		c-1.8-1.1-3.1-2.9-4.8-4.1c-1.9-1.3-2.9-3.6-4.5-4.7c-1.7-1.3-3.1-2.8-4.7-4.1c-0.7-0.6-1.1-1.5-1.7-2.3c-0.7-0.9-1.3-2.2-2.2-2.5
		c-3-1.1-4.3-4.2-7.2-5.5c-2.1-1-3.6-3.3-5.7-4.4c-2.4-1.3-3-4-5.2-5.3c-0.1-0.1-0.2-0.2-0.4-0.3c-4.9-3.9-9.8-7.8-14.7-11.7
		c-0.9-0.7-1.9-1.5-2.4-2.5c-1.9-3.3-4.4-5.8-7.7-7.8c-1-0.6-1.8-1.8-2.5-2.9c-1.9-3.1-5.3-4.8-6.8-8.2c-0.2-0.4-0.6-0.8-1-1.1
		c-6.6-4.6-12.3-10.2-17.9-15.9c-0.8-0.8-1.8-1.3-2.7-1.9c-4.8-3.5-8.7-8.1-14.1-10.8c-0.1-0.1-0.3-0.2-0.3-0.4
		c-1.4-3.3-4.7-4.6-7-7c-2.7-2.7-5.4-5.4-8.1-8.1c-2.4-2.4-4.7-5.1-8.6-4.6c-1.9-1.7-3.7-1-5.8-0.3c-2,0.7-4.1,0.9-6.2,2.1
		c-2.3,1.3-3.5,3.8-5.8,5c-1.1,0.6-2.2,1.3-3.1,2.1c-1.3,1.1-2.4,2.3-3.6,3.5c-1.1,1.1-2.1,2.1-3.2,3.2c-1.2,1.2-2.9,2.2-3.4,3.6
		c-0.6,1.9-2.5,1.8-3.3,3.1c-2.3,3.9-5.8,6.9-8.1,10.7c-2.9,4.8-6.4,9.1-10,13.3c-1.3,1.5-2.3,3-3.1,4.7c-1.5,3.4-2.9,6.8-4.6,10.1
		c-1.9,3.5-2.5,4.6-2.3,7.5c0.1,1.4,0.8,2.7,0.9,4.1c0.2,1.5-0.4,3.2,0.1,4.5c1.1,2.7,1.7,5.7,4.2,7.8c4.8,4.1,8.4,9.4,13.4,13.3
		c1.9,1.5,3.5,3.6,5.7,4.5c3.4,1.3,5.6,3.7,7.9,6.2c7,7.2,13.9,14.5,20.9,21.9c1.2,1.3,2.1,2.8,3.2,4.2c1.4,1.7,2.6,3.9,4.4,5
		c2.1,1.4,3.6,3,4.8,5.1c0.9,1.5,1.8,3.3,3.2,4.1c2.9,1.7,5,4.2,7.3,6.5c1.5,1.4,3,2.7,5.1,3.5c1.8,0.7,3.2,1.8,4.5,3.8
		c2.6,4.1,6,7.6,9,11.3c3.2,1,4.5,4.1,6.1,6.4c2.2,3.2,5.2,5.4,7.6,8.3c4.7,1.8,7.1,6.5,11.1,9.1c0.4,2.4,2.7,2.9,4.2,4.2
		c1.8,1.6,3.8,3,5.6,4.6c3.4,3,6.2,6.7,10.2,9.2C445.8,519.5,447.9,521.6,450.1,523.4z M685.2,927.8c-0.2,0-0.4,0.1-0.6,0.1
		c0.4,1.2,0.7,2.4,1.2,3.5c0.9,2,2,3.8,2.8,5.9c0.5,1.4,1.6,2.7,1.4,4.5c-0.4,3.4,1.6,6,3.6,8.5c1.4,1.7,3.1,3.3,4.2,5.3
		c1.4,2.4,3.2,4.2,5.6,5.6c2.6,1.4,5.1,3,7.6,4.6c2.3,1.4,5.1,1.5,7.6,2.2c3.5,1,7.4-0.4,11,1.2c0.3,0.1,0.8,0.1,0.9-0.1
		c0.8-1.2,2.1-0.6,3.1-0.9c1.5-0.4,2.8,0.8,4.4,0.5c1.6-0.3,3.2-0.5,4.8-0.4c5.1,0.3,9.2-2.7,13.7-4.3c2.1-0.8,3.9-2.8,5.6-4.5
		s3.1-3.7,4.6-5.6c0.8-1,1.4-2.1,2.1-3.1c0.9-1.3,2-2.5,2.8-3.9c0.9-1.6,1.8-3.3,2.8-4.9c1.5-2.5,2.8-5.2,3.4-8.1
		c0.7-3.3-0.6-6.8,1.1-10.1c0.2-0.4-0.3-1.1-0.5-1.7c-0.2-0.6-0.6-1.5-0.4-1.8c1.3-1.6-0.1-3.2,0.1-4.7c0.2-2.1-1.2-3.6-1.2-5.6
		c0.1-4.5-1.5-8.4-5-11.4c-0.8-0.7-1.4-1.7-2-2.7c-2.9-4.8-7.1-8.5-11.1-12.3c-1.4-1.4-3.3-2.5-5.2-3.2c-3.1-1.1-6.3-1.7-9.2-3.2
		c-3.4-1.8-7-0.8-10.5-1.1c-0.6,0-1.4,0-1.8-0.4c-1.3-1.2-3.2-1-4.2-0.5c-1.9,0.9-3.7,0.7-5.6,0.9c-1.1,0.1-2.1,0.6-3.1,1
		c-4,1.7-8,3.2-11.7,5.7c-1.5,1-3.2,1.9-4,3.4c-1.2,2.2-3.1,3.7-4.7,5.5c-0.8,1-1.4,2.1-2.1,3.1c-0.9,1.3-1.9,2.6-2.8,3.8
		s-2.1,2.4-2.8,3.8c-1.2,2.6-2.5,5.3-3.2,8.2c-0.7,2.7-1.5,5.4-1.9,8.2C685.6,921.7,685.5,924.8,685.2,927.8z M923.4,683.8
		c0,0.1,0,0.2,0,0.2c-1.5,0-3,0.1-4.5,0c-3.2-0.1-6.2,0.5-9.3,1.7c-2,0.8-4,1.5-5.8,2.9c-1.8,1.4-4.4,1.8-6,3.3
		c-3.6,3.3-7.3,6.6-10,10.8c-1.1,1.7-2.2,3.4-3.2,5.2c-2.9,5.5-5.9,11.1-5.6,17.6c0.1,1.2-0.3,2.5-0.5,3.7c-0.5,2.8-0.7,6,0.2,8.6
		c1.5,4.7,3.6,9.1,6.1,13.5c1.8,3.2,3.8,6.2,6.2,8.9c2.4,2.8,5.1,5.2,7.7,7.8c2.2,2.2,4.8,3.5,7.9,4c2,0.3,3.9,0.9,5.8,1.7
		c3.4,1.4,6.8,2.5,10.5,2.2c1.6-0.1,3.1,0.2,4.7-0.7c1.2-0.6,3.2,0.5,4.9,0.7c0.8,0.1,1.6,0,2.4-0.3c2.9-1.1,5.7-2.4,8.5-3.5
		c2.1-0.8,3.9-1.9,5.6-3.5c1.7-1.7,3.8-3,5.5-4.7c2.5-2.3,4.9-4.8,6.8-7.6c1.1-1.7,2.3-3.3,2.9-5.3c0.6-1.9,2.2-3.4,3.3-5.1
		c0.3-0.5,0.6-1.2,0.5-1.8c-0.4-1.7,0.6-3.1,1-4.6c1.3-4.4,1.2-4.4,0.1-10.2c-0.3-1.7-0.2-3.7,0.4-5.3c0.4-1.1,0.2-1.5-0.1-2.5
		c-1-3.3-1.9-6.6-2.3-10c-0.4-3.9-1.5-7.2-4-10.4c-1.4-1.8-2.8-3.8-4.2-5.7c-2.6-3.4-5.6-6.8-10-8.2c-3.1-1-6.3-2-9.5-2.4
		C934.1,684.4,928.7,684.2,923.4,683.8z M967.2,888.5c0.4-4-1.5-7.2-3.5-10.1c-2.2-3-5.8-4.5-9.2-5.2c-3.4-0.7-7-0.5-10.4,0
		c-1.6,0.3-2.8,0.6-4.2-0.2c-0.3-0.1-0.7,0-1,0c-2,0-4.5-0.8-5.9,0.2c-2.2,1.5-3.6-0.7-5.3-0.2c-0.3,0.1-0.8-0.1-1,0
		c-1.7,1.6-3.7,0.8-5.6,1c-3.4,0.4-6.8-0.7-10.1,0.9c-1,0.5-2.9,0.8-4.2-0.5c-0.3-0.3-1.1-0.4-1.3-0.2c-1.7,1.8-3.8,0.5-5.6,0.9
		c-2.9,0.6-5.6-0.9-8.7-0.2c-3.2,0.8-6.4,1.6-9.2,3.2c-3.8,2.2-5.9,5.7-6,10.2c-0.1,5.2-0.1,10.3,0,15.5c0.1,3.2,1.4,6.3,1,9.6
		c-0.1,1.3-0.9,2.4-0.9,3.6c-0.1,1.1,1.1,2.1,0.9,3.6c-0.2,1.4-0.4,3.3,0.4,4.2c1.6,1.9-0.8,2.8-0.6,4.4c0.4,3.8-0.1,7.7,0.2,11.5
		c0.3,3.6,1,7.1,1.8,10.7c0.8,3.4,1.9,6.5,4.6,8.6c6.9,5.5,12.8,6.6,21.4,2.7c1.4-0.6,2.8-1.3,4.3-1.8c3.4-1,6.8-2.3,9.6-4.4
		c3.4-2.5,7.2-4.4,10.9-6.5c3.4-1.9,7.1-3.2,9-7.1c0.7-1.5,2.3-2.6,4.1-3.3c1.4-0.6,2.7-1.7,3.8-2.8c2.7-2.4,4.7-5.6,7.7-7.7
		c0.8-0.6,1.2-1.8,1.8-2.7c3.6-5.4,5.3-11.8,8.4-17.5c0.9-1.6,1.3-3.5,1.4-5.4c0.2-2.5-0.1-5,0.1-7.5
		C966.3,893.5,966.8,891,967.2,888.5z M876.6,345.2c0.1,0,0.3,0,0.4,0.1c0,1.7-0.2,3.4,0,5c0.4,3.1,0.6,6.4,2.7,8.8
		c1.4,1.7,1.4,3.8,2.3,5.6c0.5,1,0.5,2.1,1,3.1c1.9,3.3,3.5,6.8,6.5,9.3c1.8,1.5,3.3,3.3,5,4.9c1.2,1.1,2.4,2.1,3.8,2.8
		c1.8,0.9,3.7,1.7,5.2,3.2c1,0.9,2.4,1.5,3.6,2.1c4.5,2.2,9.6-0.2,14.2,2c0.4,0.2,1,0.1,1.5,0c1-0.3,2-0.9,3.1-0.9
		c2.1-0.1,4.2,0.1,6-1.3c1.8-1.4,4.1-0.9,6.2-2c3.5-1.9,6.7-4.4,10.5-5.9c2.4-0.9,4.5-2.8,6.6-4.5c1.5-1.2,3.5-2.8,3.7-4.4
		c0.3-2.5,3.1-3,3.2-5.2c0-0.3,0.4-0.5,0.5-0.8c1-2.6,2-5.2,3.6-7.5c0.9-1.3,0.7-2.4,0.8-3.7c0.1-1.8-0.4-3.9,0.3-5.4
		c2-4.4,0.1-8.5-1-12.5c-0.6-2.2-1.3-4.2-1.3-6.5c0.2-5-1.8-8.9-6.2-11.5c-1.4-0.8-2.9-2-3.5-3.3c-0.7-1.6-1.9-2.6-3-3.8
		c-3.2-3.5-8-4.9-10.8-8.8c-0.3-0.4-1.1-0.5-1.7-0.7c-3.3-1.4-10.2-2.5-14.7-2.3c-0.3,0-0.6-0.1-0.9-0.2c-4.2-2.2-8.3-0.3-12.1,0.8
		c-4.2,1.3-8.3,3.2-12.6,4.4c-0.4,0.1-1,0.1-1.4,0.3c-3.2,2.4-6.4,4.8-9.4,7.4c-1,0.9-1.6,2.3-2.5,3.4c-1.4,1.8-2.9,3.4-4.2,5.3
		c-1.2,1.8-2.6,3.7-3,5.7C878,333.8,877.4,339.5,876.6,345.2z M304,917.1c0.1,2.4,0.6,5.2,0.8,7.8c0.2,3.2,0.7,6.5,1.4,9.5
		c0.7,3.1,1.8,6.2,3.5,9c0.8,1.3,1.1,3.2,2,4.6c1,1.6,2.6,2.9,3.4,4.6c0.8,1.6,2.3,2.4,3.5,3.4c2,1.6,3.7,4,6,4.7
		c3.2,1,5.9,2.7,8.8,4.1c1.4,0.7,3,0.9,4.5,1.1c2.7,0.4,5.8-0.1,8,1.2c3.2,1.9,5.6-0.1,8-0.9c2.5-0.8,5-1.5,7.5-2.2
		c2.6-0.8,7.9-2.9,10.2-4.2c2.3-1.3,4.8-2.9,5.7-5.1c1.1-2.5,3.6-3.2,4.8-5.4c1.3-2.3,3.4-4.3,5.2-6.3c1.2-1.3,1.9-2.8,2.5-4.5
		c1.7-4.1,3.8-8.1,3-12.8c0-0.1,0-0.4,0.1-0.4c1.6-1.3,0.6-3.1,0.9-4.6c0.3-1.5,0.7-3.1,1-4.6c0.1-0.5,0.2-1.1,0-1.5
		c-2.1-3.6-2.2-8.1-5.1-11.4c-0.4-0.4-0.8-1.1-0.8-1.6c-0.3-3.7-2.3-6.5-4.8-9c-1.4-1.4-3.2-2.6-4.1-4.3c-2.8-4.8-7.2-7.7-11.7-10.3
		c-1.3-0.8-2.8-1.3-4.5-1.1c-1.9,0.2-3.7,0.3-5.6-0.8c-1.5-0.9-3.6-0.2-5.6-0.8c-2.6-0.8-5.7-0.6-8.7,0.2c-4.3,1.1-8.2,2.8-11.9,5
		c-1.2,0.7-2.6,0.9-3.9,1.5c-3.7,1.9-7.7,3.2-10,7.2c-0.6,1.2-1.7,2.3-2.9,3.3c-3.1,2.5-6.4,5.1-7.5,9.3c-0.6,2.2-0.6,4.9-1.9,6.7
		C303.9,911.2,304,913.9,304,917.1z M966,535.6c0-9.5-0.3-9.4-3.7-18.9c-1.5-4.3-3.7-7.7-6.9-10.7c-0.7-0.7-1.5-1.4-2.1-2.1
		c-2.9-3.5-6.8-6-10.8-7.6c-3.8-1.5-7.9-2-12.1-2.2c-3.3-0.1-6.7-0.2-10,0c-3.2,0.2-6.4,0.8-9.6,0.9c-2.1,0.1-3.9,1-5.9,1.6
		c-1.2,0.3-2.2,1.1-3.4,1.5c-2.5,0.9-4.9,1.9-6.9,3.8c-1.3,1.2-3.4,1.9-4,3.3c-0.8,1.8-2.4,2.3-3.7,3.3c-3.5,3-5.1,7.3-8,10.7
		c-0.6,0.7-0.8,1.7-1,2.6c-0.4,2-0.8,4-1,6.1c-0.2,2.2-0.2,4.4-0.9,6.6c-0.9,2.9,0.1,15.7,0.9,19c0.3,1.3,0.9,2.7,1.7,3.8
		c1.2,1.5,2,3.1,2.4,5.1c0.3,1.4,1.4,2.9,2.5,3.9c3.7,3.3,7.4,6.8,11.6,9.5c6.3,4,13.1,6.8,20.8,6.4c5-0.2,10,0.3,15.1-0.9
		c5.8-1.3,11-3.5,15.5-7.3c2.1-1.7,3.5-4.2,5.4-6.2c1.3-1.4,3.5-2.1,4.4-3.6c1.5-2.4,3.3-4.6,4.6-7.1c3.2-5.7,5.4-11.7,5-18.4
		C966,537.6,966,536.6,966,535.6z M537.9,967c2.1,0,3.6,0.1,5,0c1.4-0.2,2.7-0.9,4.1-0.9c3.8,0.1,6.9-1.8,10.3-2.8
		c3-0.9,4.6-3.3,7-4.9c5.3-3.7,9.5-8.4,13.3-13.4c1-1.3,1.5-3.2,2.5-4.4c2.3-2.6,4-5.3,3.9-8.9c0-0.7,0.6-1.4,1-2.1
		c0.3-0.5,0.9-1.1,0.9-1.6c0.1-1.8-0.1-3.7,0.1-5.5c0.1-1.6-0.6-3.2,0.7-4.7c1.4-1.7-0.5-3.4-0.9-4.9c-0.9-3.7-1.6-7.6-4.2-10.7
		c-2-2.4-3.5-5.2-5-7.9c-1.2-2.2-2.7-4.2-4.7-5.5c-2.3-1.4-4-3.3-5.9-5.1c-0.5-0.5-0.9-1.1-1.4-1.4c-6.3-2.7-12.1-6.7-19.4-6.2
		c-0.5,0-1,0.1-1.5,0c-5.7-1.1-5.7-0.6-10.7-0.2c-2.7,0.2-4.6,1.8-7.1,2.3c-3.9,0.8-7.3,3.3-10.8,5.1c-3.8,1.9-5.9,5.6-8.9,8.2
		c-1.6,1.4-2.4,3.9-3.2,6.1c-0.9,2.7-3.6,3.7-5,5.9c-0.6,0.9-0.8,2-1,3.1c-1.3,5.1-2.5,10.4-1.8,15.6c0.3,2.5,0.2,5.2,1,7.6
		c0.9,2.9,1,6,3.5,8.6c1.9,2,3.7,4.6,4.4,7.6c0.2,0.8,1,1.6,1.7,2.3c2.8,2.9,5.6,5.7,8.5,8.5c1.3,1.2,2.6,2.4,4,3.5
		c2.5,1.9,5.4,2.4,7.9,3.9C530,966.3,534,967.5,537.9,967z M205,889.1c0-1.9-0.2-3.4,0-4.9c1.1-5.4-4.6-10.8-10.3-12.1
		c-6.2-1.4-12.7-1.7-19.1-2.1c-3-0.2-6-0.3-9,0c-2.9,0.3-5.6,1-8.6,1c-5.2,0.1-10.5-1-15.6,0.9c-0.9,0.3-2.3,0.5-2.9,0
		c-2.4-1.8-5.3-1.3-7.6-0.7c-2.4,0.6-5,1.1-7.4,2.5c-5.3,3.3-8.5,7.6-8.5,13.9c0,3.6-1,7.5,1.8,10.7c0.4,0.5,0.2,1.6,0.1,2.4
		c0,1,0.6,1.8,0.9,2.6c1.2,3.4,3.9,6,5.1,9.4c0.8,2,1.2,4.3,2.5,6c2.1,2.9,4.7,5.4,7,8.1c2,2.3,4.5,4.1,6.1,6.9
		c1.1,1.8,2.8,3.4,5.1,4.4c2.3,1,4.5,2.4,5.4,5.1c0.2,0.7,1.1,1.1,1.7,1.6c1.7,1.2,3.4,2.3,5.1,3.4c3.7,2.2,7.4,4.7,11.3,6.5
		c2.8,1.3,5.4,3.2,8.7,3.1c1.7,1.7,4.1,0.5,5.9,1.3c1.3,0.6,2.5,1.4,3.8,1.6c1.6,0.3,3.3,0.1,5,0.1c7.4,0,13.4-5.9,13.4-13.5
		c0-1.9,0.1-3.7,0.9-5.6c0.9-2.2,1.9-4.7,0.2-7.2c-0.5-0.8,0.3-2.3-1-3.1c2.5-3.4-0.8-7.7,1.8-11.1c0.3-0.4,0.3-1.6,0-1.9
		c-1.6-1.3-0.7-3.1-1-4.6c-0.3-1.4,0.1-2.7-0.6-4.3c-0.8-1.6-0.2-3.9-0.4-5.8c-0.2-1.9-1.4-4-0.8-5.5
		C205.4,895.1,204.7,891.9,205,889.1z M351.1,115.1c-3.6-0.7-7.8-0.1-11.8,1.2c-3.6,1.2-6.9,3.5-10.9,3.8c-0.7,0.1-1.5,0.6-2,1
		c-4.5,3.7-8.9,7.4-13.3,11.3c-1.4,1.3-2.2,3.3-3.6,4.4c-4.7,3.9-5.7,9.3-6.4,14.8c-0.3,2,0.2,4.1-0.9,6.1c-0.5,1,0.2,2.8,0.5,4.2
		c0.4,2.1,1.2,4.2,1.6,6.4c0.4,2.5,1.1,5.1,2.2,7.5c3,6.7,8.5,11.3,13.5,16.4c0.5,0.5,1.3,0.9,2,1.1c2,0.6,3.6,1.9,5.3,3.1
		c1.9,1.4,4.2,2.9,6.9,2.5c0.8-0.1,1.7-0.2,2.4,0.1c3.5,1.3,7,1.9,10.7,1.9c0.8,0,1.6,0,2.4,0.2c4.8,1.3,11.8,1.2,16.1-0.5
		c1.7-0.7,3.7-0.9,4.9-2.7c3.7,0.2,5.5-3.4,8.8-4.1c1.5-0.3,8.5-9.6,9.6-11.4c2.5-4.2,3.7-8.9,4.7-13.5c0.9-4.2,1.4-8.6,1.4-13
		c0-6.7-1.9-12.7-5.1-18.4c-0.9-1.6-2.1-3.1-3-4.7c-1.6-3-3.5-5.6-6.8-7.1c-1.5-0.7-2.8-2.1-4.2-3.1c-3.1-2.2-5.7-5.2-10.1-4.6
		c-0.4,0-0.8-0.5-1.2-0.7C360.6,115.6,356.3,114.4,351.1,115.1z M185.3,114.7c0,0.1,0,0.2-0.1,0.3c-1.5,0-3,0-4.5,0
		c-3.1-0.1-6,1.2-8.4,2.5c-4.2,2.2-8.1,5.2-12.8,6.6c-1.4,0.4-2.7,1.7-3.8,2.8c-1.8,1.6-3.4,3.2-5.7,4.2c-2.3,1.1-4.5,2.5-5.9,5.1
		c-1.2,2.4-3.1,4.6-5.2,6.3c-3.5,2.6-7.1,4.9-7.8,9.7c-0.1,0.4-0.5,0.8-0.9,1.1c-2.2,2.2-4.5,4.3-4.1,7.8c0,0.2-0.2,0.6-0.5,0.8
		c-1.7,1.7-3,3.5-3.6,6c-0.6,2.2-2.3,4-3.4,6.1c-0.8,1.5-0.9,3.4-1.9,4.7c-1.4,1.8-2.1,3.7-2.8,5.9c-2.7,7.7,1.8,14.7,8.4,17.3
		c3.6,1.5,7.7,1.7,11.6,2.1c0.5,0,1.2,0.2,1.5,0c1.7-1.6,3.7-0.7,5.6-1c1.9-0.3,3.9-0.3,5.5-1.1c1.6-0.7,2.6,1.8,4.3,0.2
		c0.8-0.7,2.9-0.1,4.4-0.1c1.7,0,3.3,0,5,0c1.3,0,2.4,0.3,3.7,0.8c1,0.4,2.7-0.9,4-0.8c7.2,0.6,14.4-1.3,21.6-1
		c2.3,0.1,4.5-0.3,6.6-1.1c3.6-1.4,7.3-2.9,8.2-7.5c0.3-1.3,1.6-2.5,1.6-3.8c0.2-6.8,0.1-13.6,0-20.3c-1.7-3.4-1.1-7.2-0.6-10.6
		c0.6-4.8,0.8-4.7-0.1-9.2c-0.4-1.9-0.4-4,0.7-6.2c0.8-1.5,2.3-3.9,1-5.9c-0.9-1.3-0.9-2.5-0.7-3.7c0.4-3.7-1-6.7-2.6-9.9
		c-1.9-3.8-5.2-5.5-8.7-6.7C191.8,115.1,188.4,115.1,185.3,114.7z M686,161.1c0.1,3.4-0.4,6,1.7,8.2c0.4,0.4,0.2,1.2,0.4,1.8
		c0.4,1.3,0.8,2.7,1.5,3.9c1.1,1.9,2.7,3.6,3.4,5.6c0.8,2,1.5,4.1,3.3,5c2,1,2.2,3.5,4.1,4.3c3.9,1.6,6.6,4.6,9.4,7.4
		c1.4,1.4,2.9,2.4,4.8,2.8c2.1,0.4,4.1,1.3,6.2,2c3.3,1.1,6.6,2.3,10.2,2c1.4-0.1,2.7-0.8,4.1-0.9c1.6-0.2,3.4,0.2,5-0.1
		c2.1-0.4,4.2-1,6.2-2c4.1-2.1,8-4.7,12.1-6.9c3.1-1.6,5.7-4.1,8.4-6.3c1-0.8,1.5-2,2.4-3c2.2-2.5,2.8-5.9,4.5-8.6
		c3.1-4.8,2.3-10.1,3.4-15.1c0.1-0.3-0.1-0.6-0.3-0.9c-1.1-3-2-6-1.7-9.3c0.2-2.5-0.4-4.6-2.1-6.7c-1-1.3-1.6-3-1.9-4.7
		c-0.6-3.2-1.9-5.9-4.2-8.3c-2-2.2-4.5-3.9-6.4-6.2c-2.7-3.4-6-6.3-10.9-6.1c-1.1-2.1-3.2-0.7-4.9-1.6c-4.1-2.2-9-2.5-13.6-3.3
		c-4.3-0.8-8.2,1.7-12.4,2.6c-3.9,0.9-7.2,2.7-10.6,4.6c-3.9,2.3-8.5,3.6-10.4,8.4c-0.1,0.2-0.6,0.1-0.8,0.3c-3,2.3-3.5,3.7-5.1,8.2
		c-0.8,2.3-0.6,5.1-2.8,6.9c-0.6,0.5-0.7,1.7-1,2.5c-0.6,1.6-0.7,3.5-1.3,5c-0.7,1.7-0.6,2.9-0.3,4.5
		C686.7,158.6,686.1,160.2,686,161.1z M159.7,391.3c0-0.1,0-0.2,0-0.3c2.2,0,4.3,0,6.5,0c2.5,0,4.6-0.8,6.6-2.2
		c1.3-0.9,2.7-1.4,4.2-1.9c6.2-1.9,12.1-4.6,16.4-9.8c1.2-1.5,2.2-3.2,3.6-4.5c2-1.9,3-4.4,4-6.9c0.5-1.3,0.8-2.8,1.7-3.8
		c2.5-2.8,3.1-6.3,3.2-9.6c0.3-6.2,1-12.6-2.9-18.2c-0.1-0.1,0-0.3,0-0.5c-2.5-7.9-3.8-9.2-8.8-14.8c-0.9-1.1-2.1-2-3.4-2.7
		c-3.1-1.8-6.2-3.7-9.2-5.6c-2-1.3-3.7-3.7-6.6-3.4c-2.2,0.2-4-0.8-5.9-1.4c-3.9-1.1-8.1-2.2-10.8-1.6c-3.7,0.9-7.3,2-11.2,2
		c-0.9,0-1.7,0.6-2.6,1c-2.4,0.9-3.7,3.1-5.7,4.4c-2,1.3-4.6,1.8-6.7,3c-1.4,0.8-2.3,2.4-3.6,3.4c-1.4,1.1-2,3.1-4.1,3.3
		c-0.5,0.1-1,0.8-1.4,1.4c-1.2,1.8-2.2,3.8-3.6,5.5c-1.4,1.8-0.9,4.3-2.8,5.9c-1.9,1.6-1.5,4-2.1,6.1c-0.8,2.9-2,5.7-1.6,8.8
		c0.2,1.4,0.9,2.7,0.9,4.1c0.2,3.8-0.7,7.9,3,10.8c0.2,0.2-0.1,1.1,0.1,1.4c2.5,4.7,5.2,9.3,10,11.9c2,1.1,3.8,2.3,5.4,4
		c1.1,1.2,2.3,2.4,3.5,3.5c2.9,2.8,6.4,4.7,10.2,5.5C150.6,390.8,155.2,390.9,159.7,391.3z M894.1,115c-8.7-0.2-13,2.5-17.8,9.3
		c-0.8,1.1-0.9,2.6-1.3,4c-0.3,1.1-1.1,3-0.7,3.4c1.9,1.7-0.2,2.9-0.5,3.8c-0.8,2.2-0.7,4.4-0.9,6.6c-0.1,1.4,0.5,2.8-0.6,4.3
		c-0.6,0.7-0.6,2.4-0.1,3.2c1.8,3.2,1.1,7.1,2.7,10.4c0.4,0.7,0.1,2-0.3,2.8c-1,2.5-1,4.9,0,7.4c0.3,0.9,0.7,2.2,0.3,2.8
		c-2.2,3.2-0.3,6.1,0.7,9c0.3,0.9,0.4,1.4-0.2,2.1c-1.5,1.9-1.5,4.1-1.4,6.4c0.2,5,5.7,10.4,10.8,10.5c1.7,0,3.3,0.1,5,0
		c1.5-0.2,3.1-0.7,4.6-1c4-0.8,7.7,0.9,11.6,1c5.9,0.2,11.8-1,17.6,0.9c0.7,0.2,1.6-0.1,2.3-0.3c4.5-1.4,9.2-0.9,13.7-0.4
		c5.6,0.6,8,1.2,12.2-0.2c4.6-1.5,8.3-4.1,9.6-8.9c0.8-2.9,3.1-5.7,0.7-8.9c0.1-4-2.5-7.6-2.1-11.7c0.1-0.7-0.8-1.4-0.9-2.1
		c-0.5-2.8-3.2-4.4-3.8-6.9c-0.8-3.1-2.4-5.7-4.1-8.3c-1.1-1.6-2.6-3.1-2.3-5.6c0.1-1-1.3-2.4-2.2-3.5c-3.3-3.6-7-6.8-9.9-10.9
		c-2.7-3.7-7.1-5.2-10.9-7.3c-2-1.1-4.2-1.8-6.1-3.5c-1.4-1.3-3.6-2.1-5.9-2.6c-3.3-0.6-6.5-1.9-9.6-3.3
		C900.8,116.1,897.6,114.5,894.1,115z M164.1,774c2.3,0,3.8,0,5.3,0c3.9,0.1,7.5-0.9,10.6-3.4c1-0.8,2.5-1.1,3.8-1.6
		c3.7-1.5,7.1-3.4,9.3-7c1.1-1.8,2.5-3.7,4.3-4.7c4.1-2.3,5.8-5.8,6.8-10.2c0.6-2.4,0.9-5.1,2.4-7.5c1.5-2.3,1.8-5.4,1.4-8.4
		c-0.2-1.1-0.8-2-0.9-3.1c-0.2-2,0.1-4-0.1-6c-0.2-1.8-1.5-3.3-2.1-5.1c-1.5-4.6-3.4-8.9-6.8-12.7c-2.8-3.1-6.4-5.3-8.9-8.7
		c-0.2-0.3-0.4-0.6-0.7-0.7c-4.4-1-7.4-5.1-12.3-5.5c-3.3-0.3-6.6-2.2-9.9-2.4c-5-0.4-10.1-0.5-15.1,0.9c-2.7,0.8-5.7,1-7.9,2.5
		c-3.3,2.2-7,4-9.5,7.3c-2,2.5-4,5.2-6.4,7.3c-3.1,2.8-4.6,6.6-7.3,9.5c-0.7,0.8-0.7,2.3-1.1,3.5c-0.3,1.2-0.8,2.4-1,3.6
		c-0.2,1.3,0.3,2.8-0.2,3.9c-2.4,5.1-1.7,10.4-1.8,15.7c0,0.5,0.1,1,0.2,1.4c1.8,5,5.9,8.6,8.8,12.8c2.5,0.8,4,2.8,5.6,4.6
		c2.6,3,6.2,4.2,9.6,5.8c0.5,0.3,1.5,0.2,1.7,0.6c1.5,3.8,5,4.3,8.2,5.5C154.9,773.7,159.8,774.2,164.1,774z M545.1,117
		c-4.2,0.2-7.4,0.5-10.6,0.8c-3.8,0.4-7,1.5-10.3,3.2c-1.7,0.9-3.4,2-5.6,2.2c-1.4,0.2-2.7,1.6-3.8,2.7c-2.5,2.4-4.8,5.1-7.5,7.4
		c-3.5,3-5.5,6.9-7,11.1c-3.3,9.3-3.5,10.4-3.2,20.1c0,0.9,0.4,1.8,0.6,2.7c0.8,3.8,2.1,7.5,3.1,11.2c0.7,2.6,2.1,4.5,3.2,6.7
		c1.2,2.3,2.1,4.6,4.9,5.4c2.3,3.3,6.4,4,9.5,6.2c3.1,2.2,6.9,3.8,11,3.4c2.7,2,5.8,1.2,8.5,0.8c2-0.3,4.1-1,6.1-0.7
		c2.4,0.4,4.3-1,6.6-1.1c4.1-0.2,8.1-1.1,11.8-2.9c0.8-0.4,1.7-0.7,2.6-1c4-1.5,8.3-2.6,10.8-6.3c1.8-2.7,4.2-5,6.4-7.3
		c0.4-0.4,0.6-1.1,0.9-1.6c1-2.6,2-5.2,3-7.7c1.1-2.6,1.8-5.3,2.1-8.2c0.3-3.2-1.1-6-1.1-9.1c0-2.6-0.4-4.9-1.8-7.3
		c-1.8-3-3.3-6.3-3.3-10.1c0-1.4-1.2-2.9-2.2-4c-1.9-2.1-3.9-4.1-6-6c-1.3-1.2-2.6-2.4-4.2-3.1c-2.7-1.4-5.6-2.6-8.5-3.5
		C555.5,118.7,550.2,116,545.1,117z M202.1,540.8c1.3-4.4-1.7-9.7-2.1-15.3c-2.5-3.8-4.6-7.9-7.5-11.3c-2.8-3.3-6.4-6.1-9.8-8.9
		c-2-1.7-4.4-2.9-6.7-4.3c-4.1-2.5-8.8-3-13.3-4c-2.2-0.5-4.4-1.9-6.7,0c-0.3,0.2-1,0-1.5,0c-3.5,0.1-9.1,1.8-12.9,3.9
		c-1.2,0.7-2.3,1.7-3.6,2.1c-4.4,1.2-6.9,4.6-9.9,7.4c0.1,2.4-2.2,2.7-3.5,3.4c-1.8,0.9-3.1,2-3.8,3.9c-0.5,1.3-1.7,2.3-2.4,3.5
		c-0.6,0.9-1.3,1.9-1.3,2.9c0,2.1-1.2,3.9-1.5,5.9c-0.2,1.2-0.8,2.7-0.4,3.8c0.8,2.6,1.8,5.1,0,7.7c1.6,1.3,1.1,3.1,0.9,4.6
		c-0.2,1.8,1.2,3,1.1,4.6c-0.3,3.2,2.5,5,3.7,7.5c1.3,2.6,1.4,5.9,3.8,7.9c0.5,0.4,0.9,1.1,1.4,1.4c3.4,2.1,5.7,5.5,8.8,7.7
		c3.3,2.3,6.9,4.2,10.3,6.5c0.4,0.3,0.9,0.4,1.3,0.5c2.7,0.7,5.4,1.5,8.2,1.9c1.6,0.2,3.1,0.8,4.6,0.9c2.3,0.1,4.6-0.8,6.9-1.3
		c2.3-0.6,4.5-1.3,6.9-1.6c4.2-0.5,8.3-2,11.2-5.4c1.6-1.9,3.2-3.5,5.5-4.6c1.7-0.8,3.5-2,4.4-3.5c2.4-4.5,6.8-8.1,6.2-13.9
		C202.7,550.6,201.9,546.3,202.1,540.8z"/>
	<path d="M450.1,523.4c-2.2-1.8-4.3-3.9-6.7-5.4c-4-2.5-6.8-6.2-10.2-9.2c-1.8-1.6-3.8-3-5.6-4.6c-1.5-1.3-3.8-1.8-4.2-4.2
		c-4.1-2.6-6.4-7.4-11.1-9.1c-2.4-2.9-5.4-5.1-7.6-8.3c-1.6-2.3-2.9-5.4-6.1-6.4c-3.1-3.7-6.5-7.2-9-11.3c-1.2-1.9-2.7-3.1-4.5-3.8
		c-2.1-0.8-3.6-2.1-5.1-3.5c-2.3-2.2-4.4-4.7-7.3-6.5c-1.4-0.8-2.3-2.6-3.2-4.1c-1.2-2.1-2.7-3.8-4.8-5.1c-1.8-1.1-3-3.3-4.4-5
		c-1.1-1.4-2-2.9-3.2-4.2c-6.9-7.3-13.9-14.6-20.9-21.9c-2.3-2.4-4.6-4.9-7.9-6.2c-2.1-0.8-3.8-3-5.7-4.5c-5-3.9-8.6-9.2-13.4-13.3
		c-2.5-2.1-3.2-5-4.2-7.8c-0.5-1.3,0-3-0.1-4.5c-0.2-1.4-0.8-2.7-0.9-4.1c-0.2-2.9,0.4-4,2.3-7.5c1.8-3.2,3.1-6.7,4.6-10.1
		c0.8-1.8,1.8-3.3,3.1-4.7c3.7-4.2,7.1-8.5,10-13.3c2.3-3.8,5.8-6.8,8.1-10.7c0.8-1.3,2.7-1.2,3.3-3.1c0.5-1.4,2.2-2.4,3.4-3.6
		c1.1-1.1,2.1-2.1,3.2-3.2c1.2-1.2,2.3-2.4,3.6-3.5c0.9-0.8,2-1.5,3.1-2.1c2.3-1.2,3.5-3.7,5.8-5c2-1.2,4.1-1.4,6.2-2.1
		c2.1-0.7,3.9-1.4,5.8,0.3c3.9-0.5,6.2,2.2,8.6,4.6c2.7,2.7,5.4,5.4,8.1,8.1c2.3,2.4,5.7,3.7,7,7c0.1,0.1,0.2,0.3,0.3,0.4
		c5.4,2.7,9.3,7.4,14.1,10.8c0.9,0.6,1.9,1.2,2.7,1.9c5.6,5.7,11.3,11.3,17.9,15.9c0.4,0.3,0.9,0.6,1,1.1c1.4,3.4,4.9,5.1,6.8,8.2
		c0.7,1.1,1.4,2.3,2.5,2.9c3.3,1.9,5.8,4.4,7.7,7.8c0.6,1,1.5,1.8,2.4,2.5c4.9,3.9,9.8,7.8,14.7,11.7c0.1,0.1,0.2,0.3,0.4,0.3
		c2.2,1.3,2.8,4,5.2,5.3c2.1,1.1,3.6,3.4,5.7,4.4c2.9,1.3,4.2,4.4,7.2,5.5c0.9,0.3,1.5,1.6,2.2,2.5c0.6,0.7,1,1.7,1.7,2.3
		c1.6,1.3,3,2.9,4.7,4.1c1.6,1.2,2.7,3.4,4.5,4.7c1.7,1.2,3,3,4.8,4.1c2.5,1.5,4.2,3.7,6,5.9c1.9,2.3,3.9,4.8,6.8,6.2
		c1.7,0.8,3.3,2.5,4.2,4.2c0.7,1.5,1.7,1.9,2.8,2.8c2.2,1.7,4.1,3.9,6.1,5.9c1.3,1.2,2.5,2.4,4.1,3.3c3.1,1.7,3.8,2,6.2,0
		c1.2-0.9,2.1-2.2,3.2-3.1c1.2-1,2.5-1.9,3.8-2.8c1.4-1.1,2.8-2.1,4.2-3.2c1.4-1.1,2.7-2.7,4.2-3.1c4.3-0.9,7.3-3.6,10.4-6.5
		c1.1-1.1,2.1-2.3,3.8-2.9c2-0.8,3-3,4.3-4.6c2-2.6,4.1-4.8,7.1-6.2c0.4-0.2,1-0.3,1.2-0.7c1.4-3.3,4.4-5,7.1-7c2.6-2,5.2-4,8.3-5.4
		c0.4-0.2,0.8-0.6,1.1-1c2.9-4.3,7-7.3,11.2-10.2c1.2-3.2,4.2-4.9,6.4-7.3c2.7-2.9,6-5.2,8.5-8.4c0.9-1.2,2.7-1.8,3.7-2.9
		c2-2.3,3.8-4.7,5.7-7.1c0.8-1,1.5-2.6,2.5-2.9c3.6-0.9,5.5-3.8,8-6.1c2.2-2.1,4.2-4.3,6.4-6.3c3-2.8,5.7-6,9.2-8
		c3.5-2,6.2-4.6,9-7.2c2.9-2.7,5.9-5.1,8.7-7.8c1.6-1.6,2.5-4.2,4.4-5c2.2-1,2.4-3.5,4.1-4.3c2.1-0.9,3.7-2.4,4.7-4.1
		c1.2-2.1,2.8-3.4,4.7-4.4c4.4-2.3,8.8-4.6,14-4.9c4.3-0.2,8,1.6,11.4,3.7c2.8,1.8,5.4,3.9,8,6c2.5,2,5.1,4,7.3,6.4
		c3.6,3.8,7.4,7.3,12,9.7c2.7,1.4,4.4,4,7.3,5.3c2.5,1.2,4.5,3.7,6.6,5.8c2.3,2.2,4.9,4.2,6.6,6.8c2.8,4.1,5.9,7.9,8.9,11.8
		c0.7,0.9,1,2.1,1.8,2.7c2.2,1.8,2.7,4.2,3.2,6.7c0.5,2.2,1,4.3,1.1,6.6c0.1,3.3-1.1,6.2-2.2,9.1c-0.7,1.9-1.9,3.5-2.8,5.3
		c-2.1,4.2-7,9.6-10.8,12.5c-1.4,1.1-3.1,1.9-4,3.7c-0.7,1.4-2.3,2.4-3.4,3.6c-3,3.2-6.6,5.9-8.9,9.8c-2.6,4.6-7.4,7.1-10.9,10.9
		c-2.6,2.9-5.7,5.3-7.9,8.7c-1.2,1.9-4,2.8-5.4,4.7c-1.4,2-3.5,3.1-5.1,4.8c-1.6,1.7-3.8,2.9-5.6,4.4c-1,0.8-2.3,1.4-3,2.4
		c-3.3,5-8.1,8.6-12.1,13c-3,3.3-6.4,6.1-9,9.7c-1.8,2.6-4.6,4.6-7.3,6.4c-2.6,1.7-4.4,4-6.4,6.3c-3.6,4.2-7.5,8.3-12.3,11.2
		c-0.9,0.6-2.2,1.1-2.6,2c-1.9,4.3-6.1,6.1-9.3,8.9c-2,1.7-4.1,3-5.3,5.4c-0.4,0.7-1,1.3-1.6,1.8c-2.4,2.3-4.6,4.9-7.2,6.8
		c-2.4,1.7-3.2,5-6.4,6c-0.8,0.2-1.5,1.3-2.1,2.1c-0.9,1-1,2.1-0.1,3c1,1.1,2.1,2.1,3.2,3c1.5,1.3,3.6,2.2,4.3,3.8
		c1.3,2.8,4,3.5,5.8,5.3c2.5,2.5,6.3,3.5,8.1,6.6c0.9,1.5,2.7,2.2,3.4,3.5c0.9,1.6,1.9,2.7,3.6,3.5c0.5,0.2,0.6,1,1,1.5
		c1.3,1.9,2.7,3.7,4.6,5c1.2,0.8,2.2,1.9,3.2,3.1c1.5,1.9,3,3.9,5.1,5.3c2.1,1.4,3.6,3.7,5.9,5c1.7,1,2.8,3.1,4.1,4.7
		c0.4,0.5,0.8,1.3,1.3,1.4c2.6,0.6,3.4,2.7,4.5,4.6c1.4,2.4,3.1,4.4,5.6,5.6c1.1,0.5,2.2,1.3,3.1,2.1s1.7,2,2.1,3.1
		c1,2.6,3.2,4.1,5,5.9c1.9,1.7,3.1,4.3,5.9,5c0.6,0.2,1.1,0.8,1.4,1.4c2.1,3.6,5.4,6.1,8.1,9.1c0.6,0.7,1,1.6,1.4,2.4
		c0.9,1.7,1.8,3.2,3.7,4.1c1.5,0.7,3.2,2.2,3.7,3.7c1.3,4.1,4.9,5.7,7.7,8.2c0.8,0.7,2.2,1,2.7,1.9c2.5,4.1,6.9,6.3,9.9,9.8
		c1.8,2.1,3.9,3.7,4.9,6.5c0.4,1.3,1.8,2.3,2.9,3.3c4.4,4.1,7.7,9,11.1,13.9c1.2,1.7,2.4,3.4,3.8,4.9c2.7,2.8,3.8,6.6,6.2,9.4
		c1.5,1.8,0.1,4.2,1.9,5.8c0.2,0.1,0.2,0.8,0.1,0.9c-2.5,2.7,0.2,6.3-1.9,9.3c-1.1,1.6-2.1,3.4-3.2,5.1c-1.1,1.6-3.5,1.4-4.1,3.7
		c-0.4,1.6-1.8,2.9-2.8,4.3c-0.3,0.5-0.5,1.3-1,1.6c-4.4,2.8-6.5,7.7-10,11.3c-0.8,0.8-1.2,1.8-1.9,2.7c-4.4,5.1-9.4,9.7-12.1,16
		c-0.3,0.7-1.1,1.2-1.7,1.8c-2.1,2-4.8,3.3-5.7,6.6c-0.3,1.2-2.5,1.8-3.6,2.9c-2.7,2.7-5.7,5-8.1,8c-1.5,1.9-3.4,3.3-6.1,3.4
		c-2.1,0.1-3.8,1.9-6.3,0.1c-1.2-0.9-3.6-0.6-5.5-1c-6-1.6-9.7-3.8-14.3-8.9c-1.6-1.8-3.5-3.5-5.6-4.5c-3.4-1.7-5-4.7-7-7.6
		c-0.4-0.5-0.7-1-1-1.6c-1-1.8-3.1-2.3-4.3-4.1c-1-1.5-2.4-2.9-4.4-3.7c-1.3-0.5-1.8-2.6-2.9-3.7c-5.3-5.1-10.6-10.4-16.2-15.1
		c-2.8-2.4-5.9-4.4-7.6-7.8c-3.7-1.5-5.9-4.7-8.3-7.5c-2.1-2.4-4-4.8-6.7-6.6c-1.7-1.1-2.9-2.9-4-4.8c-1.5-2.5-3.6-4.6-5.6-6.7
		c-5.1-5.3-10.4-10.4-15.5-15.6c-1.5-1.5-2.8-3-4-4.8c-1-1.5-3-2.3-4.4-3.6c-0.8-0.7-1.3-1.8-2-2.7c-1.3-1.6-2.6-3.3-4.7-4
		c-2.5-0.9-4.6-2.8-5.8-5c-2-3.6-5.9-5.5-7.6-9.3c-0.3-0.6-1.2-1.1-1.9-1.4c-2.3-1.1-3.9-3.1-4.6-5.3c-0.9-2.8-2.8-4.6-4.7-6.6
		c-2.5-2.5-5-4.9-7.4-7.4c-1.2-1.3-1.9-3.3-3.3-4c-1.6-0.8-2-2.3-3-3.3c-1.8-1.8-2.4-1.9-4.5-0.3c-4.7,3.4-9.6,6.8-13.2,11.4
		c-3.8,4.8-8.3,8.9-12.5,13.3c-1.1,1.1-2.5,1.9-3.8,2.9c-0.8,0.6-1.5,1-2.2,1.9c-2.3,3.1-5.3,5.7-8.8,7.5c-0.8,0.4-1.3,1.3-1.9,1.9
		c-1.5,1.7-2.8,3.9-4.7,4.9c-1.7,0.9-3.1,2.1-4,3.5c-4,5.6-9.7,9.1-15.1,13c-1.2,0.9-2.7,1.9-3.1,3.2c-0.5,1.6-1.6,2.6-2.7,3.4
		c-4,3-7,7.2-11.7,9.2c-0.4,0.1-0.6,0.6-0.8,0.9c-1.1,1.8-2.8,2.9-4.4,4.2c-2.8,2.4-5.8,4.8-7.7,8.2c-1,1.7-2.6,3.1-4.7,4.1
		c-1.8,0.8-3.9,1.5-4.3,4.1c-0.2,0.9-1.5,1.7-2.4,2.5c-1.4,1.4-2.7,3.1-4.3,4.2c-1.6,1.1-2.5,2.7-3.8,3.9c-1.4,1.4-2.8,2.8-4.2,4.2
		c-1.4,1.4-2.8,2.8-4.2,4.2c-1.4,1.4-2.9,2.8-4.2,4.3c-2.2,2.4-4.6,4.6-6.5,7.3c-2,2.7-5.2,4.4-7.5,6.9c-3.6,3.6-6.8,7.5-10.3,11.2
		c-2.2,2.3-8.1,4.7-11,4.9c-4.6,0.4-8.1-2.1-11.8-4c-2.3-4.5-7.2-6.3-10.3-10.1c-1.9-2.4-3.4-5-4.2-7.8c-0.4-1.4-1-2.3-1.8-3.3
		c-4.1-5.1-7.9-10.3-11.4-15.8c-1-1.5-0.4-3.5-2-4.7c-1.4-1.1-3-2.4-3.8-3.9c-2.3-4-6.7-6.5-8.3-11.1c-0.3-1-1.5-1.9-2.5-2.4
		c-3-1.3-4.6-3.8-6.2-6.4c-0.4-0.7-0.6-1.5-1.1-2c-3.4-3.8-6.8-7.6-10.3-11.2c-1.9-2-2.8-4.1-2.9-6.9c-0.2-4,1.4-6.9,3.8-10
		c2.6-3.4,5.7-5.9,8.8-8.7c5.9-5.4,12.9-9.5,18-15.8c4.2-1.9,6.8-5.9,10.3-8.7c3.6-2.9,5.8-7.4,8.6-11.3c0.4-0.5,0.3-1.3,0.7-1.7
		c3.7-3.4,6.8-7.3,8.8-11.9c3.9-1.5,5-6.5,9.3-7.5c0.8-0.2,1.9-1.2,2.1-2c0.6-2.1,2.4-2.7,3.9-3.8c5.5-3.9,10.3-8.5,14.1-14
		c1.3-1.9,3-3.4,4.5-5.1c2.6-3.1,4.9-6.5,7.9-9.1c1.9-1.7,4.1-3.2,5.8-5.1c1-1,1.7-2.3,2.5-3.4c0.9-1.3,1.8-2.7,2.9-3.8
		c1-1,2.2-1.8,3.4-2.5c4.3-2.5,7.3-6.5,10.9-9.9c2.9-2.8,6.2-5,9.5-7.1c2.7-1.7,5.3-3.8,7.1-6.6c1.4-2.2,3.2-4.1,5.1-5.9
		C448.9,525.7,449,525.8,450.1,523.4z"/>
	<path d="M685.2,927.8c0.3-3,0.3-6.1,0.8-9.1c0.4-2.8,1.3-5.4,1.9-8.2c0.7-2.9,2-5.5,3.2-8.2c0.7-1.4,1.8-2.6,2.8-3.8
		s1.9-2.5,2.8-3.8c0.7-1,1.3-2.1,2.1-3.1c1.5-1.9,3.5-3.3,4.7-5.5c0.8-1.4,2.5-2.4,4-3.4c3.7-2.4,7.7-4,11.7-5.7c1-0.4,2-0.9,3.1-1
		c1.9-0.2,3.7,0,5.6-0.9c1-0.5,2.9-0.7,4.2,0.5c0.4,0.4,1.2,0.3,1.8,0.4c3.5,0.2,7.2-0.7,10.5,1.1c2.9,1.5,6.1,2.2,9.2,3.2
		c1.9,0.7,3.7,1.8,5.2,3.2c4,3.8,8.2,7.5,11.1,12.3c0.6,0.9,1.2,1.9,2,2.7c3.5,3.1,5,6.9,5,11.4c0,2,1.4,3.5,1.2,5.6
		c-0.2,1.5,1.2,3.1-0.1,4.7c-0.2,0.3,0.2,1.2,0.4,1.8c0.2,0.6,0.7,1.3,0.5,1.7c-1.6,3.3-0.4,6.8-1.1,10.1c-0.6,2.8-1.9,5.6-3.4,8.1
		c-1,1.6-1.9,3.2-2.8,4.9c-0.7,1.4-1.9,2.6-2.8,3.9c-0.7,1-1.4,2.1-2.1,3.1c-1.5,1.9-2.9,3.9-4.6,5.6s-3.5,3.7-5.6,4.5
		c-4.5,1.6-8.6,4.6-13.7,4.3c-1.6-0.1-3.2,0.1-4.8,0.4c-1.6,0.3-2.8-0.9-4.4-0.5c-1.1,0.3-2.3-0.3-3.1,0.9c-0.1,0.2-0.7,0.2-0.9,0.1
		c-3.6-1.5-7.5-0.2-11-1.2c-2.5-0.7-5.2-0.8-7.6-2.2c-2.5-1.5-5-3.1-7.6-4.6c-2.4-1.3-4.2-3.1-5.6-5.6c-1.1-1.9-2.7-3.5-4.2-5.3
		c-2.1-2.5-4-5.1-3.6-8.5c0.2-1.8-0.9-3-1.4-4.5c-0.7-2-1.9-3.9-2.8-5.9c-0.5-1.1-0.8-2.3-1.2-3.5
		C684.9,927.9,685.1,927.8,685.2,927.8z"/>
	<path d="M923.4,683.8c5.3,0.4,10.7,0.6,16,1.3c3.2,0.4,6.4,1.4,9.5,2.4c4.3,1.4,7.4,4.8,10,8.2c1.4,1.8,2.7,3.9,4.2,5.7
		c2.5,3.1,3.6,6.5,4,10.4c0.4,3.4,1.3,6.8,2.3,10c0.3,1,0.5,1.4,0.1,2.5c-0.6,1.6-0.7,3.6-0.4,5.3c1.1,5.8,1.2,5.8-0.1,10.2
		c-0.4,1.5-1.4,2.9-1,4.6c0.1,0.5-0.2,1.3-0.5,1.8c-1.1,1.7-2.7,3.2-3.3,5.1c-0.7,2-1.8,3.6-2.9,5.3c-1.9,2.9-4.3,5.3-6.8,7.6
		c-1.7,1.7-3.8,3-5.5,4.7c-1.6,1.6-3.5,2.7-5.6,3.5c-2.9,1.1-5.7,2.4-8.5,3.5c-0.7,0.3-1.6,0.4-2.4,0.3c-1.7-0.2-3.7-1.3-4.9-0.7
		c-1.7,0.9-3.2,0.6-4.7,0.7c-3.7,0.2-7.1-0.9-10.5-2.2c-1.9-0.7-3.8-1.4-5.8-1.7c-3.1-0.5-5.7-1.8-7.9-4c-2.6-2.6-5.3-5-7.7-7.8
		c-2.4-2.7-4.4-5.7-6.2-8.9c-2.4-4.3-4.6-8.8-6.1-13.5c-0.9-2.6-0.7-5.8-0.2-8.6c0.2-1.2,0.6-2.5,0.5-3.7
		c-0.3-6.6,2.8-12.1,5.6-17.6c0.9-1.8,2.1-3.5,3.2-5.2c2.6-4.3,6.4-7.5,10-10.8c1.6-1.5,4.2-1.9,6-3.3c1.8-1.4,3.8-2,5.8-2.9
		c3-1.3,6-1.9,9.3-1.7c1.5,0.1,3,0,4.5,0C923.4,683.9,923.4,683.8,923.4,683.8z"/>
	<path d="M967.2,888.5c-0.4,2.5-1,5-1.2,7.5c-0.2,2.5,0.1,5-0.1,7.5c-0.2,1.8-0.6,3.8-1.4,5.4c-3.1,5.7-4.8,12.1-8.4,17.5
		c-0.6,0.9-1,2.1-1.8,2.7c-3,2.2-5,5.3-7.7,7.7c-1.2,1.1-2.4,2.2-3.8,2.8c-1.8,0.7-3.3,1.8-4.1,3.3c-1.9,3.9-5.7,5.2-9,7.1
		c-3.6,2.1-7.4,3.9-10.9,6.5c-2.8,2.1-6.3,3.3-9.6,4.4c-1.5,0.5-2.9,1.1-4.3,1.8c-8.6,3.9-14.5,2.8-21.4-2.7
		c-2.7-2.1-3.9-5.2-4.6-8.6c-0.8-3.5-1.5-7.1-1.8-10.7c-0.3-3.8,0.2-7.7-0.2-11.5c-0.2-1.6,2.2-2.5,0.6-4.4
		c-0.8-0.9-0.6-2.8-0.4-4.2c0.2-1.4-1-2.5-0.9-3.6c0.1-1.1,0.8-2.2,0.9-3.6c0.3-3.3-1-6.4-1-9.6c-0.1-5.2-0.1-10.3,0-15.5
		c0.1-4.5,2.2-8,6-10.2c2.8-1.6,5.9-2.5,9.2-3.2c3.1-0.7,5.8,0.8,8.7,0.2c1.8-0.4,4,0.9,5.6-0.9c0.2-0.2,1,0,1.3,0.2
		c1.3,1.3,3.2,1,4.2,0.5c3.4-1.6,6.8-0.5,10.1-0.9c1.9-0.2,3.9,0.6,5.6-1c0.2-0.2,0.7,0.1,1,0c1.7-0.5,3.1,1.7,5.3,0.2
		c1.3-0.9,3.9-0.2,5.9-0.2c0.3,0,0.7-0.1,1,0c1.4,0.7,2.6,0.4,4.2,0.2c3.4-0.6,7.1-0.7,10.4,0c3.5,0.7,7.1,2.2,9.2,5.2
		C965.8,881.3,967.7,884.5,967.2,888.5z"/>
	<path d="M876.6,345.2c0.8-5.7,1.4-11.4,2.5-17.1c0.4-2,1.8-3.9,3-5.7c1.2-1.9,2.8-3.5,4.2-5.3c0.9-1.1,1.5-2.5,2.5-3.4
		c3-2.6,6.2-5,9.4-7.4c0.3-0.3,0.9-0.2,1.4-0.3c4.3-1.2,8.4-3.2,12.6-4.4c3.7-1.1,7.9-3,12.1-0.8c0.3,0.1,0.6,0.3,0.9,0.2
		c4.5-0.2,11.4,0.9,14.7,2.3c0.6,0.2,1.4,0.3,1.7,0.7c2.8,3.9,7.7,5.3,10.8,8.8c1.1,1.2,2.3,2.1,3,3.8c0.6,1.4,2.1,2.5,3.5,3.3
		c4.4,2.7,6.4,6.5,6.2,11.5c-0.1,2.3,0.6,4.3,1.3,6.5c1.1,4,3,8,1,12.5c-0.7,1.5-0.1,3.6-0.3,5.4c-0.1,1.2,0.1,2.4-0.8,3.7
		c-1.6,2.2-2.6,4.9-3.6,7.5c-0.1,0.3-0.5,0.5-0.5,0.8c-0.1,2.3-3,2.7-3.2,5.2c-0.2,1.6-2.2,3.1-3.7,4.4c-2,1.7-4.2,3.6-6.6,4.5
		c-3.8,1.5-7,3.9-10.5,5.9c-2,1.1-4.4,0.6-6.2,2c-1.8,1.4-3.9,1.2-6,1.3c-1,0.1-2,0.7-3.1,0.9c-0.5,0.1-1.1,0.2-1.5,0
		c-4.5-2.2-9.7,0.2-14.2-2c-1.2-0.6-2.6-1.1-3.6-2.1c-1.5-1.5-3.4-2.2-5.2-3.2c-1.4-0.7-2.7-1.7-3.8-2.8c-1.7-1.6-3.2-3.4-5-4.9
		c-3-2.6-4.6-6-6.5-9.3c-0.5-0.9-0.6-2.1-1-3.1c-0.8-1.8-0.8-3.9-2.3-5.6c-2-2.5-2.3-5.7-2.7-8.8c-0.2-1.6,0-3.3,0-5
		C876.9,345.2,876.7,345.2,876.6,345.2z"/>
	<path d="M304,917.1c0-3.2-0.1-5.9,1.8-8.6c1.3-1.8,1.3-4.4,1.9-6.7c1.2-4.1,4.4-6.8,7.5-9.3c1.2-1,2.3-2.1,2.9-3.3
		c2.2-4.1,6.3-5.3,10-7.2c1.2-0.6,2.7-0.8,3.9-1.5c3.8-2.2,7.7-3.9,11.9-5c3-0.8,6-1,8.7-0.2c2,0.6,4.1-0.1,5.6,0.8
		c1.9,1.1,3.8,1,5.6,0.8c1.7-0.1,3.3,0.4,4.5,1.1c4.6,2.7,9,5.5,11.7,10.3c1,1.7,2.7,2.9,4.1,4.3c2.6,2.5,4.5,5.3,4.8,9
		c0,0.6,0.4,1.2,0.8,1.6c3,3.2,3,7.8,5.1,11.4c0.2,0.4,0.1,1,0,1.5c-0.3,1.5-0.7,3.1-1,4.6c-0.3,1.5,0.7,3.3-0.9,4.6
		c-0.1,0.1-0.1,0.3-0.1,0.4c0.8,4.7-1.3,8.6-3,12.8c-0.7,1.6-1.3,3.1-2.5,4.5c-1.8,2-3.9,4-5.2,6.3c-1.2,2.2-3.7,2.9-4.8,5.4
		c-1,2.2-3.4,3.8-5.7,5.1c-2.3,1.3-7.6,3.4-10.2,4.2c-2.5,0.8-5.1,1.4-7.5,2.2c-2.4,0.8-4.8,2.7-8,0.9c-2.2-1.2-5.3-0.8-8-1.2
		c-1.5-0.2-3.2-0.4-4.5-1.1c-2.9-1.4-5.7-3-8.8-4.1c-2.3-0.7-4-3.1-6-4.7c-1.3-1-2.7-1.8-3.5-3.4c-0.9-1.7-2.4-3-3.4-4.6
		c-0.9-1.4-1.2-3.4-2-4.6c-1.8-2.9-2.8-6-3.5-9c-0.7-3.1-1.2-6.3-1.4-9.5C304.6,922.2,304.1,919.5,304,917.1z"/>
	<path d="M966,535.6c0,1,0,2,0,3c0.4,6.7-1.8,12.7-5,18.4c-1.4,2.4-3.2,4.6-4.6,7.1c-0.9,1.5-3.1,2.3-4.4,3.6
		c-1.9,2-3.3,4.5-5.4,6.2c-4.5,3.8-9.7,6-15.5,7.3c-5.1,1.1-10.1,0.7-15.1,0.9c-7.7,0.3-14.5-2.5-20.8-6.4
		c-4.2-2.7-7.8-6.2-11.6-9.5c-1.1-1-2.3-2.5-2.5-3.9c-0.4-2-1.2-3.5-2.4-5.1c-0.8-1-1.4-2.4-1.7-3.8c-0.8-3.3-1.8-16.1-0.9-19
		c0.7-2.2,0.7-4.4,0.9-6.6c0.2-2,0.6-4.1,1-6.1c0.2-0.9,0.4-1.9,1-2.6c2.9-3.4,4.5-7.7,8-10.7c1.2-1,2.8-1.5,3.7-3.3
		c0.7-1.4,2.7-2.1,4-3.3c2-1.9,4.4-2.9,6.9-3.8c1.2-0.4,2.2-1.1,3.4-1.5c1.9-0.6,3.7-1.5,5.9-1.6c3.2-0.1,6.4-0.7,9.6-0.9
		c3.3-0.2,6.7-0.1,10,0c4.1,0.2,8.3,0.8,12.1,2.2c4.1,1.6,7.9,4.1,10.8,7.6c0.6,0.8,1.4,1.4,2.1,2.1c3.2,3,5.4,6.4,6.9,10.7
		C965.7,526.2,966,526.1,966,535.6z"/>
	<path d="M537.9,967c-3.9,0.5-7.9-0.7-11.7-3c-2.5-1.5-5.5-2-7.9-3.9c-1.4-1.1-2.7-2.3-4-3.5c-2.9-2.7-5.7-5.6-8.5-8.5
		c-0.7-0.7-1.5-1.4-1.7-2.3c-0.7-3-2.5-5.6-4.4-7.6c-2.4-2.6-2.6-5.7-3.5-8.6c-0.7-2.4-0.7-5-1-7.6c-0.6-5.2,0.5-10.5,1.8-15.6
		c0.3-1,0.5-2.2,1-3.1c1.4-2.2,4.1-3.2,5-5.9c0.8-2.2,1.5-4.7,3.2-6.1c3.1-2.6,5.1-6.3,8.9-8.2c3.6-1.8,6.9-4.3,10.8-5.1
		c2.5-0.5,4.4-2.1,7.1-2.3c5-0.4,5-0.9,10.7,0.2c0.5,0.1,1,0,1.5,0c7.3-0.5,13.2,3.5,19.4,6.2c0.6,0.2,0.9,0.9,1.4,1.4
		c1.9,1.7,3.6,3.6,5.9,5.1c2,1.2,3.5,3.2,4.7,5.5c1.4,2.8,3,5.5,5,7.9c2.6,3.2,3.3,7.1,4.2,10.7c0.4,1.5,2.3,3.2,0.9,4.9
		c-1.3,1.6-0.6,3.2-0.7,4.7c-0.2,1.8,0,3.7-0.1,5.5c0,0.6-0.6,1.1-0.9,1.6c-0.4,0.7-1,1.4-1,2.1c0.1,3.6-1.6,6.3-3.9,8.9
		c-1.1,1.3-1.5,3.1-2.5,4.4c-3.8,5.1-8,9.8-13.3,13.4c-2.3,1.6-4,4.1-7,4.9c-3.4,1-6.6,2.9-10.3,2.8c-1.4,0-2.7,0.7-4.1,0.9
		C541.5,967.1,539.9,967,537.9,967z"/>
	<path d="M205,889.1c-0.3,2.8,0.4,6-0.8,9.2c-0.6,1.5,0.6,3.7,0.8,5.5c0.2,2-0.4,4.2,0.4,5.8c0.7,1.5,0.3,2.9,0.6,4.3
		c0.3,1.5-0.7,3.3,1,4.6c0.3,0.3,0.3,1.5,0,1.9c-2.6,3.4,0.7,7.8-1.8,11.1c1.3,0.8,0.4,2.3,1,3.1c1.8,2.5,0.8,5-0.2,7.2
		c-0.8,1.9-0.9,3.7-0.9,5.6c0,7.6-6,13.5-13.4,13.5c-1.7,0-3.4,0.2-5-0.1c-1.3-0.2-2.5-1.1-3.8-1.6c-1.9-0.8-4.3,0.4-5.9-1.3
		c-3.3,0.1-5.9-1.8-8.7-3.1c-3.9-1.8-7.6-4.3-11.3-6.5c-1.7-1.1-3.4-2.2-5.1-3.4c-0.6-0.5-1.5-0.9-1.7-1.6c-0.9-2.7-3.1-4.1-5.4-5.1
		c-2.3-1-4-2.6-5.1-4.4c-1.6-2.8-4.1-4.6-6.1-6.9c-2.3-2.7-4.9-5.2-7-8.1c-1.2-1.7-1.7-3.9-2.5-6c-1.3-3.4-3.9-5.9-5.1-9.4
		c-0.3-0.9-0.9-1.6-0.9-2.6c0-0.8,0.3-1.9-0.1-2.4c-2.8-3.3-1.8-7.1-1.8-10.7c0-6.3,3.2-10.6,8.5-13.9c2.4-1.5,5-1.9,7.4-2.5
		c2.3-0.6,5.1-1.1,7.6,0.7c0.6,0.5,2,0.3,2.9,0c5.1-1.9,10.4-0.8,15.6-0.9c2.9-0.1,5.7-0.7,8.6-1c3-0.3,6-0.2,9,0
		c6.4,0.4,12.9,0.7,19.1,2.1c5.7,1.3,11.3,6.6,10.3,12.1C204.8,885.6,205,887.2,205,889.1z"/>
	<path d="M351.1,115.1c5.3-0.7,9.5,0.5,13.7,2.2c0.4,0.2,0.8,0.7,1.2,0.7c4.3-0.6,7,2.5,10.1,4.6c1.4,1,2.7,2.4,4.2,3.1
		c3.2,1.5,5.1,4.2,6.8,7.1c0.9,1.6,2.1,3.1,3,4.7c3.2,5.7,5.1,11.7,5.1,18.4c0,4.4-0.4,8.9-1.4,13c-1,4.6-2.2,9.3-4.7,13.5
		c-1.1,1.8-8.1,11.1-9.6,11.4c-3.3,0.7-5.1,4.3-8.8,4.1c-1.2,1.7-3.2,2-4.9,2.7c-4.3,1.7-11.3,1.8-16.1,0.5
		c-0.8-0.2-1.6-0.2-2.4-0.2c-3.7,0-7.3-0.5-10.7-1.9c-0.7-0.3-1.6-0.2-2.4-0.1c-2.8,0.4-5-1.2-6.9-2.5c-1.7-1.2-3.2-2.5-5.3-3.1
		c-0.7-0.2-1.5-0.5-2-1.1c-5-5-10.5-9.6-13.5-16.4c-1.1-2.5-1.8-5-2.2-7.5c-0.3-2.2-1.1-4.2-1.6-6.4c-0.3-1.4-1-3.2-0.5-4.2
		c1.1-2.1,0.6-4.1,0.9-6.1c0.7-5.5,1.7-10.9,6.4-14.8c1.4-1.2,2.2-3.2,3.6-4.4c4.3-3.9,8.8-7.6,13.3-11.3c0.6-0.5,1.3-1,2-1
		c4-0.3,7.3-2.6,10.9-3.8C343.3,115,347.5,114.4,351.1,115.1z"/>
	<path d="M185.3,114.7c3.2,0.4,6.5,0.4,9.5,1.5c3.5,1.2,6.8,2.9,8.7,6.7c1.6,3.2,3,6.3,2.6,9.9c-0.1,1.2-0.1,2.4,0.7,3.7
		c1.3,1.9-0.2,4.3-1,5.9c-1.1,2.2-1,4.3-0.7,6.2c0.9,4.5,0.7,4.4,0.1,9.2c-0.5,3.4-1.1,7.2,0.6,10.6c0,6.8,0.1,13.6,0,20.3
		c0,1.3-1.4,2.5-1.6,3.8c-0.9,4.6-4.6,6.1-8.2,7.5c-2,0.8-4.2,1.2-6.6,1.1c-7.2-0.3-14.3,1.6-21.6,1c-1.3-0.1-3,1.2-4,0.8
		c-1.2-0.6-2.4-0.8-3.7-0.8c-1.7,0-3.3,0-5,0c-1.5,0-3.5-0.6-4.4,0.1c-1.8,1.6-2.7-0.9-4.3-0.2c-1.7,0.7-3.7,0.8-5.5,1.1
		c-1.9,0.3-3.9-0.6-5.6,1c-0.3,0.2-1,0.1-1.5,0c-3.9-0.4-8-0.6-11.6-2.1c-6.5-2.6-11-9.6-8.4-17.3c0.7-2.1,1.4-4,2.8-5.9
		c1-1.3,1.1-3.2,1.9-4.7c1-2.1,2.8-3.9,3.4-6.1c0.6-2.5,1.9-4.3,3.6-6c0.2-0.2,0.5-0.5,0.5-0.8c-0.3-3.5,1.9-5.6,4.1-7.8
		c0.3-0.3,0.8-0.7,0.9-1.1c0.7-4.8,4.4-7.1,7.8-9.7c2.1-1.6,4-3.9,5.2-6.3c1.3-2.7,3.5-4.1,5.9-5.1c2.3-1.1,4-2.6,5.7-4.2
		c1.2-1.1,2.4-2.3,3.8-2.8c4.7-1.5,8.5-4.4,12.8-6.6c2.4-1.3,5.4-2.6,8.4-2.5c1.5,0,3,0,4.5,0C185.2,114.9,185.3,114.8,185.3,114.7z
		"/>
	<path d="M686,161.1c0.1-0.8,0.7-2.5,0.4-4c-0.3-1.6-0.4-2.8,0.3-4.5c0.6-1.4,0.7-3.3,1.3-5c0.3-0.9,0.4-2,1-2.5
		c2.3-1.8,2-4.6,2.8-6.9c1.6-4.5,2-5.9,5.1-8.2c0.2-0.2,0.8-0.1,0.8-0.3c1.9-4.8,6.5-6.1,10.4-8.4c3.4-2,6.7-3.8,10.6-4.6
		c4.1-0.9,8-3.4,12.4-2.6c4.6,0.9,9.4,1.1,13.6,3.3c1.6,0.9,3.8-0.5,4.9,1.6c4.9-0.2,8.2,2.7,10.9,6.1c1.9,2.4,4.4,4,6.4,6.2
		c2.2,2.4,3.6,5.1,4.2,8.3c0.3,1.6,0.9,3.4,1.9,4.7c1.6,2,2.3,4.2,2.1,6.7c-0.3,3.3,0.7,6.3,1.7,9.3c0.1,0.3,0.3,0.6,0.3,0.9
		c-1.2,5-0.3,10.3-3.4,15.1c-1.7,2.6-2.3,6.1-4.5,8.6c-0.8,1-1.4,2.2-2.4,3c-2.7,2.2-5.3,4.7-8.4,6.3c-4.1,2.1-8,4.8-12.1,6.9
		c-1.9,1-4,1.6-6.2,2c-1.6,0.3-3.3-0.1-5,0.1c-1.4,0.1-2.7,0.8-4.1,0.9c-3.6,0.4-6.9-0.9-10.2-2c-2.1-0.7-4.1-1.5-6.2-2
		c-2-0.4-3.5-1.4-4.8-2.8c-2.8-2.9-5.5-5.8-9.4-7.4c-1.9-0.8-2.1-3.3-4.1-4.3c-1.8-0.9-2.6-3-3.3-5c-0.8-2-2.4-3.7-3.4-5.6
		c-0.7-1.2-1-2.6-1.5-3.9c-0.2-0.6,0-1.4-0.4-1.8C685.6,167.1,686.1,164.4,686,161.1z"/>
	<path d="M159.7,391.3c-4.5-0.4-9.1-0.5-13.5-1.4c-3.8-0.7-7.3-2.7-10.2-5.5c-1.2-1.2-2.4-2.3-3.5-3.5c-1.5-1.7-3.3-2.9-5.4-4
		c-4.9-2.6-7.6-7.2-10-11.9c-0.2-0.4,0.2-1.3-0.1-1.4c-3.7-2.9-2.8-6.9-3-10.8c-0.1-1.4-0.7-2.7-0.9-4.1c-0.4-3.1,0.7-6,1.6-8.8
		c0.6-2.1,0.2-4.6,2.1-6.1c1.9-1.5,1.3-4.1,2.8-5.9c1.4-1.7,2.4-3.7,3.6-5.5c0.4-0.5,0.9-1.3,1.4-1.4c2.1-0.2,2.8-2.2,4.1-3.3
		c1.3-1,2.2-2.6,3.6-3.4c2.1-1.2,4.7-1.7,6.7-3c2-1.3,3.3-3.5,5.7-4.4c0.9-0.3,1.7-0.9,2.6-1c3.9,0,7.5-1.1,11.2-2
		c2.7-0.6,6.9,0.4,10.8,1.6c1.9,0.6,3.7,1.7,5.9,1.4c2.8-0.3,4.6,2.1,6.6,3.4c3,2,6,3.9,9.2,5.6c1.2,0.7,2.4,1.7,3.4,2.7
		c5,5.6,6.3,6.9,8.8,14.8c0,0.2-0.1,0.4,0,0.5c3.9,5.6,3.2,12,2.9,18.2c-0.2,3.3-0.7,6.9-3.2,9.6c-0.9,1-1.1,2.5-1.7,3.8
		c-1,2.5-2,4.9-4,6.9c-1.4,1.3-2.4,3-3.6,4.5c-4.3,5.3-10.2,7.9-16.4,9.8c-1.5,0.5-3,1-4.2,1.9c-2,1.4-4.1,2.3-6.6,2.2
		c-2.2,0-4.3,0-6.5,0C159.7,391.1,159.7,391.2,159.7,391.3z"/>
	<path d="M894.1,115c3.5-0.5,6.7,1,10.1,2.6c3.1,1.4,6.3,2.6,9.6,3.3c2.3,0.4,4.5,1.3,5.9,2.6c1.9,1.7,4.1,2.4,6.1,3.5
		c3.8,2.1,8.2,3.7,10.9,7.3c2.9,4,6.6,7.2,9.9,10.9c0.9,1,2.4,2.4,2.2,3.5c-0.3,2.5,1.2,4,2.3,5.6c1.7,2.6,3.3,5.2,4.1,8.3
		c0.7,2.5,3.3,4.1,3.8,6.9c0.1,0.7,1,1.4,0.9,2.1c-0.4,4.1,2.2,7.6,2.1,11.7c2.4,3.2,0.1,6-0.7,8.9c-1.3,4.8-5,7.4-9.6,8.9
		c-4.2,1.4-6.6,0.9-12.2,0.2c-4.5-0.5-9.2-1-13.7,0.4c-0.7,0.2-1.7,0.5-2.3,0.3c-5.8-1.9-11.7-0.7-17.6-0.9c-3.9-0.2-7.6-1.8-11.6-1
		c-1.5,0.3-3,0.8-4.6,1c-1.6,0.2-3.3,0.1-5,0c-5.1-0.1-10.6-5.5-10.8-10.5c-0.1-2.3-0.1-4.5,1.4-6.4c0.6-0.7,0.5-1.2,0.2-2.1
		c-1-2.9-2.9-5.7-0.7-9c0.4-0.6,0.1-2-0.3-2.8c-1-2.5-1-4.9,0-7.4c0.3-0.9,0.6-2.1,0.3-2.8c-1.6-3.3-0.9-7.1-2.7-10.4
		c-0.5-0.8-0.5-2.6,0.1-3.2c1.2-1.4,0.6-2.9,0.6-4.3c0.2-2.2,0.1-4.4,0.9-6.6c0.3-1,2.5-2.2,0.5-3.8c-0.4-0.4,0.4-2.2,0.7-3.4
		c0.4-1.3,0.5-2.9,1.3-4C881.2,117.5,885.4,114.8,894.1,115z"/>
	<path d="M164.1,774c-4.2,0.2-9.1-0.3-13.9-2c-3.2-1.2-6.7-1.7-8.2-5.5c-0.1-0.4-1.1-0.3-1.7-0.6c-3.4-1.6-7-2.8-9.6-5.8
		c-1.6-1.8-3.1-3.8-5.6-4.6c-2.9-4.3-7-7.8-8.8-12.8c-0.2-0.4-0.3-0.9-0.2-1.4c0.1-5.3-0.6-10.7,1.8-15.7c0.5-1.1,0-2.6,0.2-3.9
		c0.2-1.2,0.6-2.4,1-3.6c0.3-1.2,0.3-2.7,1.1-3.5c2.7-3,4.2-6.8,7.3-9.5c2.4-2.2,4.4-4.8,6.4-7.3c2.6-3.2,6.2-5.1,9.5-7.3
		c2.2-1.5,5.3-1.7,7.9-2.5c5-1.4,10.1-1.3,15.1-0.9c3.3,0.3,6.6,2.2,9.9,2.4c4.8,0.4,7.9,4.4,12.3,5.5c0.3,0.1,0.5,0.4,0.7,0.7
		c2.5,3.3,6.1,5.5,8.9,8.7c3.4,3.8,5.3,8.1,6.8,12.7c0.6,1.8,1.9,3.3,2.1,5.1c0.2,2-0.1,4,0.1,6c0.1,1,0.8,2,0.9,3.1
		c0.5,2.9,0.1,6.1-1.4,8.4c-1.5,2.4-1.8,5-2.4,7.5c-1.1,4.4-2.7,7.9-6.8,10.2c-1.8,1-3.2,2.9-4.3,4.7c-2.2,3.6-5.6,5.5-9.3,7
		c-1.3,0.5-2.8,0.8-3.8,1.6c-3.1,2.5-6.7,3.5-10.6,3.4C167.8,774,166.3,774,164.1,774z"/>
	<path d="M545.1,117c5.1-1,10.5,1.7,16,3.6c2.9,1,5.8,2.2,8.5,3.5c1.5,0.8,2.9,2,4.2,3.1c2.1,1.9,4.1,3.9,6,6c1,1.1,2.2,2.7,2.2,4
		c0,3.8,1.5,7.1,3.3,10.1c1.4,2.4,1.8,4.7,1.8,7.3c0,3.1,1.4,5.9,1.1,9.1c-0.3,2.9-1,5.5-2.1,8.2c-1,2.6-2,5.2-3,7.7
		c-0.2,0.6-0.5,1.2-0.9,1.6c-2.2,2.4-4.5,4.6-6.4,7.3c-2.5,3.8-6.9,4.8-10.8,6.3c-0.9,0.3-1.8,0.6-2.6,1c-3.7,1.9-7.7,2.7-11.8,2.9
		c-2.3,0.1-4.2,1.5-6.6,1.1c-2-0.3-4.1,0.4-6.1,0.7c-2.7,0.4-5.9,1.2-8.5-0.8c-4.1,0.4-7.9-1.2-11-3.4c-3.1-2.2-7.2-2.9-9.5-6.2
		c-2.8-0.7-3.7-3.1-4.9-5.4c-1.1-2.2-2.5-4.1-3.2-6.7c-1-3.7-2.3-7.4-3.1-11.2c-0.2-0.9-0.6-1.8-0.6-2.7c-0.3-9.8-0.1-10.8,3.2-20.1
		c1.5-4.2,3.5-8.1,7-11.1c2.6-2.3,4.9-5,7.5-7.4c1.1-1.1,2.5-2.5,3.8-2.7c2.2-0.2,3.9-1.3,5.6-2.2c3.3-1.7,6.5-2.8,10.3-3.2
		C537.6,117.4,540.8,117.1,545.1,117z"/>
	<path d="M202.1,540.8c-0.2,5.5,0.6,9.8-1.9,13.6c0.6,5.8-3.8,9.5-6.2,13.9c-0.8,1.5-2.7,2.8-4.4,3.5c-2.3,1.1-4,2.6-5.5,4.6
		c-2.8,3.5-7,4.9-11.2,5.4c-2.4,0.3-4.6,1.1-6.9,1.6c-2.3,0.6-4.6,1.4-6.9,1.3c-1.4-0.1-3-0.7-4.6-0.9c-2.8-0.4-5.5-1.2-8.2-1.9
		c-0.4-0.1-0.9-0.2-1.3-0.5c-3.4-2.3-7-4.2-10.3-6.5c-3.2-2.2-5.5-5.6-8.8-7.7c-0.6-0.3-0.9-1-1.4-1.4c-2.4-2.1-2.5-5.3-3.8-7.9
		c-1.2-2.5-4-4.2-3.7-7.5c0.1-1.6-1.3-2.8-1.1-4.6c0.2-1.5,0.7-3.3-0.9-4.6c1.8-2.6,0.9-5.1,0-7.7c-0.3-1.1,0.2-2.5,0.4-3.8
		c0.4-2,1.5-3.7,1.5-5.9c0-1,0.7-2,1.3-2.9c0.7-1.2,1.9-2.2,2.4-3.5c0.7-2,2-3,3.8-3.9c1.4-0.7,3.7-0.9,3.5-3.4
		c3-2.8,5.6-6.3,9.9-7.4c1.3-0.3,2.4-1.4,3.6-2.1c3.7-2,9.4-3.7,12.9-3.9c0.5,0,1.2,0.2,1.5,0c2.3-1.9,4.5-0.5,6.7,0
		c4.5,1,9.2,1.5,13.3,4c2.3,1.4,4.6,2.6,6.7,4.3c3.4,2.8,6.9,5.5,9.8,8.9c2.9,3.4,5,7.5,7.5,11.3
		C200.4,531.1,203.4,536.4,202.1,540.8z"/>
</g>
</svg>
