<?xml version="1.0" encoding="utf-8"?>
<!-- Generator: Adobe Illustrator 25.4.1, SVG Export Plug-In . SVG Version: 6.00 Build 0)  -->
<svg version="1.1" id="Layer_1" xmlns="http://www.w3.org/2000/svg" xmlns:xlink="http://www.w3.org/1999/xlink" x="0px" y="0px"
	 viewBox="0 0 1080 1080" style="enable-background:new 0 0 1080 1080;" xml:space="preserve">
<style type="text/css">
	.st0{fill:transparent;}
</style>
<g>
	<path class="st0" d="M0,1080C0,720,0,360,0,0c360,0,720,0,1080,0c0,360,0,720,0,1080C720,1080,360,1080,0,1080z M835.3,937.9
		c-0.6-3.7-0.7-6.8-1.6-9.6c-1.4-4.3-3.2-8.4-5.9-12c-1.5-2-3.2-4-4.7-6.1c-2.1-2.9-4.1-5.7-7.9-6.6c-1.3-0.3-2.3-1.6-3.5-2.4
		c-1.8-1.3-3-3.2-5.2-4.4c-3.1-1.7-4.6-5.5-8.1-7c-0.5-0.2-0.6-1.5-1.1-2c-1.7-1.6-2.2-4-4.8-5.1c-2.1-1-3.4-3.8-5-5.7
		c-0.2-0.3-0.4-0.5-0.7-0.7c-4.1-2.2-7.4-5.5-11-8.2c-5.6-4.3-9.5-10.5-15.6-14.4c-3.4-6.4-10.1-9.6-14.8-14.8
		c-1.4-1.5-3.7-2.3-4.8-4c-3.6-5.5-7.2-10.8-12.7-14.6c-0.7-0.5-1.2-1.5-1.8-2.2c-1.2-1.7-2-3.9-3.6-4.9c-3.4-1.9-5.7-4.8-8.3-7.5
		c-1.1-1.2-2.3-2.1-3.7-3c-1.1-0.7-2.7-1.3-3.4-2.9c-0.7-1.4-2.1-2.6-3.3-3.6c-1.5-1.2-3.3-1.9-4.6-3.2c-1.4-1.4-2.2-3.3-3.4-4.8
		c-1.7-2.2-3.7-4.1-5.2-6.3c-3.5-5.2-8-9.5-13.1-12.9c-3.1-2.1-5.6-5.2-9.3-6.5c-2.3-0.8-4.2-2.2-5.6-4.4c-1.2-1.9-3-3.7-4.9-4.9
		c-3.3-2-5.4-4.8-7.4-7.9c-1.5-2.4-3.8-4.4-6.1-6.1c-2.4-1.8-9.9-7.8-11.6-10.4c-1.1-1.7-2.5-3.2-4.2-4.1c-3-1.5-5.3-4-7.2-6.5
		c-1.8-2.4-3.8-4.4-5.8-6.6c-1.3-1.4-2.4-3-3.5-4.5c-3.1-4.4-3.1-4.4-8-7c-2.7-1.4-5.2-3.1-7.3-5.3c-2-2-3.8-4.3-6.1-5.9
		c-2-1.4-3.2-3.1-4.2-5.2c-0.6-1.3-1.8-2.3-2.4-3.5c-0.6-1.2-2.4-0.5-2.7-2.3c-0.2-1-2-2-3.2-2.5c-1.3-0.5-2.1-0.9-2.7-2.4
		c-0.6-1.4-1.9-3-3.3-3.5c-1.8-0.7-2.8-2.1-4.1-3.3c-2.3-2.2-4.4-4.6-6.8-6.7c-1.5-1.3-3.3-2.8-5.1-3.1c-2.3-0.4-4.2-0.8-6.2-2.1
		c-1.2-0.8-2.8-1.1-4.5-1.2c-4.1-0.1-8.1,0.7-12.1,1c-5,0.4-9.2,1.9-12.8,5.5c-3.4,3.5-6.8,7.1-10.8,10c-2.8,2-5.2,4.4-7.8,6.7
		c-0.3,0.2-0.4,0.5-0.7,0.7c-5.7,3.5-9.7,8.8-14.3,13.5c-3,3.1-4.6,7.5-9.1,9c-0.6,0.2-1,0.9-1.4,1.4c-1.3,1.6-2.5,3.4-3.9,4.8
		c-1.5,1.5-3.2,2.6-4.8,3.9c-0.4,0.3-0.8,0.7-1,1.1c-1.5,3-3.8,5-6.7,6.7c-4,2.4-4.9,3.3-7.3,7.3c-2.3,3.9-5.7,6.6-9.1,9.4
		c-1.6,1.3-3.8,2.5-4.6,4.3c-2.2,4.5-7,6.1-10,9.7c-3.9,1-5.9,4.4-8.6,6.9c-0.5,0.5-0.6,1.7-1.1,2c-3.3,1.4-4.8,5-7.7,6.7
		c-3.1,1.8-5,4.7-7.7,6.8c-1,0.8-2,1.5-3.1,2.1c-2.5,1.3-4.7,3.1-6,5.5c-0.7,1.3-1.5,1.8-2.7,2.3c-3.3,1.5-5.6,4.2-7.4,7.3
		c-0.4,0.7-0.6,1.5-1.1,2c-5.5,5.9-11,11.8-16.6,17.6c-3.2,3.4-6.6,6.6-9.9,9.9c-0.8,0.8-2,1.5-2.3,2.5c-0.9,2.5-2.9,4.2-4.8,5.4
		c-2.6,1.6-4.1,3.9-5.8,6.1c-0.6,0.8-1.1,1.5-2,2.2c-2.7,2.1-5.4,4.6-7.3,7.4c-1.8,2.6-3.9,4.7-6.5,6.2c-2.4,1.4-5,2.4-6.3,5.3
		c-0.4,1-1,2-1.8,2.7c-0.8,0.8-1.8,1.2-2.7,1.8c-3.1,1.8-6.3,3.6-8.3,6.4c-2.1,3.1-5.8,4.5-7.8,7.7c-0.4,0.6-0.8,1.3-1.1,2.1
		c-1.3,3.2-3.4,5.8-6,8c-2.6,2.2-5.1,4.5-7.7,6.7c-0.2,0.2-0.5,0.3-0.8,0.5c-5.5,2.3-8.9,7.2-12.7,11.3c-3.2,3.4-5.7,7.4-8.9,10.7
		c-0.9,0.9-1.6,2-2.5,3c-0.8,0.8-2.1,1.4-2.7,2.3c-1.9,2.7-4,5.3-5.1,8.4c-1.2,3.3-1.6,7-2.1,10.6c-0.1,1.1,0.9,2.4,0.9,3.6
		c-0.1,2.5,0.5,4.6,2,6.7c1.4,2,2.5,4.3,3.6,6.5c1.7,3.2,4.1,5.7,7.4,7.4c1.1,0.6,2.1,1.4,3.1,2.1c4.3,3,8.8,5.5,14.2,5.4
		c1.3,0,2.7-0.2,4,0c5.9,1.1,5.9,1.1,11.2,0c1.7-0.3,3.8-0.3,5.3,0.4c1.8,0.9,3.9,1,5.2,0.4c2.8-1.3,5.5-0.6,8.2-0.8
		c3.7-0.4,7.5,0.8,11.1-1c0.4-0.2,1.1-0.2,1.5,0c3.4,1.7,7.1,0.7,10.6,1c1.4,0.1,2.8-0.4,4.2,0.8c0.8,0.7,2.6-0.1,3.9,0.3
		c1,0.3,1.6,1.6,2.9,0.2c1.3-1.5,2,1.4,3.4,0.7c1.1-0.5,2.4-0.9,3.6-1c2-0.2,4,0,6-0.1c1.9,0,3.8,0.4,5.5-0.8
		c1.7,1.5,3.8,0.4,5.7,0.8c0.8,0.1,1.7,0.8,2.4,0.6c4.4-1.3,8.9-0.9,13.2-0.4c4,0.5,7.8,1.4,11.7-0.2c1-0.4,2.7-0.5,3.4,0
		c2,1.5,4.1,0.7,6.2,0.9c1.3,0.1,2.7,0.1,4,0c1.3-0.1,2.9,0.1,3.7-0.7c1.7-1.5,2.1,0.9,3.5,0.8c3.6-0.4,7.3,0,11-0.2
		c3.5-0.2,7.2,0.9,10.6-0.9c0.6-0.3,1.7-0.2,2.4,0c3.8,0.9,3.8,0.9,7.8,0.1c0.4-0.1,1.1-0.2,1.3,0c1.2,1.4,2.8,0.8,4.2,0.7
		c2.7-0.1,5.4-0.8,8.1-0.9c5-0.2,10-0.1,15,0c5,0.1,10.1-0.6,15.1,0.9c1.4,0.4,3,0.2,4.5,0c1.5-0.2,3-0.8,4.6-0.9
		c1.8-0.2,3.7,0,5.5,0c1.7,0,4-0.6,4.8,0.2c2,2,3.2-1.1,4.8-0.2c0.4,0.2,1,0,1.4,0.2c2.4,1.6,5.5,1.3,7.6,0.6c3-1.1,5.8-0.8,8.7-0.6
		c1.4,0.1,3,0.9,4.6,0.9c9.3,0,18.7,0,28,0c1,0,2.2,0.3,3-0.1c4.4-2.1,9.1-0.4,13.6-0.9c1-0.1,2.1,1.9,3.2,0.1c6.8,0,13.6,0,20.4,0
		c2.4,1.6,5.2,0.8,7.6,0.6c1-0.1,2.3-0.7,3.6-0.8c1.4-0.2,3,0.6,4.2-0.6c1.5-1.5,2,1,3.5,0.8c5.5-0.7,11.1,0.9,16.6-1.1
		c0.9-0.3,2.3-0.5,2.9,0c2.3,2,5.5-0.2,7.8,1.9c0.3,0.3,1.4,0.1,1.8-0.2c2.1-1.5,4.8-1.2,6.6-0.5c1.8,0.7,3.5,0.7,5.2,0.7
		c5.5,0.1,11,0.1,16.5,0c5.4-0.1,10.7,0,16.1-0.7c4.9-0.7,10.1-1.2,15.1,0.7c1.3,0.5,3,0.1,4.5,0.1c1.5,0,3,0,4.5,0
		c1.4,0,2.7-0.7,4.2-0.1c1.3,0.5,3,0.3,4.5,0.1c1.2-0.2,2.1-1.2,3.6-1c3.5,0.5,7.2-0.8,10.6,1c0.6,0.3,1.9,0.4,2.4,0
		c2.8-2,5.8-0.6,8.6-0.9c3-0.2,6.1-0.7,9,0.1c5.5,1.4,11,2.1,16.7,1.9c1.7-0.1,3.6,0.4,5.1-1c1.6,1,3.3,1.2,5.1,1
		c1.9-0.2,3.7-0.8,5.6-0.9c3.5-0.3,6.9-0.9,10.1-2.2c2.4-0.9,5.2-1.2,7.2-3.2c1.6-1.6,3.1-3.3,5.2-4.3c0.9-0.4,1.3-1.7,2-2.6
		c2.2-3.1,2.7-6.9,4-10.4C833.9,942.7,834.6,940,835.3,937.9z M628.6,114c-2.2-3-5.5-2.3-8.4-1.6c-5.6,1.5-5.7,1.9-8.9,0.5
		c-2.1-0.9-4.1-0.7-6.1-1c-1.7-0.2-3.5,1.5-4.5,0.9c-1.6-1.1-3.1-0.7-4.7-0.8c-0.8-0.1-1.9,0.3-2.5-0.1c-3.5-2.3-6.3-0.2-9.2,1.2
		c-0.8,0.4-1.8,0.8-2.7,0.8c-1-0.1-2.1-0.9-3.1-0.9c-1.2,0-2.4,0.8-3.6,0.9c-1.1,0.1-2.3,0.4-3.2-0.6c-0.3-0.4-1.3-0.5-1.8-0.3
		c-4.1,1.6-8.1,1.2-12.2,0c-1.1-0.3-2.5,0.3-3.8,0.5c-1.8,0.2-4,1-5.2,0.3c-2.2-1.3-3.8-0.7-5.8,0.1c-2.1,0.9-4-1.1-6.1-0.9
		c-0.2,0-0.3,0-0.5,0.1c-3.1,1.9-6.2,1.2-9.1-0.4c-1.3-0.7-2.2-0.4-3.5-0.2c-3.5,0.5-6.9,1.9-10.4,1.4c-2.6-0.3-5.1-0.8-7.7,0
		c-0.8,0.3-1.8-0.4-2.8-0.4c-2.6-0.2-5.3-0.9-7.6-0.2c-2.7,0.9-5.5,1.1-7.6,0.4c-2.3-0.8-4.7-1.1-6.6-0.6c-1.8,0.5-3.3-0.1-4.6-0.5
		c-1.1-0.3-1.6-0.7-2.9,0c-2.2,1.1-4.6,2.5-7.1,0.3c-0.5-0.4-1.7-0.3-2.4,0c-3.3,1.3-6.5,1.7-9.7,0c-0.3-0.1-0.9,0.2-1.3,0.4
		c-2.3,0.9-4.7,0.8-7.1,0.1c-0.6-0.2-1.3-0.6-1.8-0.5c-4.6,1.9-9.4,0.5-14.1,0.9c-4.5,0.4-9.1-0.9-13.6,1c-0.9,0.3-2,0.2-3,0
		c-5-1-5-1-10.2,0c-1.1,0.2-2.6,0.5-3.4-0.1c-2.3-1.4-4.8-0.8-7.1-0.9c-5-0.1-10,0-15-0.1c-3.5-0.1-7.2,0.9-10.2-1.8
		c-0.4-0.3-1.3-0.1-1.9-0.1c-4.2,0-8.3,0-12.5,0c-0.8,0-1.9,0.1-2.2,0.6c-1,1.6-1.9,0.7-3.1,0.4c-1.7-0.5-3.4,0.6-5.1,0.8
		c-1.8,0.3-3.7-0.6-5.6-0.8c-0.4-0.1-0.8,0.5-1.3,0.5c-4.2,0.1-8.5,0.5-12.7,0c-1.5-0.2-2.6-0.8-3.8,0.4c-1.6-1.1-2.7,2-4.4,0.6
		c-3.2-2.7-7.4-2.9-11-3.4c-6-0.7-12.2-0.7-18,2.1c-3.6,1.7-7.6,3-11.5,3.5c-6,0.8-10,3.7-13.7,8.4c-3.7,4.7-4.1,10.8-7.9,15.3
		c0.5,1.4-0.8,2.4-1,3.6c-1,7.6,2.2,14,6.5,19.8c2.8,3.8,6.3,7.1,9.5,10.6c0.4,0.5,0.8,1,1,1.6c1.5,3.4,3.5,6.4,6.4,8.9
		c0.6,0.5,1.1,1.2,1.6,1.8c1.4,1.6,2.4,3.7,4.1,4.7c2.7,1.5,4.4,3.9,6.6,5.8c2.2,1.9,4.6,3.6,6.6,5.7c3.4,3.5,6.7,7.2,9.9,10.9
		c1.3,1.5,3.1,2.4,4.3,4.1c2.5,3.4,5.5,6.4,8.4,9.5c2.6,2.8,5.2,5.7,8.2,8.1c3,2.4,6.3,4.3,9.1,7c1,1,3.1,1.7,3.6,3
		c0.5,1.6,1.7,2.4,2.7,3.4c3.5,3.3,5.9,7.6,10.1,10.3c0.8,0.5,1.7,1.3,2.1,2.1c1.6,3.1,4,5.3,7,7.1c1.5,0.9,2.5,2.8,4,3.6
		c1.8,0.9,3.7,2.3,4.1,3.9c0.5,2.1,2.6,1.8,3.4,3.6c0.8,1.9,3.2,2.9,5.3,3.7c0.9,0.3,1.8,0.8,2.4,1.4c1.1,1.1,1.8,2.7,3,3.5
		c1.4,1,1.8,2.3,2.3,3.7c0.2,0.4,0.6,0.8,1,1.1c3.5,2.1,5.8,5.6,9.4,7.5c1.1,0.6,2.3,1.2,3.1,2.1c0.9,1.2,1.5,2.7,2.2,4.1
		c2.2,4.4,6.7,6.4,10,9.6c3.2,3.1,6.9,5.8,10.3,8.7c0.4,0.3,0.6,0.7,0.8,1.1c1.3,2.3,3.2,3.8,5.4,5.3c2.8,1.8,6.1,3.5,7.5,6.7
		c1.8,4,4.8,6.6,8.3,9.1c1,0.7,3.1,0.6,2.8,2.7c2.7,3,5.3,6.2,8.2,9.1c1.7,1.7,3.7,3.1,5.6,4.6c2.2,1.9,4.4,3.8,6.7,5.6
		c0.8,0.7,2,1,2.7,1.8c6.4,6.5,13.2,12.6,20.3,18.4c5.5,4.5,10.4,9.6,15.5,14.4c1.9,1.8,3.5,3.8,6.1,4.5c0.7,0.2,1.3,1.3,1.9,2
		c1,1.1,1.7,2.6,2.9,3.2c3,1.6,4.9,4.3,7.3,6.4c0.9,0.8,1.6,1.7,2.6,2.3c6.8,4.3,14.4,2.8,21.7,3c0.2,0,0.4-0.5,0.7-0.7
		c1.7-0.7,3.4-1.9,5.1-2c2.6-0.2,4.4-1.9,6.1-3.4c6.2-5.5,12.1-11.2,18-16.9c1.4-1.3,2.7-2.6,3.8-4.4c0.7-1.3,3.2-1.5,4.9-2.2
		c0.6-0.2,1.2-0.4,1.7-0.7c3.6-2.9,7.3-5.8,10.8-8.8c3.8-3.4,7.3-7,11.2-10.3c6.8-5.8,12.3-12.8,19.4-18.4c2.3-1.8,4.5-3.5,6.9-5.2
		c2.4-1.6,4.7-3.4,6.7-5.4c2-1.9,3.5-4.2,5.4-6.2c1.8-2,3.8-3.7,5.6-5.7c1.8-1.9,3.3-4,5.2-5.8c1.8-1.8,3.8-3.4,5.7-5.1
		c2.4-2.1,4.2-4.9,7.6-5.8c0.8-0.2,1.5-1.3,2.2-2c2.2-2.2,4.2-4.9,6.8-6.6c2.6-1.7,4.1-4.3,6.2-6.4c1.1-1.1,1.7-3.1,2.9-3.7
		c1.8-0.8,2.9-2.1,4.1-3.4c1.1-1.1,1.7-3.1,2.9-3.7c1.8-0.8,2.8-2.2,4.1-3.3c5.7-5.3,11.3-10.6,16.9-15.9c0.2-0.2,0.4-0.6,0.7-0.7
		c5.3-2.4,7.9-7.6,11.5-11.7c4.7-5.4,5.4-6.7,10.4-9.6c0.5-0.3,1.1-0.7,1.5-1.1c4.1-4.4,8.3-8.9,12.4-13.4c-0.6-2.2,1.9-1.2,2.5-2.4
		c0.7-1.3,2.6-2,3-3.3c0.5-1.7,2-1.7,2.9-2.7c1-1.1,2-2.4,3.2-3.1c3.2-1.9,6.1-4.1,8.7-6.8c1.6-1.6,3.5-2.9,4.2-5.2
		c2.9-0.6,4-3.3,5.9-5c1.9-1.7,4.1-3.3,5-5.9c0.2-0.5,0.9-0.9,1.5-1.1c3.1-1.4,5.5-3.5,7.3-6.6c1.8-3.1,5.4-4.7,7-8.1
		c0.9-1.8,2.4-3.4,3.9-4.9c1.5-1.5,3.2-2.6,4.8-3.9c1.6-1.3,3-2.8,4.8-4c2.4-1.5,4.3-3.8,5.3-6.7c1.2-3.5,2.5-7,4-10.3
		c1.1-2.3,0.2-5,1.1-7.1c1.5-3.7,0.8-7.2-0.2-10.7c-0.6-2.1-1-4.2-1.8-6.2c-2.5-6.5-7.6-10.5-13.4-13c-5-2.1-10.3-4.2-16.1-3.5
		c-3.1,0.4-6.3,0.1-9.5,0.1c-1,0-2.1,0.2-2.9-0.3c-2-1.3-4.5-1.2-6.2-0.5c-3.1,1.2-6.1,0.8-9.1,0.8c-12.2,0.1-24.3,0.1-36.5,0
		c-1.7,0-3.4,0.2-5.2-0.8c-1.4-0.7-3.8-0.8-5.6,0.5c-0.6,0.4-1.9,0.2-2.6-0.2c-0.8-0.5-1.3-0.3-2.1,0c-1.5,0.5-3.5,1-4.7,0.4
		c-3.2-1.5-6.4-0.6-9.6-0.9c-1.7-0.1-3.3,0-5,0s-3.3,0-5,0s-3.3,0-5,0s-3.9,0.7-4.9-0.1c-1.8-1.5-2.9,1.2-4.3,0.2
		c-0.3-0.2-1,0.1-1.5-0.1c-3.2-1.5-6.4-1.4-9.7-0.1c-0.9,0.4-2.2-0.3-3.2-0.5c-0.6-0.1-1.4-0.6-1.8-0.4c-2.9,1.4-5.8-0.3-8.7-0.1
		c-3.1,0.2-6.3,0.1-9.5,0c-2.9,0-5.9,0.5-8.3-1.7c-0.3-0.3-1-0.3-1.4-0.2C633.2,112.6,631.2,113.2,628.6,114z M420.7,509
		c-2.8,0.2-5.3,0-7.9,0.8c-2,0.6-3.7,1.5-5.6,2.1c-4.2,1.4-5.7,2-8.1,4.5c-1.7,1.6-3.1,3.6-5,4.8c-1.5,1-2.3,2.2-3.1,3.7
		c-2.1,3.7-2.6,7.7-2.9,11.8c-0.2,2.1,0.1,4.3-0.1,6.5c-0.4,7.5,3.3,13.3,7.6,18.8c2.7,3.5,6.3,5.9,10.4,7.4c4.8,1.7,9.5,4,15,3.7
		c2.2-0.1,4.1-0.8,6.1-1.2c4.7-0.9,8.8-3.4,12.2-6.7c0.9-0.9,1.4-2.1,2.2-3.1c5-5.9,8.8-15.4,7.6-23c-0.5-3-0.6-6.1-1.1-9.1
		c-0.2-1-0.8-2-1.3-2.9c-0.8-1.5-1.4-3.3-2.7-4.3c-1.5-1.2-2.5-2.5-3.7-3.9c-1.7-2.1-4.2-3.5-6.2-5.4c-1.9-1.8-4-2.8-6.4-3.8
		C425.1,508.7,422.8,509.6,420.7,509z M786.5,506c-2.2,0-3.5,0-4.8,0c-3.2-0.1-6,0.7-8.2,3.1c-0.5,0.5-1.4,0.7-2,1.1
		c-3.4,2-6.2,4.6-8.1,8.1c-0.3,0.5-0.3,1.3-0.7,1.7c-5.4,5.1-6.3,7-6.6,13.7c0,0.7,0.1,1.3-0.1,2c-1.3,5.3-1.3,5.3,0.1,9.7
		c1,3.1,2.2,6.2,4.4,8.6c3.4,3.6,7,7.2,10.6,10.6c2.4,2.3,5.5,3.6,8.6,4.5c2.1,0.6,4.5,0.4,6.5,1.1c5.9,2.2,10.9,0.8,15.4-3.1
		c0.5-0.4,1.1-0.6,1.6-0.9c2.6-1.6,4.7-3.6,6.4-6.1c0.8-1.2,1.9-2.2,2.4-3.5c0.8-1.9,2.5-3.1,3.1-5.2c0.7-2.2,0.3-4.5,1-6.6
		c0.7-2.4,1.4-4.9,0.7-7.1c-0.8-2.6-0.3-5.2-1-7.6c-0.7-2.3-1.1-4.9-3.1-6.7c-1.5-1.4-2.8-3.1-3.9-4.9c-1.7-2.9-4-5.2-6.5-7.2
		c-1.6-1.3-3.5-2.4-5.6-3.3C793.1,506.3,789.5,505.8,786.5,506z M541.9,505.7c-4.2-0.4-7.9,0.7-11.4,3.2c-1,0.7-2.4,0.7-3.5,1.1
		c-3.5,1.3-6.6,3.3-8.8,6.3c-1.5,2.1-2.6,4.6-3.9,6.8c-2.1,3.7-3.1,7.7-4.2,11.7c-0.6,2.1,0.2,4.4,0.7,6.6c0.6,2.5,1.7,4.8,2,7.1
		c0.3,3,1.8,5,3.2,7.2c1.2,1.8,1.9,3.9,3.2,5.7c2.1,2.9,5.5,4.1,8.6,5.8c4.3,2.4,9.1,0.9,13.4,2.6c0.1,0,0.4,0,0.4-0.1
		c0.9-1.4,2.4-0.7,3.6-0.9c1.2-0.2,2.4-0.7,3.6-1c6.7-1.2,12.2-4.7,16.4-9.8c3.7-4.6,5.4-10.2,5.8-16c0.1-1.7-0.6-3.4-0.9-5.1
		c-0.3-1.9-0.9-3.7-0.9-5.6c-0.1-2.1-0.6-4.1-0.9-6.1c-0.4-2.8-1.7-5.2-3.4-7.1c-3.3-3.6-7.1-6.7-10.8-9.9c-0.8-0.7-1.9-1.2-2.9-1.4
		C548,506.5,544.9,506.1,541.9,505.7z M144,543.3c-0.8,5,2.4,9.1,5.1,13c2.6,3.7,6.1,6.8,10,9.3c2,1.2,4,2.3,6.1,3.4
		c4.5-1,8.9,1.7,13.7,0.2c2.8-0.9,5.6-1.6,8.3-2.8c2.2-1,3.3-3.2,5.2-4.2c5.2-2.9,7.6-7.7,9.6-13c1.1-3,1.8-5.9,2.2-9.1
		c0.3-2.2,1.1-4.1-0.2-6.2c-0.1-0.2-0.1-0.7,0-1c0.6-3.4-0.6-6.3-2.5-8.9c-0.6-0.7-1.1-1.6-1.4-2.4c-1.3-3.2-4.2-5.1-6.1-7.9
		c-1-1.5-2.8-2.7-4.5-3.5c-1.8-0.9-3.8-1.5-5.7-1.8c-2.8-0.4-5.8-2.4-8.4-1.2c-2.8,1.3-5.7,0.2-8.4,1.3c-1.4,0.6-3.3,0.2-4.6,0.8
		c-4.1,1.8-7.9,4.1-10.8,7.7c-1.2,1.5-2.4,3-3.5,4.5c-1.1,1.7-1.9,3.6-3.2,5.1c-1.6,1.9,0.1,4.4-1.6,6.4c-0.7,0.8-0.6,2.8,0,3.8
		C144.1,538.9,144,540.9,144,543.3z M692,537.5c-0.1-4.3,0.6-9.1-2-13.3c0.4-3.3-1.8-5.3-3.8-7.5c-2.6-2.7-6-4.4-8.7-6.8
		c-4.1-3.7-9.1-4.9-13.9-3.7c-5.3,1.4-11.3,1.8-15.2,6.7c-0.5,0.6-1.7,0.6-2.5,1.1c-1.7,1.1-4.1,2-4.8,3.6c-2,4.5-6.8,7.1-7.7,12.3
		c-0.3,1.5-2.6,6.4-2.4,7.5c0.7,2.7,0.3,5.7,2.7,7.9c0.6,0.6,0.8,1.6,1.3,2.5c3.1,6.1,5.9,12.5,12.8,15.5c0.3,0.1,0.5,0.4,0.7,0.7
		c3.2,4.5,8.5,4.8,13.1,5.8c5,1.1,10.1-0.5,14.7-2.8c1.7-0.8,3.2-1.9,4.8-3c3.2-2.3,6.6-4.8,7.8-8.5c1.8-5.4,4.2-10.7,3.2-16.7
		C692,538.5,692,538.1,692,537.5z M910.1,571c1.3,0,2.3,0,3.3,0c6.5-0.1,11.9-2.7,16.4-7.4c0.9-0.9,1.3-2.2,2.2-3.1
		c4.2-4.3,5.5-10,8.1-15.2c0.9-1.9,1.1-3.7,0.9-5.6c-0.2-2-1.4-3.9-0.9-6.1c-2.2-4.1-3.6-8.5-6.2-12.4c-0.8-1.2-1.4-2.6-2.5-3.4
		c-2.4-1.8-5-3.2-7.4-4.9c-3.9-2.6-8.5-3.3-12.9-3.9c-4.1-0.6-8.4-0.8-12.1,1.9c-0.9,0.7-1.8,1.3-2.7,2c-3.2,2.5-7.3,3.6-10.4,6.5
		c-1.8,1.6-2.7,3.5-4.1,5.3c-1.7,2.1-1.7,4.4-1.7,6.8c0,1.7,0,3.4-0.8,5.2c-0.7,1.4-0.9,3.9,0.6,5.6c-0.1,4,2.2,7.4,3.4,11.1
		c1,3,3.1,5.8,5.2,8.3c3.4,4.1,8.5,5.8,13,8.3C904.2,571.5,907.4,570.9,910.1,571z M293.5,571.2c2.1-0.2,4.3,0,6.3-0.6
		c6.1-1.7,9.3-3.9,13.8-8.7c6.9-7.4,9.3-16.5,10.4-26.2c0.1-0.7,0.2-1.4,0-2c-1.7-4.1-2.4-8.6-4.9-12.5c-1.5-2.3-2.6-4.9-4.9-6.4
		c-3.2-2.1-6.5-4.2-10.1-5.9c-2.9-1.3-5.7-0.7-8.6-0.9c-2.4-0.2-4.7,0.2-6.8,1.7c-2.4,1.7-5,3.3-7.7,4.2c-3.5,1.1-6.9,2.5-8.6,5.5
		c-1.8,3-3.7,6.1-4.3,9.7c-0.2,1.2-0.8,2.4-0.9,3.6c-0.2,1.3,0.1,2.7-0.2,3.9c-1.2,4.9-1.1,7.2,0.1,11.7c1.7,5.9,4.2,11.3,9.1,15.2
		c1.7,1.3,3.4,2.6,5.5,3.5c2,0.8,3.6,2.7,5.6,3.5C289.1,571.2,291.4,571,293.5,571.2z"/>
	<path d="M835.3,937.9c-0.7,2.2-1.4,4.9-2.3,7.5c-1.2,3.5-1.7,7.3-4,10.4c-0.6,0.9-1.1,2.2-2,2.6c-2.1,1.1-3.6,2.7-5.2,4.3
		c-2,2.1-4.8,2.3-7.2,3.2c-3.2,1.2-6.6,1.9-10.1,2.2c-1.9,0.1-3.7,0.7-5.6,0.9c-1.8,0.2-3.5,0.1-5.1-1c-1.5,1.4-3.3,0.9-5.1,1
		c-5.7,0.2-11.2-0.4-16.7-1.9c-2.8-0.7-6-0.3-9-0.1c-2.9,0.2-5.9-1.1-8.6,0.9c-0.6,0.4-1.8,0.4-2.4,0c-3.4-1.8-7.1-0.5-10.6-1
		c-1.5-0.2-2.4,0.8-3.6,1c-1.5,0.2-3.1,0.4-4.5-0.1c-1.6-0.6-2.8,0.2-4.2,0.1c-1.5,0-3,0-4.5,0c-1.5,0-3.2,0.4-4.5-0.1
		c-5-1.9-10.2-1.3-15.1-0.7c-5.4,0.7-10.7,0.6-16.1,0.7c-5.5,0.1-11,0.1-16.5,0c-1.7,0-3.3,0-5.2-0.7c-1.8-0.7-4.5-1-6.6,0.5
		c-0.5,0.3-1.5,0.5-1.8,0.2c-2.3-2.1-5.5,0.1-7.8-1.9c-0.6-0.5-2-0.3-2.9,0c-5.5,1.9-11.1,0.3-16.6,1.1c-1.5,0.2-2-2.3-3.5-0.8
		c-1.2,1.3-2.8,0.5-4.2,0.6c-1.3,0.1-2.6,0.7-3.6,0.8c-2.5,0.2-5.2,1-7.6-0.6c-6.8,0-13.6,0-20.4,0c-1.2,1.8-2.2-0.2-3.2-0.1
		c-4.5,0.5-9.2-1.3-13.6,0.9c-0.8,0.4-2,0.1-3,0.1c-9.3,0-18.7,0-28,0c-1.6,0-3.2-0.8-4.6-0.9c-2.8-0.1-5.7-0.5-8.7,0.6
		c-2.1,0.8-5.2,1-7.6-0.6c-0.4-0.2-1,0-1.4-0.2c-1.6-0.9-2.8,2.3-4.8,0.2c-0.8-0.8-3.2-0.2-4.8-0.2c-1.8,0-3.7-0.1-5.5,0
		c-1.5,0.1-3,0.8-4.6,0.9c-1.5,0.2-3.1,0.4-4.5,0c-5-1.5-10.1-0.8-15.1-0.9c-5-0.1-10-0.1-15,0c-2.7,0.1-5.4,0.8-8.1,0.9
		c-1.4,0.1-3,0.7-4.2-0.7c-0.2-0.2-0.9-0.1-1.3,0c-3.9,0.9-3.9,0.8-7.8-0.1c-0.8-0.2-1.8-0.4-2.4,0c-3.4,1.8-7.1,0.7-10.6,0.9
		c-3.7,0.2-7.4-0.2-11,0.2c-1.4,0.1-1.8-2.3-3.5-0.8c-0.8,0.7-2.4,0.6-3.7,0.7c-1.3,0.1-2.7,0.1-4,0c-2-0.2-4.2,0.6-6.2-0.9
		c-0.8-0.6-2.4-0.4-3.4,0c-3.9,1.5-7.7,0.7-11.7,0.2c-4.3-0.6-8.8-0.9-13.2,0.4c-0.7,0.2-1.6-0.4-2.4-0.6c-1.9-0.3-3.9,0.7-5.7-0.8
		c-1.7,1.1-3.6,0.7-5.5,0.8c-2,0-4-0.1-6,0.1c-1.2,0.1-2.5,0.5-3.6,1c-1.4,0.7-2.1-2.2-3.4-0.7c-1.3,1.4-1.9,0.1-2.9-0.2
		c-1.2-0.4-3,0.4-3.9-0.3c-1.4-1.2-2.8-0.7-4.2-0.8c-3.5-0.3-7.2,0.7-10.6-1c-0.4-0.2-1.1-0.2-1.5,0c-3.6,1.8-7.4,0.6-11.1,1
		c-2.7,0.3-5.4-0.5-8.2,0.8c-1.3,0.6-3.4,0.5-5.2-0.4c-1.5-0.7-3.6-0.7-5.3-0.4c-5.3,1-5.3,1.1-11.2,0c-1.3-0.2-2.7-0.1-4,0
		c-5.5,0.1-9.9-2.5-14.2-5.4c-1-0.7-2-1.5-3.1-2.1c-3.2-1.7-5.7-4.2-7.4-7.4c-1.2-2.2-2.2-4.5-3.6-6.5c-1.5-2.1-2.1-4.2-2-6.7
		c0-1.2-1-2.4-0.9-3.6c0.5-3.6,0.8-7.3,2.1-10.6c1.1-3,3.3-5.7,5.1-8.4c0.7-0.9,1.9-1.5,2.7-2.3c0.9-0.9,1.6-2,2.5-3
		c3.2-3.4,5.8-7.4,8.9-10.7c3.9-4.1,7.2-9,12.7-11.3c0.3-0.1,0.6-0.3,0.8-0.5c2.6-2.2,5.1-4.5,7.7-6.7c2.6-2.2,4.7-4.8,6-8
		c0.3-0.7,0.6-1.4,1.1-2.1c2-3.1,5.7-4.5,7.8-7.7c2-2.9,5.2-4.7,8.3-6.4c0.9-0.5,2-1,2.7-1.8c0.8-0.8,1.4-1.7,1.8-2.7
		c1.2-2.8,3.8-3.9,6.3-5.3c2.7-1.5,4.7-3.5,6.5-6.2c1.9-2.8,4.6-5.3,7.3-7.4c0.9-0.7,1.4-1.4,2-2.2c1.7-2.2,3.2-4.5,5.8-6.1
		c1.9-1.1,4-2.8,4.8-5.4c0.3-1,1.5-1.7,2.3-2.5c3.3-3.3,6.7-6.5,9.9-9.9c5.6-5.8,11.1-11.7,16.6-17.6c0.5-0.5,0.7-1.4,1.1-2
		c1.8-3.1,4.1-5.8,7.4-7.3c1.2-0.6,2-1,2.7-2.3c1.3-2.4,3.4-4.2,6-5.5c1.1-0.6,2.1-1.3,3.1-2.1c2.7-2.1,4.6-5,7.7-6.8
		c2.9-1.7,4.4-5.2,7.7-6.7c0.5-0.2,0.6-1.5,1.1-2c2.7-2.5,4.7-5.9,8.6-6.9c3-3.6,7.8-5.1,10-9.7c0.9-1.8,3-3,4.6-4.3
		c3.4-2.8,6.7-5.6,9.1-9.4c2.4-4,3.3-5,7.3-7.3c2.9-1.7,5.2-3.7,6.7-6.7c0.2-0.4,0.6-0.8,1-1.1c1.6-1.3,3.4-2.5,4.8-3.9
		c1.5-1.5,2.6-3.2,3.9-4.8c0.4-0.5,0.9-1.2,1.4-1.4c4.6-1.5,6.1-6,9.1-9c4.6-4.7,8.6-10,14.3-13.5c0.3-0.2,0.5-0.5,0.7-0.7
		c2.6-2.2,5-4.7,7.8-6.7c4.1-2.9,7.4-6.5,10.8-10c3.5-3.6,7.8-5.2,12.8-5.5c4-0.3,8-1.1,12.1-1c1.7,0,3.3,0.4,4.5,1.2
		c2,1.2,3.9,1.7,6.2,2.1c1.8,0.3,3.6,1.8,5.1,3.1c2.4,2.1,4.5,4.5,6.8,6.7c1.3,1.2,2.3,2.6,4.1,3.3c1.4,0.6,2.7,2.1,3.3,3.5
		c0.6,1.4,1.4,1.8,2.7,2.4c1.3,0.5,3.1,1.5,3.2,2.5c0.3,1.8,2.1,1.1,2.7,2.3c0.6,1.3,1.8,2.2,2.4,3.5c0.9,2.2,2.2,3.8,4.2,5.2
		c2.3,1.6,4.1,3.9,6.1,5.9c2.1,2.2,4.6,3.9,7.3,5.3c4.9,2.6,4.9,2.5,8,7c1.1,1.6,2.3,3.1,3.5,4.5c1.9,2.2,4,4.2,5.8,6.6
		c1.9,2.5,4.2,5,7.2,6.5c1.7,0.9,3.1,2.4,4.2,4.1c1.7,2.5,9.2,8.6,11.6,10.4c2.3,1.7,4.6,3.7,6.1,6.1c2,3.2,4.2,5.9,7.4,7.9
		c1.9,1.2,3.7,3,4.9,4.9c1.4,2.2,3.4,3.6,5.6,4.4c3.7,1.3,6.2,4.4,9.3,6.5c5.2,3.4,9.6,7.7,13.1,12.9c1.5,2.3,3.6,4.2,5.2,6.3
		c1.2,1.6,2,3.5,3.4,4.8c1.3,1.3,3.2,2,4.6,3.2c1.3,1,2.6,2.2,3.3,3.6c0.8,1.6,2.3,2.2,3.4,2.9c1.4,0.9,2.6,1.8,3.7,3
		c2.6,2.7,4.9,5.6,8.3,7.5c1.6,0.9,2.4,3.2,3.6,4.9c0.6,0.8,1,1.7,1.8,2.2c5.5,3.8,9.1,9.2,12.7,14.6c1.1,1.7,3.4,2.5,4.8,4
		c4.7,5.2,11.4,8.3,14.8,14.8c6.1,3.9,10,10.1,15.6,14.4c3.6,2.8,7,6,11,8.2c0.3,0.2,0.5,0.4,0.7,0.7c1.7,2,2.9,4.8,5,5.7
		c2.6,1.2,3.1,3.5,4.8,5.1c0.5,0.5,0.6,1.7,1.1,2c3.5,1.5,5,5.3,8.1,7c2.2,1.2,3.3,3.1,5.2,4.4c1.2,0.8,2.2,2.1,3.5,2.4
		c3.8,0.9,5.8,3.7,7.9,6.6c1.5,2.1,3.2,4,4.7,6.1c2.7,3.6,4.5,7.8,5.9,12C834.6,931.1,834.7,934.2,835.3,937.9z M537.8,725.6
		c-3.4,3.8-7.4,6.6-9.8,10.8c-1.6,2.9-3.8,5-6.6,6.7c-1.6,0.9-2.9,1.9-4,3.7c-1.7,2.9-4.2,5.3-6.6,7.8c-1.4,1.5-3.4,2.5-4.8,4
		c-2.4,2.4-4.9,4.7-6.9,7.6c-1.3,1.9-4,2.9-5.4,4.7c-1.3,1.8-2.7,3.6-4.4,5.2c-2.8,2.7-5.2,5.9-8.8,7.8c-0.9,2.2-2.4,4-4.3,5.1
		c-2.1,1.3-3.1,3.4-4.8,5c-1.6,1.6-4,2-5.5,3.5c-1.5,1.5-2.4,3.6-3.6,5.5c-0.3,0.4-0.6,0.8-1.1,1.1c-3.4,1.8-5.7,4.9-8.4,7.4
		c-0.6,0.5-1.2,1.3-1.9,1.4c-3.2,0.6-4.5,3.5-5.9,5.7c-0.8,1.3-1.7,2.3-2.7,3.3c-1.1,1.1-3,1.7-3.7,2.9c-0.9,1.6-2.5,2.2-3.6,3.4
		c-1.8,2.1-3.6,4.2-5.3,6.3c-3.1,3.7-8,5.5-10.3,10.2c-0.3,0.6-1.4,0.7-2,1.2c-4.9,4-10.4,7.6-14,12.9c-1,1.4-1.6,2.9-3.5,3.5
		c-0.8,0.2-1.7,1.2-2.1,2.1c-1.2,2.6-3.1,4.3-5.6,5.6c-1.8,0.9-3.6,2.3-4.9,3.9c-3.5,4.6-7.7,8.5-11.7,12.6c-0.5,0.5-0.8,1.3-1.1,2
		c-1.1,2.5-2.9,4.6-5,5.8c-2.8,1.6-4.6,4.1-6.9,6.2c-0.5,0.4-0.6,1.2-1.1,2.1c5.5,0.5,10.6-0.4,15.5,1.1c1.4,0.4,3,0.2,4.5,0
		c1.5-0.2,3-0.7,4.6-0.9c1.1-0.2,2.3,0,3.5,0c1.3,0,2.7,0,4,0c1.2,0,2.8-0.5,3.4,0.1c1.3,1.2,2.3-0.6,3.2-0.1
		c2.1,1.2,4.1,0.4,6.2,0.1c3.7-0.5,7.4,0.2,11.1-1c2-0.6,4.3-0.1,6.5-0.1c2,0,4.6,0.8,5.9-0.2c2.3-1.7,3.9,0.3,5.8,0.2
		c9.6-0.5,19,1.7,28.6,1c1.3-0.1,2.7-0.2,4,0.1c0.6,0.1,1,0.4,1.8,0.3c3.5-0.2,7-2,10.6-0.4c1.1,0.5,2,0.6,3.2,0.1
		c1.7-0.7,3.7-1.2,5.5-1c1.6,0.2,3,0.5,4.7,0c1.3-0.4,3,0.8,4.5,0.8c6,0.2,12.1-0.4,18.1,1c1.5,0.3,3.7,0.5,4.8-0.4
		c2.1-1.7,3.2,1.5,4.9,0.5c0.2-0.2,0.7,0.1,1,0c2.9-1.4,5.8-1.5,8.7,0c5.5-0.6,11.2,1.1,16.6-1c0.7-0.3,1.9-0.4,2.4,0
		c1.2,1,2,1.3,3.3,0c0.4-0.4,1.8-0.4,2.4,0c2.4,1.6,5.1,0.7,7.6,0.9c1.5,0.1,3,0,4.5,0c1.7,0,3.3-0.1,5,0c1.3,0.1,2.6,0.5,3.9,0.4
		c1.6,0,3.2-0.5,4.8-0.4c1.6,0,3.3-0.7,4.6,0.9c2.9-0.1,5.8,0.6,8.7-0.5c1.1-0.4,2.8-0.6,3.6,0c1.3,0.9,2.6,0.5,3.8,0.5
		c1.2,0,2.3-0.3,3.7-0.1c3.4,0.4,7,0.4,10.5,0.1c3.4-0.3,6.8,2,10.2,0.1c6.7-0.2,13.4,0.2,20.1-0.9c4.8-0.8,9.6,1.3,14.6,1
		c1.8-0.1,3.7,1.3,5.7-0.1c0.5-0.4,1.8,0.2,2.7,0.4c0.4,0.1,1.1,0.6,1.3,0.4c2.4-1.9,5.1-0.6,7.6-1c1.5-0.3,3,0,4.7-0.8
		c1.6-0.8,4.2-1.2,5.9-1c7,1,7.2,1.2,13.5-0.8c1.4-0.5,2.6-0.4,4.1,0c1.8,0.5,3.6,2.1,6.1,1.2c-2.1-3.1-4-6.1-6.1-9
		c-3.7-5.2-7.5-10.2-11-15.5c-0.8-1.2-1.6-1.7-2.6-2.4c-2.9-1.9-5.6-4.1-8.4-6.3c-0.5-0.4-1-0.9-1.4-1.4c-1.1-1.4-1.9-3.1-3.2-4.1
		c-2.8-2.1-5.3-4.5-7.4-7.4c-1.7-2.4-4-4.2-5.7-6.6c-1.6-2.3-4.3-3.9-6.5-5.8c-0.5-0.4-1.2-0.9-1.4-1.4c-1.6-4.3-6.4-5.3-8.8-8.8
		c-4.1-1.6-6.8-4.8-9.8-7.8c-3.2-3.2-6.8-6-9.4-9.7c-1.4-2-3.3-3.5-4.5-5.6c-1.2-2.1-1.9-4.8-4.8-5.4c-2.1-5.1-7.7-6.8-10.9-10.9
		c-0.3-0.3-0.8-0.5-1.2-0.7c-5.1-2.3-8.5-6.6-11.9-10.7c-4.1-4.9-8.6-9.7-13.8-13.6c-2.1-1.5-5.1-2.3-5.7-5.5
		c-0.1-0.3-0.4-0.6-0.7-0.7c-3.7-1.5-5.9-4.9-9-7c-3.3-2.2-6-4.7-8.1-8.1c-1.6-2.6-3.6-5.2-6-6.9c-2.2-1.5-3.9-3.4-5.8-5.1
		c-1.4-1.2-2.5-2.7-3.9-3.8c-1.1-0.8-2.5-1.2-3.8-1.5C542.7,731.1,540.9,727.9,537.8,725.6z"/>
	<path d="M628.6,114c2.6-0.8,4.7-1.4,6.8-1.9c0.4-0.1,1.1,0,1.4,0.2c2.4,2.2,5.4,1.7,8.3,1.7c3.2,0,6.3,0.2,9.5,0
		c2.9-0.2,5.8,1.5,8.7,0.1c0.4-0.2,1.2,0.3,1.8,0.4c1.1,0.2,2.4,0.8,3.2,0.5c3.3-1.3,6.5-1.4,9.7,0.1c0.4,0.2,1.1-0.2,1.5,0.1
		c1.4,1.1,2.5-1.7,4.3-0.2c1,0.8,3.2,0.1,4.9,0.1s3.3,0,5,0s3.3,0,5,0s3.3-0.1,5,0c3.2,0.2,6.4-0.6,9.6,0.9c1.3,0.6,3.2,0,4.7-0.4
		c0.8-0.3,1.3-0.4,2.1,0c0.7,0.4,2,0.6,2.6,0.2c1.9-1.3,4.3-1.2,5.6-0.5c1.8,1,3.5,0.8,5.2,0.8c12.2,0.1,24.3,0.1,36.5,0
		c3,0,6.1,0.4,9.1-0.8c1.7-0.6,4.1-0.8,6.2,0.5c0.7,0.5,1.9,0.3,2.9,0.3c3.2,0,6.4,0.3,9.5-0.1c5.8-0.7,11.1,1.4,16.1,3.5
		c5.9,2.5,10.9,6.6,13.4,13c0.8,2.1,1.2,4.2,1.8,6.2c1,3.5,1.7,7,0.2,10.7c-0.8,2.1,0,4.7-1.1,7.1c-1.6,3.3-2.9,6.8-4,10.3
		c-1,2.9-2.9,5.2-5.3,6.7c-1.8,1.2-3.2,2.7-4.8,4c-1.6,1.3-3.4,2.5-4.8,3.9c-1.5,1.5-3,3.1-3.9,4.9c-1.6,3.4-5.3,5-7,8.1
		c-1.8,3.1-4.2,5.1-7.3,6.6c-0.6,0.3-1.3,0.6-1.5,1.1c-1,2.6-3.2,4.2-5,5.9c-1.9,1.7-3,4.4-5.9,5c-0.7,2.3-2.7,3.6-4.2,5.2
		c-2.6,2.7-5.5,4.9-8.7,6.8c-1.2,0.7-2.2,2-3.2,3.1c-0.9,1-2.4,1-2.9,2.7c-0.4,1.3-2.3,2-3,3.3c-0.6,1.2-3.1,0.1-2.5,2.4
		c-4.1,4.5-8.2,8.9-12.4,13.4c-0.4,0.5-1,0.8-1.5,1.1c-5,2.9-5.7,4.2-10.4,9.6c-3.6,4.1-6.2,9.3-11.5,11.7c-0.3,0.1-0.5,0.5-0.7,0.7
		c-5.6,5.3-11.2,10.6-16.9,15.9c-1.3,1.2-2.3,2.6-4.1,3.3c-1.3,0.5-1.8,2.5-2.9,3.7c-1.2,1.2-2.3,2.6-4.1,3.4
		c-1.3,0.6-1.8,2.6-2.9,3.7c-2.1,2.1-3.6,4.7-6.2,6.4c-2.6,1.7-4.5,4.4-6.8,6.6c-0.7,0.7-1.3,1.8-2.2,2c-3.4,0.9-5.2,3.7-7.6,5.8
		c-1.9,1.7-3.9,3.3-5.7,5.1c-1.8,1.8-3.4,3.9-5.2,5.8c-1.8,1.9-3.8,3.7-5.6,5.7c-1.9,2-3.4,4.3-5.4,6.2c-2.1,2-4.4,3.8-6.7,5.4
		c-2.4,1.6-4.6,3.4-6.9,5.2c-7.1,5.5-12.6,12.6-19.4,18.4c-3.9,3.3-7.4,6.9-11.2,10.3c-3.5,3.1-7.2,5.9-10.8,8.8
		c-0.5,0.4-1.1,0.5-1.7,0.7c-1.7,0.7-4.2,1-4.9,2.2c-1,1.8-2.4,3.1-3.8,4.4c-5.9,5.7-11.8,11.5-18,16.9c-1.7,1.5-3.5,3.1-6.1,3.4
		c-1.8,0.2-3.4,1.3-5.1,2c-0.3,0.1-0.5,0.7-0.7,0.7c-7.4-0.2-15,1.3-21.7-3c-1-0.6-1.7-1.5-2.6-2.3c-2.4-2.2-4.3-4.9-7.3-6.4
		c-1.2-0.6-1.9-2.1-2.9-3.2c-0.6-0.7-1.1-1.7-1.9-2c-2.6-0.8-4.3-2.8-6.1-4.5c-5.2-4.8-10.1-9.9-15.5-14.4
		c-7.1-5.8-13.9-11.9-20.3-18.4c-0.8-0.8-1.9-1.1-2.7-1.8c-2.3-1.8-4.4-3.8-6.7-5.6c-1.8-1.5-3.9-2.9-5.6-4.6
		c-2.8-2.9-5.5-6.1-8.2-9.1c0.3-2.1-1.9-2-2.8-2.7c-3.4-2.5-6.4-5.1-8.3-9.1c-1.5-3.2-4.8-4.9-7.5-6.7c-2.2-1.5-4.1-3-5.4-5.3
		c-0.2-0.4-0.5-0.8-0.8-1.1c-3.5-2.9-7.1-5.6-10.3-8.7c-3.3-3.2-7.8-5.2-10-9.6c-0.7-1.4-1.2-2.9-2.2-4.1c-0.8-0.9-2-1.6-3.1-2.1
		c-3.6-1.9-5.9-5.4-9.4-7.5c-0.4-0.2-0.9-0.6-1-1.1c-0.5-1.4-0.9-2.7-2.3-3.7c-1.2-0.8-1.9-2.4-3-3.5c-0.6-0.6-1.5-1.1-2.4-1.4
		c-2.1-0.8-4.5-1.8-5.3-3.7c-0.7-1.8-2.9-1.4-3.4-3.6c-0.4-1.6-2.2-2.9-4.1-3.9c-1.5-0.8-2.5-2.7-4-3.6c-3-1.7-5.4-4-7-7.1
		c-0.4-0.8-1.3-1.6-2.1-2.1c-4.2-2.6-6.6-6.9-10.1-10.3c-1-1-2.1-1.8-2.7-3.4c-0.4-1.3-2.5-2-3.6-3c-2.8-2.7-6.2-4.6-9.1-7
		c-3-2.4-5.5-5.3-8.2-8.1c-2.9-3.1-5.9-6.2-8.4-9.5c-1.2-1.7-3-2.6-4.3-4.1c-3.2-3.7-6.5-7.4-9.9-10.9c-2-2.1-4.4-3.8-6.6-5.7
		c-2.2-1.9-3.9-4.3-6.6-5.8c-1.7-1-2.8-3.1-4.1-4.7c-0.5-0.6-1-1.3-1.6-1.8c-2.9-2.4-4.9-5.4-6.4-8.9c-0.2-0.6-0.6-1.1-1-1.6
		c-3.2-3.5-6.6-6.8-9.5-10.6c-4.3-5.8-7.4-12.2-6.5-19.8c0.2-1.2,1.5-2.2,1-3.6c3.8-4.5,4.2-10.6,7.9-15.3c3.7-4.6,7.7-7.6,13.7-8.4
		c3.9-0.5,7.9-1.8,11.5-3.5c5.8-2.8,12-2.9,18-2.1c3.7,0.4,7.9,0.7,11,3.4c1.7,1.4,2.8-1.6,4.4-0.6c1.2-1.2,2.3-0.6,3.8-0.4
		c4.2,0.5,8.5,0.1,12.7,0c0.4,0,0.9-0.6,1.3-0.5c1.9,0.3,3.8,1.1,5.6,0.8c1.7-0.2,3.3-1.3,5.1-0.8c1.2,0.3,2.1,1.2,3.1-0.4
		c0.3-0.5,1.4-0.6,2.2-0.6c4.2-0.1,8.3,0,12.5,0c0.7,0,1.5-0.2,1.9,0.1c3.1,2.7,6.8,1.8,10.2,1.8c5,0.1,10,0,15,0.1
		c2.4,0,4.8-0.5,7.1,0.9c0.8,0.5,2.3,0.3,3.4,0.1c5.2-1,5.2-1,10.2,0c1,0.2,2.1,0.3,3,0c4.5-1.8,9.1-0.6,13.6-1
		c4.7-0.4,9.5,0.9,14.1-0.9c0.5-0.2,1.2,0.3,1.8,0.5c2.4,0.7,4.7,0.8,7.1-0.1c0.4-0.2,1-0.6,1.3-0.4c3.3,1.7,6.4,1.3,9.7,0
		c0.7-0.3,1.9-0.4,2.4,0c2.5,2.1,5,0.8,7.1-0.3c1.3-0.7,1.7-0.4,2.9,0c1.3,0.4,2.8,1,4.6,0.5c1.9-0.6,4.3-0.2,6.6,0.6
		c2.2,0.7,5,0.5,7.6-0.4c2.3-0.7,5.1,0,7.6,0.2c0.9,0.1,2,0.7,2.8,0.4c2.6-0.9,5.1-0.4,7.7,0c3.5,0.5,6.9-0.9,10.4-1.4
		c1.3-0.2,2.1-0.5,3.5,0.2c2.9,1.6,6,2.3,9.1,0.4c0.1-0.1,0.3-0.1,0.5-0.1c2.1-0.1,4,1.8,6.1,0.9c2-0.8,3.6-1.4,5.8-0.1
		c1.3,0.7,3.4-0.1,5.2-0.3c1.3-0.1,2.6-0.8,3.8-0.5c4.1,1.2,8.1,1.6,12.2,0c0.5-0.2,1.5-0.1,1.8,0.3c1,1.1,2.2,0.7,3.2,0.6
		c1.2-0.1,2.4-0.9,3.6-0.9c1,0,2,0.8,3.1,0.9c0.9,0,1.8-0.4,2.7-0.8c2.9-1.4,5.7-3.6,9.2-1.2c0.6,0.4,1.6,0,2.5,0.1
		c1.6,0.2,3.1-0.3,4.7,0.8c0.9,0.6,2.8-1.1,4.5-0.9c2.1,0.2,4.1,0.1,6.1,1c3.2,1.4,3.3,1,8.9-0.5C623.1,111.7,626.3,110.9,628.6,114
		z M542.8,356.3c1.3-0.9,2.4-1.5,3.4-2.3c2.5-2,5.4-3.7,7.3-6.2c1.4-1.8,3.3-3.2,4.3-5.2c1.1-2.3,3-3.9,4.8-5.5
		c1.7-1.4,2.6-3.4,4.5-4.6c2.4-1.6,4.2-3.6,6.1-5.8c4.8-5.6,9.9-10.9,16.4-14.5c2.6-1.4,4.1-3.5,5.5-5.8c2-3.4,5-7.6,7.4-9.3
		c2-1.5,4.2-2.7,5.4-5.2c0.6-1.3,1.8-2.5,3.6-3.1c1.4-0.4,2.6-1.6,3.6-2.8c2.2-2.8,4.4-5.5,7.6-7.3c1.7-0.9,3.5-2.5,4.2-4.2
		c2-5.4,6.7-7.8,10.9-10.8c2.1-1.5,3.4-3.9,5.3-5.7c2-1.9,3.8-4,5.7-6.1c2.3,0.5,3.1-1.5,4.4-2.6c0.6-0.5,1.2-1.1,1.9-1.4
		c2.5-0.9,4.2-2.8,6.1-4.6c2-1.9,4.7-3.2,6.2-5.4c1.9-2.8,4.3-4.9,6.5-7.3c0.7-0.7,1.9-1.3,2-2.1c0.7-3.3,3.3-4.7,5.6-6.7
		c4.7-3.9,9-8.2,13.4-12.3c1.2-1.1,2.3-2.1,3.7-3c1.2-0.8,2.9-1.4,3.7-3.2c0.6-1.4,3.1-1.9,3.9-3.3c1.6-2.7,4.1-4.7,6.1-7
		c1.9-2.2,4.2-4.2,5.6-6.7c1.5-2.7,3.6-4.4,5.9-6.3c-1.3-0.1-2.6,0.1-3.8,0.3c-0.6,0.1-1.4,0.5-1.7,0.3c-1.4-1.5-3.2-0.5-4.7-0.8
		c-1.5-0.3-3-0.7-4.6-1c-0.6-0.1-1.4,0-1.8,0.3c-2.2,1.4-4.7,1-6.7,0.4c-1.4-0.4-2.8-0.7-4.2-0.7c-1.4,0-2.9,0.1-4.3,0.4
		c-1.7,0.4-2.6-1-3.9-1.4c-0.4-0.2-1,0-1.5,0c-0.9-0.2-1.8-0.6-2.7-0.5c-1,0-2,0.6-2.9,0.5c-3-0.2-6,0.1-9.1-0.8
		c-3.3-0.9-6.9-0.1-10.4-0.2c-2-0.1-4-0.1-6.2-0.8c-2.8-0.9-6.1,0.2-9-1.2c-2.2,1.5-4.3,0.5-6.7,0.2c-3.7-0.6-7.7-0.3-11.5-0.1
		c-3.7,0.2-7.5-1-11.1,0.9c-0.6,0.3-2,0.4-2.4,0c-1.4-1.5-3.1-0.7-4.7-0.9c-2.5-0.4-5.2,0.9-7.6-1c-0.4-0.3-1.6-0.2-1.9,0.1
		c-1.1,1.3-2.5,0.8-3.7,0.8c-2.9,0-5.7,0.1-8.6-0.9c-1.6-0.6-3.6-0.2-5.5-0.1c-1.9,0.2-3.7,0.8-5.6,0.9c-3.7,0.2-7.3,0-11,0.1
		c-2.1,0-4.2-0.4-6.1,1c-4.4-2.1-9.1-0.5-13.6-1c-1-0.1-2-0.1-3,0.1c-4.2,1-4.2,0.8-7.8,0.1c-2-0.4-4.3-0.4-6.3,0
		c-3.9,0.8-3.9,0.9-8.8-0.2c-1-0.2-2.4-0.2-3.3,0.3c-3.2,1.4-6.8,1.2-9.7,0.4c-3.1-0.9-5.6-0.7-8.2,0.3c-1.8,0.7-3.2,1.1-5.3,0.1
		c-2.2-1-5-0.8-7.5-1.2c-1.2,1.7-3,0.9-4.6,0.9c-1,0-2.1-0.9-3.1-0.9c-1.2,0-2.4,1-3.6,0.9c-7.1-0.6-14,0.9-21.1,1.1
		c-3.6,0.1-7.1-0.7-10.6-1.1c-3-0.4-5.7,1.1-8.6,1.1c-3.2,0-6.3,0-9.5,0c-0.5,0-1,0.1-1.4,0.3c-2.2,1.1-4.2,0.9-6.5,0
		c-1.4-0.6-3.5-0.9-4.8-0.2c-2.6,1.3-5.1,0.7-7.7,0.8c-2.2,0.1-4.4-0.2-6.6-0.8c-2-0.5-4.3,0.5-6.5,0.8c-0.5,0.1-1.2,0.2-1.5,0
		c-1.7-1.7-3.7-0.8-5.6-0.9c-1.7-0.1-3.3,0-5,0c-0.9,0-1.6-1.4-2.8-0.1c-0.6,0.6-2.2,0.2-3.2,0.6c-2.6,1-5.3,0.9-7.7,0.2
		c-2.4-0.7-4.5-1.1-6.9,0.1c-0.8,0.4-2.2-0.3-3.5-0.5c0,0.7-0.3,1.5,0.1,1.9c0.7,0.8,1.8,1.2,2.5,1.9c0.7,0.8,1,2.3,1.8,2.6
		c2.5,0.9,3.7,3.1,5.5,4.7c1.7,1.5,3.2,3.1,5.2,4.3c2.1,1.3,4.7,2.3,5.3,5.2c0.1,0.3,0.4,0.6,0.7,0.7c3.1,1.3,4.6,4.3,6.7,6.6
		c4.5,4.8,9.4,9.3,14.4,13.4c1.6,1.3,3.3,2.3,4.1,4.3c6,3.7,10.8,8.9,15.8,13.8c1.7,1.7,4.3,2.8,5.4,4.7c1.3,2.2,2.9,4.2,4.8,5.4
		c4.9,3.1,8,8,12.8,11.2c3.9,2.5,7,6.1,10.9,8.8c0.7,0.5,1.6,1.1,1.7,1.8c0.3,1.9,1.8,2.7,2.9,3.8c5.5,5.2,11.1,10.3,16.5,15.6
		c1.7,1.7,2.8,4,4.7,5.5c3.3,2.7,6.9,5,10.4,7.5c2.1,1.4,3.8,3,5.4,5.1c1.7,2.4,2.8,5.9,6.8,6.2c0.9,0.1,2.2,1.4,2.4,2.4
		c0.3,1.3,1.1,2,1.9,2.7c2.5,2.4,4.2,5.5,7.3,7.5c1.2,0.8,2.2,2.2,3.1,3.6c1.6,2.8,3.9,5.2,6.2,7.4c4.7,4.6,9.6,9,14.4,13.5
		C538,351.4,540.2,353.7,542.8,356.3z"/>
	<path d="M420.7,509c2.1,0.6,4.4-0.2,6.9,0.8c2.4,1,4.5,2,6.4,3.8c2,1.9,4.4,3.3,6.2,5.4c1.2,1.4,2.2,2.8,3.7,3.9
		c1.3,1,1.9,2.8,2.7,4.3c0.5,0.9,1.2,1.9,1.3,2.9c0.5,3,0.6,6.1,1.1,9.1c1.2,7.6-2.7,17.1-7.6,23c-0.8,1-1.3,2.2-2.2,3.1
		c-3.4,3.4-7.4,5.8-12.2,6.7c-2,0.4-3.9,1.1-6.1,1.2c-5.5,0.3-10.2-2-15-3.7c-4.1-1.4-7.7-3.9-10.4-7.4c-4.3-5.5-8.1-11.3-7.6-18.8
		c0.1-2.2-0.1-4.3,0.1-6.5c0.3-4.1,0.9-8.1,2.9-11.8c0.8-1.4,1.6-2.7,3.1-3.7c1.9-1.3,3.4-3.2,5-4.8c2.5-2.4,3.9-3.1,8.1-4.5
		c1.9-0.6,3.7-1.5,5.6-2.1C415.4,509,417.9,509.2,420.7,509z"/>
	<path d="M786.5,506c3-0.2,6.7,0.3,10.4,1.8c2.1,0.8,4,2,5.6,3.3c2.5,2,4.8,4.4,6.5,7.2c1,1.8,2.4,3.5,3.9,4.9
		c2,1.9,2.4,4.5,3.1,6.7c0.7,2.4,0.2,5,1,7.6c0.7,2.2,0,4.7-0.7,7.1c-0.6,2.1-0.3,4.3-1,6.6c-0.6,2.1-2.4,3.3-3.1,5.2
		c-0.5,1.3-1.6,2.3-2.4,3.5c-1.7,2.5-3.8,4.5-6.4,6.1c-0.5,0.3-1.2,0.5-1.6,0.9c-4.6,3.9-9.5,5.3-15.4,3.1c-2-0.8-4.4-0.5-6.5-1.1
		c-3.2-0.9-6.2-2.2-8.6-4.5c-3.6-3.4-7.2-7-10.6-10.6c-2.3-2.4-3.5-5.5-4.4-8.6c-1.4-4.4-1.3-4.4-0.1-9.7c0.1-0.6,0.1-1.3,0.1-2
		c0.2-6.6,1.2-8.6,6.6-13.7c0.4-0.4,0.4-1.1,0.7-1.7c1.9-3.5,4.7-6.1,8.1-8.1c0.7-0.4,1.5-0.6,2-1.1c2.3-2.4,5.1-3.1,8.2-3.1
		C783,506,784.3,506,786.5,506z"/>
	<path d="M541.9,505.7c3,0.4,6,0.8,9,1.3c1,0.2,2.1,0.7,2.9,1.4c3.7,3.2,7.5,6.4,10.8,9.9c1.7,1.9,3,4.2,3.4,7.1
		c0.3,2,0.9,4,0.9,6.1c0.1,1.9,0.6,3.7,0.9,5.6c0.3,1.7,1,3.4,0.9,5.1c-0.4,5.9-2,11.5-5.8,16c-4.2,5.1-9.7,8.6-16.4,9.8
		c-1.2,0.2-2.4,0.7-3.6,1c-1.2,0.2-2.7-0.5-3.6,0.9c-0.1,0.1-0.3,0.1-0.4,0.1c-4.3-1.8-9.1-0.2-13.4-2.6c-3-1.7-6.4-2.8-8.6-5.8
		c-1.3-1.7-2-3.8-3.2-5.7c-1.4-2.3-2.9-4.3-3.2-7.2c-0.2-2.3-1.4-4.7-2-7.1c-0.5-2.2-1.3-4.5-0.7-6.6c1.1-4,2-8.1,4.2-11.7
		c1.3-2.3,2.4-4.7,3.9-6.8c2.2-3,5.3-5,8.8-6.3c1.2-0.4,2.6-0.5,3.5-1.1C534,506.4,537.7,505.4,541.9,505.7z"/>
	<path d="M144,543.3c-0.1-2.4,0.1-4.5-0.9-6.5c-0.5-1.1-0.6-3.1,0-3.8c1.7-1.9,0-4.5,1.6-6.4c1.3-1.5,2.1-3.5,3.2-5.1
		c1.1-1.6,2.3-3,3.5-4.5c2.8-3.6,6.7-5.9,10.8-7.7c1.4-0.6,3.2-0.2,4.6-0.8c2.7-1.2,5.6,0,8.4-1.3c2.6-1.2,5.5,0.8,8.4,1.2
		c2,0.2,4,0.9,5.7,1.8c1.7,0.9,3.5,2,4.5,3.5c1.9,2.8,4.8,4.7,6.1,7.9c0.4,0.9,0.9,1.7,1.4,2.4c2,2.7,3.1,5.6,2.5,8.9
		c-0.1,0.3-0.1,0.7,0,1c1.3,2.1,0.5,4,0.2,6.2c-0.4,3.2-1.1,6.2-2.2,9.1c-1.9,5.2-4.4,10-9.6,13c-1.9,1.1-3,3.3-5.2,4.2
		c-2.7,1.2-5.6,1.9-8.3,2.8c-4.8,1.5-9.2-1.2-13.7-0.2c-2-1.1-4.1-2.2-6.1-3.4c-3.9-2.4-7.5-5.6-10-9.3
		C146.4,552.4,143.3,548.3,144,543.3z"/>
	<path d="M692,537.5c0,0.7,0,1,0,1.3c1,6-1.4,11.3-3.2,16.7c-1.2,3.7-4.6,6.2-7.8,8.5c-1.5,1.1-3.1,2.2-4.8,3
		c-4.6,2.3-9.7,3.9-14.7,2.8c-4.6-1-9.9-1.3-13.1-5.8c-0.2-0.3-0.4-0.6-0.7-0.7c-6.9-3-9.7-9.4-12.8-15.5c-0.4-0.8-0.6-1.9-1.3-2.5
		c-2.4-2.2-2.1-5.2-2.7-7.9c-0.3-1.1,2.1-5.9,2.4-7.5c0.9-5.2,5.7-7.8,7.7-12.3c0.7-1.6,3.1-2.5,4.8-3.6c0.8-0.5,2-0.5,2.5-1.1
		c3.9-4.9,10-5.3,15.2-6.7c4.8-1.3,9.7,0,13.9,3.7c2.7,2.4,6.1,4,8.7,6.8c2,2.2,4.1,4.2,3.8,7.5C692.6,528.4,691.9,533.2,692,537.5z
		"/>
	<path d="M910.1,571c-2.7-0.1-5.9,0.5-8.7-1c-4.5-2.4-9.6-4.1-13-8.3c-2.1-2.5-4.2-5.3-5.2-8.3c-1.2-3.7-3.4-7.1-3.4-11.1
		c-1.5-1.7-1.3-4.1-0.6-5.6c0.8-1.8,0.7-3.4,0.8-5.2c0.1-2.4,0-4.7,1.7-6.8c1.4-1.7,2.4-3.6,4.1-5.3c3.1-2.9,7.2-3.9,10.4-6.5
		c0.9-0.7,1.8-1.4,2.7-2c3.7-2.7,8.1-2.4,12.1-1.9c4.4,0.6,9,1.2,12.9,3.9c2.5,1.7,5.1,3.1,7.4,4.9c1.1,0.8,1.7,2.2,2.5,3.4
		c2.6,3.9,4,8.3,6.2,12.4c-0.5,2.2,0.7,4.1,0.9,6.1c0.2,1.9,0,3.7-0.9,5.6c-2.5,5.1-3.9,10.9-8.1,15.2c-0.9,0.9-1.3,2.2-2.2,3.1
		c-4.5,4.6-9.9,7.3-16.4,7.4C912.4,571,911.4,571,910.1,571z"/>
	<path d="M293.5,571.2c-2.1-0.2-4.4,0.1-6.3-0.6c-2-0.7-3.6-2.6-5.6-3.5c-2.1-0.9-3.8-2.2-5.5-3.5c-4.9-3.9-7.5-9.3-9.1-15.2
		c-1.3-4.5-1.3-6.8-0.1-11.7c0.3-1.3,0-2.6,0.2-3.9c0.2-1.2,0.7-2.4,0.9-3.6c0.6-3.6,2.6-6.7,4.3-9.7c1.8-3,5.1-4.5,8.6-5.5
		c2.8-0.8,5.3-2.5,7.7-4.2c2.1-1.5,4.4-1.9,6.8-1.7c2.9,0.2,5.7-0.4,8.6,0.9c3.6,1.6,6.8,3.7,10.1,5.9c2.3,1.5,3.4,4.2,4.9,6.4
		c2.5,3.8,3.3,8.3,4.9,12.5c0.2,0.6,0.1,1.3,0,2c-1.1,9.7-3.5,18.8-10.4,26.2c-4.5,4.8-7.7,7-13.8,8.7
		C297.8,571.2,295.6,571,293.5,571.2z"/>
	<path class="st0" d="M537.8,725.6c3.1,2.3,4.8,5.4,8.3,6.4c1.3,0.4,2.8,0.8,3.8,1.5c1.5,1.1,2.6,2.6,3.9,3.8
		c1.9,1.7,3.7,3.6,5.8,5.1c2.4,1.7,4.4,4.3,6,6.9c2.1,3.4,4.8,5.9,8.1,8.1c3.2,2.1,5.3,5.5,9,7c0.3,0.1,0.6,0.4,0.7,0.7
		c0.6,3.2,3.6,4,5.7,5.5c5.2,3.9,9.7,8.7,13.8,13.6c3.4,4.1,6.8,8.4,11.9,10.7c0.4,0.2,0.9,0.4,1.2,0.7c3.2,4.1,8.8,5.8,10.9,10.9
		c2.9,0.7,3.6,3.4,4.8,5.4c1.2,2.1,3.1,3.6,4.5,5.6c2.6,3.6,6.2,6.5,9.4,9.7c3,3,5.7,6.2,9.8,7.8c2.4,3.5,7.2,4.4,8.8,8.8
		c0.2,0.6,0.9,1,1.4,1.4c2.2,1.9,4.9,3.4,6.5,5.8c1.7,2.4,4.1,4.2,5.7,6.6c2.1,2.9,4.5,5.3,7.4,7.4c1.3,1,2.2,2.7,3.2,4.1
		c0.4,0.5,0.9,1,1.4,1.4c2.8,2.1,5.5,4.4,8.4,6.3c1.1,0.7,1.9,1.2,2.6,2.4c3.5,5.3,7.4,10.3,11,15.5c2.1,2.9,4,5.9,6.1,9
		c-2.5,1-4.3-0.6-6.1-1.2c-1.5-0.4-2.7-0.5-4.1,0c-6.3,2-6.5,1.7-13.5,0.8c-1.8-0.2-4.3,0.2-5.9,1c-1.7,0.8-3.1,0.5-4.7,0.8
		c-2.5,0.4-5.3-1-7.6,1c-0.2,0.1-0.8-0.3-1.3-0.4c-0.9-0.2-2.2-0.8-2.7-0.4c-2,1.4-3.9,0-5.7,0.1c-5,0.2-9.8-1.8-14.6-1
		c-6.7,1.1-13.4,0.7-20.1,0.9c-3.4,1.9-6.8-0.4-10.2-0.1c-3.5,0.3-7,0.4-10.5-0.1c-1.3-0.2-2.5,0.1-3.7,0.1c-1.2,0-2.5,0.4-3.8-0.5
		c-0.8-0.6-2.5-0.4-3.6,0c-2.9,1.1-5.8,0.3-8.7,0.5c-1.3-1.6-3.1-0.8-4.6-0.9c-1.6,0-3.2,0.4-4.8,0.4c-1.3,0-2.6-0.4-3.9-0.4
		c-1.7-0.1-3.3,0-5,0c-1.5,0-3,0.1-4.5,0c-2.5-0.2-5.2,0.7-7.6-0.9c-0.6-0.4-2-0.4-2.4,0c-1.2,1.3-2.1,1-3.3,0
		c-0.5-0.4-1.7-0.3-2.4,0c-5.4,2.1-11.1,0.4-16.6,1c-2.9-1.5-5.8-1.4-8.7,0c-0.3,0.1-0.7-0.1-1,0c-1.7,1.1-2.8-2.1-4.9-0.5
		c-1,0.8-3.2,0.7-4.8,0.4c-6-1.4-12.1-0.8-18.1-1c-1.5-0.1-3.2-1.2-4.5-0.8c-1.7,0.5-3.1,0.2-4.7,0c-1.8-0.2-3.8,0.3-5.5,1
		c-1.2,0.5-2.1,0.5-3.2-0.1c-3.5-1.7-7,0.1-10.6,0.4c-0.8,0.1-1.2-0.2-1.8-0.3c-1.3-0.2-2.7-0.2-4-0.1c-9.6,0.7-19-1.6-28.6-1
		c-1.9,0.1-3.5-1.9-5.8-0.2c-1.3,1-3.9,0.2-5.9,0.2c-2.2,0-4.5-0.5-6.5,0.1c-3.7,1.2-7.4,0.5-11.1,1c-2.1,0.3-4.1,1.1-6.2-0.1
		c-0.9-0.5-1.9,1.2-3.2,0.1c-0.7-0.6-2.2-0.1-3.4-0.1c-1.3,0-2.7,0-4,0c-1.2,0-2.4-0.1-3.5,0c-1.5,0.2-3,0.8-4.6,0.9
		c-1.5,0.2-3.1,0.4-4.5,0c-4.9-1.5-10-0.6-15.5-1.1c0.4-0.9,0.6-1.7,1.1-2.1c2.3-2,4.1-4.5,6.9-6.2c2.2-1.3,3.9-3.4,5-5.8
		c0.3-0.7,0.6-1.5,1.1-2c4-4.1,8.2-8.1,11.7-12.6c1.2-1.6,3-2.9,4.9-3.9c2.5-1.3,4.4-3,5.6-5.6c0.4-0.9,1.2-1.8,2.1-2.1
		c1.9-0.6,2.5-2.1,3.5-3.5c3.7-5.4,9.1-8.9,14-12.9c0.6-0.5,1.7-0.6,2-1.2c2.2-4.6,7.2-6.4,10.3-10.2c1.7-2.1,3.5-4.2,5.3-6.3
		c1.1-1.3,2.7-1.8,3.6-3.4c0.7-1.3,2.6-1.8,3.7-2.9c1-1,1.9-2,2.7-3.3c1.4-2.3,2.7-5.1,5.9-5.7c0.7-0.1,1.3-0.9,1.9-1.4
		c2.8-2.5,5-5.6,8.4-7.4c0.4-0.2,0.8-0.6,1.1-1.1c1.2-1.8,2.1-3.9,3.6-5.5c1.5-1.5,3.9-1.9,5.5-3.5c1.6-1.6,2.7-3.7,4.8-5
		c1.9-1.2,3.4-2.9,4.3-5.1c3.6-1.9,5.9-5.1,8.8-7.8c1.6-1.5,3-3.3,4.4-5.2c1.4-1.9,4.1-2.8,5.4-4.7c1.9-2.9,4.5-5.2,6.9-7.6
		c1.5-1.5,3.4-2.5,4.8-4c2.4-2.4,4.9-4.9,6.6-7.8c1.1-1.8,2.4-2.8,4-3.7c2.8-1.6,5.1-3.8,6.6-6.7
		C530.4,732.2,534.4,729.4,537.8,725.6z"/>
	<path class="st0" d="M542.8,356.3c-2.5-2.5-4.7-4.8-7-7c-4.8-4.5-9.7-8.9-14.4-13.5c-2.3-2.3-4.6-4.7-6.2-7.4
		c-0.9-1.5-1.8-2.8-3.1-3.6c-3.1-2-4.8-5.1-7.3-7.5c-0.8-0.7-1.6-1.4-1.9-2.7c-0.2-1-1.5-2.3-2.4-2.4c-3.9-0.3-5.1-3.8-6.8-6.2
		c-1.6-2.1-3.3-3.7-5.4-5.1c-3.5-2.4-7.1-4.8-10.4-7.5c-1.8-1.5-3-3.8-4.7-5.5c-5.4-5.3-11-10.4-16.5-15.6c-1.1-1.1-2.7-1.9-2.9-3.8
		c-0.1-0.7-1-1.3-1.7-1.8c-3.9-2.6-7-6.2-10.9-8.8c-4.8-3.1-7.9-8.1-12.8-11.2c-1.9-1.2-3.5-3.2-4.8-5.4c-1.2-2-3.7-3-5.4-4.7
		c-5-4.9-9.8-10-15.8-13.8c-0.8-2-2.5-3-4.1-4.3c-5.1-4.1-9.9-8.6-14.4-13.4c-2.2-2.3-3.6-5.3-6.7-6.6c-0.3-0.1-0.6-0.4-0.7-0.7
		c-0.7-2.9-3.2-3.9-5.3-5.2c-2-1.2-3.5-2.8-5.2-4.3c-1.8-1.6-3.1-3.8-5.5-4.7c-0.8-0.3-1.1-1.9-1.8-2.6c-0.7-0.8-1.8-1.1-2.5-1.9
		c-0.3-0.4-0.1-1.2-0.1-1.9c1.3,0.2,2.7,0.9,3.5,0.5c2.4-1.2,4.4-0.8,6.9-0.1c2.4,0.7,5.1,0.8,7.7-0.2c1-0.4,2.6,0.1,3.2-0.6
		c1.2-1.3,1.9,0.1,2.8,0.1c1.7,0,3.3-0.1,5,0c1.9,0.2,3.9-0.8,5.6,0.9c0.2,0.2,1,0.1,1.5,0c2.2-0.3,4.6-1.3,6.5-0.8
		c2.2,0.6,4.4,0.9,6.6,0.8c2.5-0.1,5.1,0.5,7.7-0.8c1.2-0.6,3.3-0.3,4.8,0.2c2.3,0.9,4.3,1.1,6.5,0c0.4-0.2,0.9-0.3,1.4-0.3
		c3.2,0,6.3,0,9.5,0c2.9,0,5.6-1.4,8.6-1.1c3.5,0.4,6.9,1.2,10.6,1.1c7-0.2,14-1.7,21.1-1.1c1.2,0.1,2.4-0.8,3.6-0.9
		c1,0,2.1,0.9,3.1,0.9c1.5,0,3.4,0.8,4.6-0.9c2.5,0.3,5.3,0.1,7.5,1.2c2.1,1,3.4,0.6,5.3-0.1c2.7-1,5.2-1.2,8.2-0.3
		c2.9,0.8,6.4,1.1,9.7-0.4c1-0.4,2.3-0.5,3.3-0.3c4.9,1.1,4.9,1,8.8,0.2c2-0.4,4.3-0.4,6.3,0c3.6,0.7,3.6,0.8,7.8-0.1
		c0.9-0.2,2-0.2,3-0.1c4.5,0.5,9.2-1.1,13.6,1c1.8-1.4,4-1,6.1-1c3.7,0,7.3,0.1,11-0.1c1.9-0.1,3.7-0.7,5.6-0.9
		c1.8-0.2,3.8-0.5,5.5,0.1c2.9,1,5.7,0.9,8.6,0.9c1.2,0,2.6,0.5,3.7-0.8c0.3-0.3,1.5-0.4,1.9-0.1c2.4,1.9,5.1,0.6,7.6,1
		c1.5,0.2,3.2-0.6,4.7,0.9c0.4,0.4,1.8,0.4,2.4,0c3.6-1.9,7.4-0.7,11.1-0.9c3.8-0.2,7.7-0.5,11.5,0.1c2.4,0.4,4.5,1.3,6.7-0.2
		c2.9,1.4,6.2,0.3,9,1.2c2.1,0.7,4.1,0.7,6.2,0.8c3.5,0.1,7.2-0.7,10.4,0.2c3.1,0.9,6.1,0.6,9.1,0.8c1,0.1,1.9-0.5,2.9-0.5
		c0.9,0,1.8,0.4,2.7,0.5c0.5,0.1,1-0.1,1.5,0c1.3,0.5,2.2,1.8,3.9,1.4c1.4-0.3,2.9-0.4,4.3-0.4c1.4,0,2.7,0.3,4.2,0.7
		c1.9,0.6,4.5,1,6.7-0.4c0.5-0.3,1.3-0.4,1.8-0.3c1.5,0.2,3.1,0.7,4.6,1c1.5,0.3,3.3-0.7,4.7,0.8c0.2,0.2,1.1-0.2,1.7-0.3
		c1.2-0.2,2.4-0.4,3.8-0.3c-2.3,1.9-4.5,3.6-5.9,6.3c-1.4,2.5-3.6,4.5-5.6,6.7c-2,2.3-4.4,4.2-6.1,7c-0.8,1.4-3.3,1.9-3.9,3.3
		c-0.8,1.9-2.5,2.5-3.7,3.2c-1.4,0.9-2.5,1.9-3.7,3c-4.5,4.1-8.8,8.4-13.4,12.3c-2.3,1.9-4.9,3.4-5.6,6.7c-0.2,0.8-1.4,1.4-2,2.1
		c-2.2,2.4-4.6,4.5-6.5,7.3c-1.5,2.2-4.1,3.5-6.2,5.4c-1.9,1.8-3.6,3.7-6.1,4.6c-0.7,0.3-1.3,0.9-1.9,1.4c-1.3,1.1-2.1,3.1-4.4,2.6
		c-1.9,2-3.7,4.1-5.7,6.1c-1.9,1.8-3.2,4.2-5.3,5.7c-4.3,3-8.9,5.5-10.9,10.8c-0.6,1.7-2.5,3.3-4.2,4.2c-3.2,1.8-5.4,4.5-7.6,7.3
		c-0.9,1.2-2.2,2.4-3.6,2.8c-1.8,0.5-3,1.8-3.6,3.1c-1.2,2.5-3.3,3.7-5.4,5.2c-2.4,1.7-5.4,5.9-7.4,9.3c-1.3,2.3-2.8,4.3-5.5,5.8
		c-6.5,3.5-11.7,8.9-16.4,14.5c-1.9,2.2-3.7,4.3-6.1,5.8c-1.8,1.2-2.8,3.2-4.5,4.6c-1.8,1.5-3.6,3.1-4.8,5.5c-1,1.9-2.9,3.4-4.3,5.2
		c-2,2.5-4.8,4.2-7.3,6.2C545.1,354.8,544,355.4,542.8,356.3z"/>
</g>
</svg>
