<?xml version="1.0" encoding="utf-8"?>
<!-- Generator: Adobe Illustrator 16.0.0, SVG Export Plug-In . SVG Version: 6.00 Build 0)  -->
<!DOCTYPE svg PUBLIC "-//W3C//DTD SVG 1.1//EN" "http://www.w3.org/Graphics/SVG/1.1/DTD/svg11.dtd">
<svg version="1.1" id="Layer_1" xmlns="http://www.w3.org/2000/svg" xmlns:xlink="http://www.w3.org/1999/xlink" x="0px" y="0px"
	 width="170.08px" height="170.08px" viewBox="0 0 170.08 170.08" enable-background="new 0 0 170.08 170.08" xml:space="preserve">
<g>
	<path fill="#222222" d="M23.173,92.506c-3.986,1.072-7.956,3.287-9.163,7.817c-1.931,7.251-1.332,26.21,7.415,30.166
		c4.884,2.206,8.903,2.337,12.027,1.634c-4.95-5.495-8.151-12.438-9.573-20.823C22.622,103.887,22.533,97.806,23.173,92.506z"/>
	<path fill="#222222" d="M154.861,100.323c-1.206-4.53-5.176-6.745-9.162-7.817c0.64,5.3,0.551,11.381-0.706,18.794
		c-1.422,8.385-4.624,15.327-9.575,20.823c3.124,0.703,7.145,0.573,12.029-1.634C156.195,126.533,156.793,107.574,154.861,100.323z"
		/>
	<path fill="#222222" d="M134.093,72.714c-2.75-6.058-5.741-12.655-7.63-21.433c-5.14,3.54-8.992,8.064-12.729,12.46
		c-7.018,8.253-14.273,16.786-29.266,16.786h-0.065c-14.992,0-22.248-8.533-29.266-16.786c-3.737-4.396-7.589-8.921-12.729-12.46
		c-1.889,8.777-4.88,15.374-7.63,21.433c-4.832,10.647-9.006,19.844-5.97,37.75c3.67,21.644,20.297,32.165,50.83,32.165
		c1.047,0,2.009-0.009,2.869-0.017c0.713-0.007,1.357-0.013,1.928-0.013s1.216,0.006,1.928,0.013
		c0.861,0.008,1.823,0.017,2.869,0.017c30.533,0,47.161-10.521,50.831-32.165C143.1,92.558,138.926,83.361,134.093,72.714z
		 M84.436,91.232c2.898,0,5.25,2.35,5.25,5.249s-2.352,5.249-5.25,5.249s-5.25-2.35-5.25-5.249S81.537,91.232,84.436,91.232z
		 M111.043,117.798c-2.274,17.052-21.526,17.392-26.607,17.392c-5.08,0-24.332-0.34-26.607-17.392
		c-1.863-13.975,3.404-25.524,3.404-25.524s6.648,15.498,23.203,15.498s23.204-15.498,23.204-15.498
		S112.908,103.823,111.043,117.798z"/>
	<path fill="#222222" d="M42.743,45.564c7.007,4.121,11.683,9.62,16.204,14.938c6.855,8.063,12.776,15.025,25.456,15.025h0.065
		c12.68,0,18.601-6.963,25.456-15.025c4.521-5.317,9.197-10.816,16.204-14.938c1.997-1.174,2.373-3.263,2.336-4.809
		c-0.086-3.643-2.653-8.635-7.393-11.128c-1.794-0.944-4.14-1.385-7.383-1.385c-3.351,0-7.337,0.483-11.559,0.995
		c-5.292,0.642-11.291,1.368-17.662,1.368c-6.367,0-12.374-0.727-17.674-1.367c-4.235-0.512-8.236-0.996-11.599-0.996
		c-3.252,0-5.603,0.44-7.396,1.384c-4.739,2.494-7.307,7.486-7.393,11.13C40.371,42.302,40.746,44.391,42.743,45.564z"/>
</g>
</svg>
