<?xml version="1.0" encoding="utf-8"?>
<!-- Generator: Adobe Illustrator 16.0.0, SVG Export Plug-In . SVG Version: 6.00 Build 0)  -->
<!DOCTYPE svg PUBLIC "-//W3C//DTD SVG 1.1//EN" "http://www.w3.org/Graphics/SVG/1.1/DTD/svg11.dtd">
<svg version="1.1" id="Layer_1" xmlns="http://www.w3.org/2000/svg" xmlns:xlink="http://www.w3.org/1999/xlink" x="0px" y="0px"
	 width="170.08px" height="170.08px" viewBox="0 0 170.08 170.08" enable-background="new 0 0 170.08 170.08" xml:space="preserve">
<g>
	<path fill="#222222" d="M141.692,26.972c-4.423,0-8.021,4.835-8.021,10.777s3.599,10.777,8.021,10.777
		c4.424,0,8.022-4.835,8.022-10.777S146.116,26.972,141.692,26.972z"/>
	<path fill="#222222" d="M41.276,36.683c-0.027,0.353-0.043,0.707-0.043,1.066v79.416h79.416c3.026,0,5.808,1.269,8.021,3.375
		V51.026V37.749c0-4.163,1.338-7.955,3.52-10.777H49.255C45.187,26.972,41.682,31.237,41.276,36.683z M109.385,67.792
		c3.529,0,6.391,2.861,6.391,6.39c0,3.529-2.861,6.39-6.391,6.39c-3.527,0-6.388-2.86-6.388-6.39
		C102.997,70.653,105.857,67.792,109.385,67.792z M95.03,52.43c4.214,0,7.628,3.417,7.628,7.629c0,4.215-3.414,7.629-7.628,7.629
		c-4.213,0-7.629-3.414-7.629-7.629C87.401,55.847,90.817,52.43,95.03,52.43z M103.11,87.368c1.48,7.476-1.504,17.469-19.159,17.469
		c-17.657,0-20.642-9.993-19.16-17.469c1.653-8.34,9.512-17.469,19.16-17.469C93.599,69.899,101.456,79.028,103.11,87.368z
		 M72.87,52.43c4.212,0,7.629,3.417,7.629,7.629c0,4.215-3.417,7.629-7.629,7.629s-7.628-3.414-7.628-7.629
		C65.242,55.847,68.658,52.43,72.87,52.43z M58.516,67.792c3.528,0,6.389,2.861,6.389,6.39c0,3.529-2.86,6.39-6.389,6.39
		c-3.53,0-6.391-2.86-6.391-6.39C52.125,70.653,54.985,67.792,58.516,67.792z"/>
	<path fill="#222222" d="M28.211,122.165c-4.423,0-8.021,4.835-8.021,10.777s3.599,10.777,8.021,10.777h82.955
		c-2.188-2.823-3.538-6.608-3.538-10.777s1.351-7.954,3.538-10.777H28.211z"/>
	<path fill="#222222" d="M120.649,122.165c-4.423,0-8.021,4.835-8.021,10.777s3.599,10.777,8.021,10.777s8.021-4.835,8.021-10.777
		S125.072,122.165,120.649,122.165z"/>
</g>
</svg>
