<?xml version="1.0" encoding="utf-8"?>
<!-- Generator: Adobe Illustrator 16.0.0, SVG Export Plug-In . SVG Version: 6.00 Build 0)  -->
<!DOCTYPE svg PUBLIC "-//W3C//DTD SVG 1.1//EN" "http://www.w3.org/Graphics/SVG/1.1/DTD/svg11.dtd">
<svg version="1.1" id="Layer_1" xmlns="http://www.w3.org/2000/svg" xmlns:xlink="http://www.w3.org/1999/xlink" x="0px" y="0px"
	 width="170.08px" height="170.08px" viewBox="0 0 170.08 170.08" enable-background="new 0 0 170.08 170.08" xml:space="preserve">
<g>
	<path fill="#222222" d="M61.367,98.159c3.442-3.159,6.619-9.298-5.475-26.066c-6.128-8.496-8.316-16.378-9.036-21.831
		C35.771,63.839,28.386,81.101,30.148,95.671c0.446,3.686,1.243,7.161,2.322,10.438c5.022-1.938,10.191-2.741,14.816-3.457
		C53.215,101.734,58.334,100.942,61.367,98.159z"/>
	<path fill="#222222" d="M134.579,66.642c-3.382,0.375-13.853,2.394-20.548,13.17c-3.927,6.32-3.849,12.58-3.773,18.635
		c0.074,5.947,0.151,12.097-3.776,17.589c-5.236,7.324-13.828,9.48-22.57,9.481c-8.094,0-16.316-1.849-22.133-3.155
		c-8.994-2.021-16.089-0.547-19.896,0.694c11.245,13.492,28.449,20.539,43.553,20.539c23.255,0,51.506-16.688,55.286-47.924
		C141.826,86.529,139.33,76.328,134.579,66.642z"/>
	<path fill="#222222" d="M62.874,117.482c16.3,3.664,32.371,5.672,39.541-4.355c2.974-4.16,2.913-9.007,2.844-14.618
		c-0.081-6.457-0.172-13.775,4.526-21.336c6.823-10.981,17.009-14.239,22.304-15.206c-2.991-5.202-6.595-10.171-10.591-14.647
		c-2.788,1.778-8.604,4.854-15.5,4.854c-2.728,0-5.62-0.481-8.56-1.717C86.693,45.945,84.51,34.57,84.916,26.973
		c-11.057,0.222-23.263,7.49-33.366,17.994c-0.071,3.611,0.579,13.359,8.397,24.2c6.908,9.579,14.923,23.387,4.801,32.676
		c-4.151,3.81-10.245,4.752-16.696,5.75c-4.575,0.708-9.288,1.441-13.787,3.183c1.267,2.875,2.761,5.573,4.457,8.082
		C42.679,117.322,51.407,114.906,62.874,117.482z"/>
	<path fill="#222222" d="M99.374,45.848c7.554,3.17,15.03-0.15,18.606-2.242c-8.615-8.557-18.604-14.725-28.057-16.264
		C89.673,32.303,90.404,42.08,99.374,45.848z"/>
</g>
</svg>
