<?xml version="1.0" encoding="utf-8"?>
<!-- Generator: Adobe Illustrator 26.0.1, SVG Export Plug-In . SVG Version: 6.00 Build 0)  -->
<svg version="1.1" id="Layer_1" xmlns="http://www.w3.org/2000/svg" xmlns:xlink="http://www.w3.org/1999/xlink" x="0px" y="0px"
	 viewBox="0 0 170.1 170.1" style="enable-background:new 0 0 170.1 170.1;" xml:space="preserve">
<style type="text/css">
	.st0{fill:#222222;}
</style>
<g>
	<path class="st0" d="M102.9,128.2h37.9V85.4c-1.8,0.8-3.8,1.2-5.9,1.2c-5.3,0-9.9-2.8-12.7-7.1c-2.7,4.3-7.4,7.1-12.7,7.1
		s-9.9-2.8-12.7-7.1c-2.7,4.3-7.4,7.1-12.7,7.1s-9.9-2.8-12.7-7.1c-2.7,4.3-7.4,7.1-12.7,7.1c-5.3,0-9.9-2.8-12.7-7.1
		c-2.7,4.3-7.4,7.1-12.7,7.1c-2.1,0-4.1-0.4-5.9-1.2v42.7h37.9v-14.4c0-11.5,8.4-20.8,18.7-20.8c10.3,0,18.7,9.3,18.7,20.8
		L102.9,128.2L102.9,128.2z"/>
	<path class="st0" d="M33.6,81.7c5.6,0,10.2-4.8,10.2-10.7V27.2H23.4v43.7C23.4,76.9,28,81.7,33.6,81.7z"/>
	<path class="st0" d="M84.2,81.7c5.6,0,10.2-4.8,10.2-10.7V27.2H74.1v43.7C74.1,76.9,78.6,81.7,84.2,81.7z"/>
	<path class="st0" d="M124.7,27.2v43.7c0,5.9,4.6,10.7,10.2,10.7S145,76.9,145,70.9V27.2C145,27.2,124.7,27.2,124.7,27.2z"/>
	<polygon class="st0" points="25.3,143.9 27.7,143.9 65.7,143.9 65.7,133.2 26.1,133.2 	"/>
	<polygon class="st0" points="102.7,133.2 102.7,143.9 140.7,143.9 143.1,143.9 142.4,133.2 	"/>
</g>
<rect x="43.7" y="27.2" class="st0" width="30.3" height="7.7"/>
<rect x="94.4" y="27.2" class="st0" width="30.3" height="7.7"/>
</svg>
